%TF.GenerationSoftware,KiCad,Pcbnew,9.0.7*%
%TF.CreationDate,2026-03-30T10:08:17+02:00*%
%TF.ProjectId,Aurora,4175726f-7261-42e6-9b69-6361645f7063,rev?*%
%TF.SameCoordinates,Original*%
%TF.FileFunction,Copper,L1,Top*%
%TF.FilePolarity,Positive*%
%FSLAX46Y46*%
G04 Gerber Fmt 4.6, Leading zero omitted, Abs format (unit mm)*
G04 Created by KiCad (PCBNEW 9.0.7) date 2026-03-30 10:08:17*
%MOMM*%
%LPD*%
G01*
G04 APERTURE LIST*
G04 Aperture macros list*
%AMRoundRect*
0 Rectangle with rounded corners*
0 $1 Rounding radius*
0 $2 $3 $4 $5 $6 $7 $8 $9 X,Y pos of 4 corners*
0 Add a 4 corners polygon primitive as box body*
4,1,4,$2,$3,$4,$5,$6,$7,$8,$9,$2,$3,0*
0 Add four circle primitives for the rounded corners*
1,1,$1+$1,$2,$3*
1,1,$1+$1,$4,$5*
1,1,$1+$1,$6,$7*
1,1,$1+$1,$8,$9*
0 Add four rect primitives between the rounded corners*
20,1,$1+$1,$2,$3,$4,$5,0*
20,1,$1+$1,$4,$5,$6,$7,0*
20,1,$1+$1,$6,$7,$8,$9,0*
20,1,$1+$1,$8,$9,$2,$3,0*%
G04 Aperture macros list end*
%TA.AperFunction,SMDPad,CuDef*%
%ADD10R,3.700000X1.100000*%
%TD*%
%TA.AperFunction,ComponentPad*%
%ADD11R,1.650000X1.650000*%
%TD*%
%TA.AperFunction,ComponentPad*%
%ADD12C,1.650000*%
%TD*%
%TA.AperFunction,ComponentPad*%
%ADD13R,1.950000X1.950000*%
%TD*%
%TA.AperFunction,ComponentPad*%
%ADD14C,1.950000*%
%TD*%
%TA.AperFunction,SMDPad,CuDef*%
%ADD15R,0.550000X1.050000*%
%TD*%
%TA.AperFunction,SMDPad,CuDef*%
%ADD16R,0.350000X0.600000*%
%TD*%
%TA.AperFunction,SMDPad,CuDef*%
%ADD17R,1.700000X1.100000*%
%TD*%
%TA.AperFunction,SMDPad,CuDef*%
%ADD18R,1.550000X2.350000*%
%TD*%
%TA.AperFunction,SMDPad,CuDef*%
%ADD19R,1.050000X0.800000*%
%TD*%
%TA.AperFunction,SMDPad,CuDef*%
%ADD20R,1.430000X0.940000*%
%TD*%
%TA.AperFunction,SMDPad,CuDef*%
%ADD21RoundRect,0.200000X-0.200000X-0.275000X0.200000X-0.275000X0.200000X0.275000X-0.200000X0.275000X0*%
%TD*%
%TA.AperFunction,SMDPad,CuDef*%
%ADD22RoundRect,0.140000X-0.170000X0.140000X-0.170000X-0.140000X0.170000X-0.140000X0.170000X0.140000X0*%
%TD*%
%TA.AperFunction,SMDPad,CuDef*%
%ADD23R,3.100000X1.200000*%
%TD*%
%TA.AperFunction,SMDPad,CuDef*%
%ADD24C,5.700000*%
%TD*%
%TA.AperFunction,SMDPad,CuDef*%
%ADD25RoundRect,0.062500X-0.375000X-0.062500X0.375000X-0.062500X0.375000X0.062500X-0.375000X0.062500X0*%
%TD*%
%TA.AperFunction,SMDPad,CuDef*%
%ADD26RoundRect,0.062500X-0.062500X-0.375000X0.062500X-0.375000X0.062500X0.375000X-0.062500X0.375000X0*%
%TD*%
%TA.AperFunction,HeatsinkPad*%
%ADD27R,3.450000X3.450000*%
%TD*%
%TA.AperFunction,ComponentPad*%
%ADD28C,2.540000*%
%TD*%
%TA.AperFunction,ViaPad*%
%ADD29C,0.600000*%
%TD*%
%TA.AperFunction,Conductor*%
%ADD30C,0.500000*%
%TD*%
%TA.AperFunction,Conductor*%
%ADD31C,0.200000*%
%TD*%
%TA.AperFunction,Conductor*%
%ADD32C,0.300000*%
%TD*%
%TA.AperFunction,Conductor*%
%ADD33C,2.000000*%
%TD*%
G04 APERTURE END LIST*
D10*
%TO.P,L3,1*%
%TO.N,/LED(R)+*%
X149000000Y-53550000D03*
%TO.P,L3,2*%
%TO.N,Net-(IC6-SW)*%
X149000000Y-56550000D03*
%TD*%
%TO.P,L2,1*%
%TO.N,/LED(B)+*%
X170000000Y-53400000D03*
%TO.P,L2,2*%
%TO.N,Net-(IC5-SW)*%
X170000000Y-56400000D03*
%TD*%
%TO.P,L1,1*%
%TO.N,/LED(G)+*%
X159500000Y-53500000D03*
%TO.P,L1,2*%
%TO.N,Net-(IC4-SW)*%
X159500000Y-56500000D03*
%TD*%
D11*
%TO.P,J5,1,1*%
%TO.N,/I_{COMMON}*%
X177500000Y-100000000D03*
D12*
%TO.P,J5,2,2*%
%TO.N,/I_{9}*%
X174000000Y-100000000D03*
%TO.P,J5,3,3*%
%TO.N,/I_{8}*%
X170500000Y-100000000D03*
%TO.P,J5,4,4*%
%TO.N,/I_{7}*%
X167000000Y-100000000D03*
%TO.P,J5,5,5*%
%TO.N,/I_{6}*%
X163500000Y-100000000D03*
%TO.P,J5,6,6*%
%TO.N,/I_{5}*%
X160000000Y-100000000D03*
%TO.P,J5,7,7*%
%TO.N,/I_{4}*%
X156500000Y-100000000D03*
%TO.P,J5,8,8*%
%TO.N,/I_{3}*%
X153000000Y-100000000D03*
%TO.P,J5,9,9*%
%TO.N,/I_{2}*%
X149500000Y-100000000D03*
%TO.P,J5,10,10*%
%TO.N,/I_{1}*%
X146000000Y-100000000D03*
%TO.P,J5,11,11*%
%TO.N,/I_{0}*%
X142500000Y-100000000D03*
%TD*%
D13*
%TO.P,J1,1*%
%TO.N,Net-(F1-Pad1)*%
X192000000Y-77050000D03*
D14*
%TO.P,J1,2*%
%TO.N,Net-(AL1-N)*%
X187000000Y-77050000D03*
%TO.P,J1,3*%
%TO.N,Net-(F1-Pad1)*%
X192000000Y-85250000D03*
%TO.P,J1,4*%
%TO.N,Net-(AL1-N)*%
X187000000Y-85250000D03*
%TD*%
D15*
%TO.P,IC6,1,SW*%
%TO.N,Net-(IC6-SW)*%
X149950000Y-59250000D03*
%TO.P,IC6,2,GND*%
%TO.N,GND*%
X149000000Y-59250000D03*
%TO.P,IC6,3,CTRL*%
%TO.N,/CH_RED*%
X148050000Y-59250000D03*
%TO.P,IC6,4,SET*%
%TO.N,/LED(R)-*%
X148050000Y-61850000D03*
%TO.P,IC6,5,VIN*%
%TO.N,/5V*%
X149950000Y-61850000D03*
%TD*%
%TO.P,IC5,1,SW*%
%TO.N,Net-(IC5-SW)*%
X170950000Y-59400000D03*
%TO.P,IC5,2,GND*%
%TO.N,GND*%
X170000000Y-59400000D03*
%TO.P,IC5,3,CTRL*%
%TO.N,/CH_BLUE*%
X169050000Y-59400000D03*
%TO.P,IC5,4,SET*%
%TO.N,/LED(B)-*%
X169050000Y-62000000D03*
%TO.P,IC5,5,VIN*%
%TO.N,/5V*%
X170950000Y-62000000D03*
%TD*%
%TO.P,IC4,1,SW*%
%TO.N,Net-(IC4-SW)*%
X160000000Y-59400000D03*
%TO.P,IC4,2,GND*%
%TO.N,GND*%
X159050000Y-59400000D03*
%TO.P,IC4,3,CTRL*%
%TO.N,/CH_GREEN*%
X158100000Y-59400000D03*
%TO.P,IC4,4,SET*%
%TO.N,/LED(G)-*%
X158100000Y-62000000D03*
%TO.P,IC4,5,VIN*%
%TO.N,/5V*%
X160000000Y-62000000D03*
%TD*%
D16*
%TO.P,IC1,1,OUT*%
%TO.N,/3.3V*%
X129850000Y-79550000D03*
%TO.P,IC1,2,NR*%
%TO.N,unconnected-(IC1-NR-Pad2)*%
X130500000Y-79550000D03*
%TO.P,IC1,3,GND*%
%TO.N,GND*%
X131150000Y-79550000D03*
%TO.P,IC1,4,EN*%
%TO.N,/5V*%
X131150000Y-77450000D03*
%TO.P,IC1,5,NC*%
%TO.N,unconnected-(IC1-NC-Pad5)*%
X130500000Y-77450000D03*
%TO.P,IC1,6,IN*%
%TO.N,/5V*%
X129850000Y-77450000D03*
D17*
%TO.P,IC1,7,EP*%
%TO.N,GND*%
X130500000Y-78500000D03*
%TD*%
D18*
%TO.P,D3,1*%
%TO.N,/5V*%
X154000000Y-57700000D03*
%TO.P,D3,2*%
%TO.N,Net-(IC6-SW)*%
X154000000Y-53400000D03*
%TD*%
%TO.P,D2,1*%
%TO.N,/5V*%
X175000000Y-57550000D03*
%TO.P,D2,2*%
%TO.N,Net-(IC5-SW)*%
X175000000Y-53250000D03*
%TD*%
%TO.P,D1,1*%
%TO.N,/5V*%
X164500000Y-57650000D03*
%TO.P,D1,2*%
%TO.N,Net-(IC4-SW)*%
X164500000Y-53350000D03*
%TD*%
D19*
%TO.P,C8,1*%
%TO.N,/5V*%
X173500000Y-62750000D03*
%TO.P,C8,2*%
%TO.N,GND*%
X173500000Y-60900000D03*
%TD*%
%TO.P,C7,1*%
%TO.N,/5V*%
X152500000Y-62900000D03*
%TO.P,C7,2*%
%TO.N,GND*%
X152500000Y-61050000D03*
%TD*%
%TO.P,C6,1*%
%TO.N,/5V*%
X162500000Y-63000000D03*
%TO.P,C6,2*%
%TO.N,GND*%
X162500000Y-61150000D03*
%TD*%
D20*
%TO.P,C4,1*%
%TO.N,/3.3V*%
X130500000Y-81180000D03*
%TO.P,C4,2*%
%TO.N,GND*%
X130500000Y-82820000D03*
%TD*%
%TO.P,C2,1*%
%TO.N,/3.3V*%
X128000000Y-79520000D03*
%TO.P,C2,2*%
%TO.N,GND*%
X128000000Y-77880000D03*
%TD*%
%TO.P,C1,1*%
%TO.N,GND*%
X143000000Y-54680000D03*
%TO.P,C1,2*%
%TO.N,/5V*%
X143000000Y-56320000D03*
%TD*%
D21*
%TO.P,R29,2*%
%TO.N,/5V*%
X170825000Y-63900000D03*
%TO.P,R29,1*%
%TO.N,/LED(B)-*%
X169175000Y-63900000D03*
%TD*%
%TO.P,R28,2*%
%TO.N,/5V*%
X160000000Y-64000000D03*
%TO.P,R28,1*%
%TO.N,/LED(G)-*%
X158350000Y-64000000D03*
%TD*%
%TO.P,R30,2*%
%TO.N,/5V*%
X149825000Y-63550000D03*
%TO.P,R30,1*%
%TO.N,/LED(R)-*%
X148175000Y-63550000D03*
%TD*%
D22*
%TO.P,C3,1*%
%TO.N,GND*%
X141500000Y-55040000D03*
%TO.P,C3,2*%
%TO.N,/5V*%
X141500000Y-56000000D03*
%TD*%
%TO.P,C5,1*%
%TO.N,/3.3V*%
X132000000Y-81020000D03*
%TO.P,C5,2*%
%TO.N,GND*%
X132000000Y-81980000D03*
%TD*%
D23*
%TO.P,LED1,1*%
%TO.N,/LED(R)-*%
X166298000Y-70572000D03*
%TO.P,LED1,2*%
%TO.N,/LED(R)+*%
X153858000Y-70572000D03*
%TO.P,LED1,3*%
%TO.N,/LED(G)-*%
X166298000Y-72272000D03*
%TO.P,LED1,4*%
%TO.N,/LED(G)+*%
X153858000Y-72272000D03*
%TO.P,LED1,5*%
%TO.N,/LED(B)-*%
X166298000Y-73972000D03*
%TO.P,LED1,6*%
%TO.N,/LED(B)+*%
X153858000Y-73972000D03*
D24*
%TO.P,LED1,PAD*%
%TO.N,unconnected-(LED1-PadPAD)*%
X160078000Y-72272000D03*
%TD*%
D25*
%TO.P,IC3,1,PB9*%
%TO.N,unconnected-(IC3-PB9-Pad1)*%
X133312500Y-79500000D03*
%TO.P,IC3,2,PC14-OSC32_IN*%
%TO.N,unconnected-(IC3-PC14-OSC32_IN-Pad2)*%
X133312500Y-80000000D03*
%TO.P,IC3,3,PC15-OSC32_OUT*%
%TO.N,unconnected-(IC3-PC15-OSC32_OUT-Pad3)*%
X133312500Y-80500000D03*
%TO.P,IC3,4,VDD/VDDA*%
%TO.N,/3.3V*%
X133312500Y-81000000D03*
%TO.P,IC3,5,VSS/VSSA*%
%TO.N,GND*%
X133312500Y-81500000D03*
%TO.P,IC3,6,PF2-NRST*%
%TO.N,/NRST*%
X133312500Y-82000000D03*
%TO.P,IC3,7,PA0*%
%TO.N,/In_{0}*%
X133312500Y-82500000D03*
%TO.P,IC3,8,PA1*%
%TO.N,/In_{1}*%
X133312500Y-83000000D03*
D26*
%TO.P,IC3,9,PA2*%
%TO.N,/In_{2}*%
X134000000Y-83687500D03*
%TO.P,IC3,10,PA3*%
%TO.N,/In_{3}*%
X134500000Y-83687500D03*
%TO.P,IC3,11,PA4*%
%TO.N,/In_{4}*%
X135000000Y-83687500D03*
%TO.P,IC3,12,PA5*%
%TO.N,/In_{5}*%
X135500000Y-83687500D03*
%TO.P,IC3,13,PA6*%
%TO.N,/In_{6}*%
X136000000Y-83687500D03*
%TO.P,IC3,14,PA7*%
%TO.N,/In_{7}*%
X136500000Y-83687500D03*
%TO.P,IC3,15,PB0*%
%TO.N,/In_{8}*%
X137000000Y-83687500D03*
%TO.P,IC3,16,PB1*%
%TO.N,/In_{9}*%
X137500000Y-83687500D03*
D25*
%TO.P,IC3,17,PB15*%
%TO.N,unconnected-(IC3-PB15-Pad17)*%
X138187500Y-83000000D03*
%TO.P,IC3,18,PA8*%
%TO.N,Net-(IC3-PA8)*%
X138187500Y-82500000D03*
%TO.P,IC3,19,PA9*%
%TO.N,Net-(IC3-PA9)*%
X138187500Y-82000000D03*
%TO.P,IC3,20,PC6*%
%TO.N,/USB_VBUS_Sense*%
X138187500Y-81500000D03*
%TO.P,IC3,21,PA10*%
%TO.N,Net-(IC3-PA10)*%
X138187500Y-81000000D03*
%TO.P,IC3,22,PA11[PA9]*%
%TO.N,/USB_DN*%
X138187500Y-80500000D03*
%TO.P,IC3,23,PA12[PA10]*%
%TO.N,/USB_DP*%
X138187500Y-80000000D03*
%TO.P,IC3,24,PA13*%
%TO.N,/SYS_SWDIO*%
X138187500Y-79500000D03*
D26*
%TO.P,IC3,25,PA14-BOOT0*%
%TO.N,/SYS_SWCLK*%
X137500000Y-78812500D03*
%TO.P,IC3,26,PD0*%
%TO.N,unconnected-(IC3-PD0-Pad26)*%
X137000000Y-78812500D03*
%TO.P,IC3,27,PD1*%
%TO.N,unconnected-(IC3-PD1-Pad27)*%
X136500000Y-78812500D03*
%TO.P,IC3,28,PD2*%
%TO.N,unconnected-(IC3-PD2-Pad28)*%
X136000000Y-78812500D03*
%TO.P,IC3,29,PD3*%
%TO.N,unconnected-(IC3-PD3-Pad29)*%
X135500000Y-78812500D03*
%TO.P,IC3,30,PB6*%
%TO.N,unconnected-(IC3-PB6-Pad30)*%
X135000000Y-78812500D03*
%TO.P,IC3,31,PB7*%
%TO.N,unconnected-(IC3-PB7-Pad31)*%
X134500000Y-78812500D03*
%TO.P,IC3,32,PB8*%
%TO.N,unconnected-(IC3-PB8-Pad32)*%
X134000000Y-78812500D03*
D27*
%TO.P,IC3,33,EP*%
%TO.N,GND*%
X135750000Y-81250000D03*
%TD*%
D23*
%TO.P,LED2,1*%
%TO.N,/LED(R)-*%
X166250000Y-81000000D03*
%TO.P,LED2,2*%
%TO.N,/LED(R)+*%
X153810000Y-81000000D03*
%TO.P,LED2,3*%
%TO.N,/LED(G)-*%
X166250000Y-82700000D03*
%TO.P,LED2,4*%
%TO.N,/LED(G)+*%
X153810000Y-82700000D03*
%TO.P,LED2,5*%
%TO.N,/LED(B)-*%
X166250000Y-84400000D03*
%TO.P,LED2,6*%
%TO.N,/LED(B)+*%
X153810000Y-84400000D03*
D24*
%TO.P,LED2,PAD*%
%TO.N,unconnected-(LED2-PadPAD)*%
X160030000Y-82700000D03*
%TD*%
D21*
%TO.P,R26,1*%
%TO.N,Net-(IC3-PA9)*%
X142350000Y-81000000D03*
%TO.P,R26,2*%
%TO.N,/CH_GREEN*%
X144000000Y-81000000D03*
%TD*%
%TO.P,R27,1*%
%TO.N,Net-(IC3-PA8)*%
X142350000Y-83510000D03*
%TO.P,R27,2*%
%TO.N,/CH_RED*%
X144000000Y-83510000D03*
%TD*%
D28*
%TO.P,AL1,1,L*%
%TO.N,Net-(AL1-L)*%
X176250000Y-48700000D03*
%TO.P,AL1,2,N*%
%TO.N,Net-(AL1-N)*%
X176250000Y-67750000D03*
%TO.P,AL1,3,(-)*%
%TO.N,GND*%
X143250000Y-48700000D03*
%TO.P,AL1,4,(+)*%
%TO.N,/5V*%
X143250000Y-61405000D03*
%TD*%
D21*
%TO.P,R25,1*%
%TO.N,Net-(IC3-PA10)*%
X142350000Y-78490000D03*
%TO.P,R25,2*%
%TO.N,/CH_BLUE*%
X144000000Y-78490000D03*
%TD*%
D29*
%TO.N,GND*%
X136179767Y-89308895D03*
X156000000Y-66000000D03*
X156500000Y-63000000D03*
%TO.N,/3.3V*%
X143000000Y-75500000D03*
%TO.N,/NRST*%
X131000000Y-91500000D03*
%TO.N,/In_{0}*%
X174500000Y-71450000D03*
%TO.N,/In_{1}*%
X175500000Y-71950000D03*
%TO.N,/In_{2}*%
X176373898Y-72450000D03*
%TO.N,/In_{3}*%
X176929847Y-72931012D03*
%TO.N,/In_{4}*%
X177428952Y-73421825D03*
%TO.N,/In_{5}*%
X177899751Y-73939851D03*
%TO.N,/In_{6}*%
X178500000Y-74299997D03*
%TO.N,/In_{7}*%
X178500000Y-75000000D03*
%TO.N,/In_{8}*%
X178000000Y-75500000D03*
%TO.N,/In_{9}*%
X177690000Y-76190000D03*
%TO.N,/LED(B)+*%
X157000000Y-67000000D03*
%TO.N,/LED(G)+*%
X155000000Y-67000000D03*
%TO.N,/LED(R)+*%
X152000000Y-68500000D03*
X149000000Y-51000000D03*
%TO.N,/LED(G)+*%
X159500000Y-51000000D03*
%TO.N,/LED(B)+*%
X170000000Y-51000000D03*
%TO.N,/LED(R)-*%
X148175000Y-63550000D03*
%TO.N,/LED(G)-*%
X158350000Y-64000000D03*
%TO.N,/LED(R)-*%
X163000000Y-67000000D03*
%TO.N,/LED(G)-*%
X160000000Y-67000000D03*
%TO.N,/SYS_SWCLK*%
X144000000Y-82500000D03*
%TO.N,/USB_VBUS_Sense*%
X140000000Y-81500000D03*
%TO.N,/USB_DN*%
X141000000Y-80725000D03*
%TO.N,/USB_DP*%
X141000000Y-80000000D03*
%TO.N,/SYS_SWDIO*%
X144500000Y-82000000D03*
%TD*%
D30*
%TO.N,/5V*%
X145000000Y-54000000D02*
X148651000Y-50349000D01*
X148651000Y-50349000D02*
X153601000Y-50349000D01*
X144680000Y-56320000D02*
X145000000Y-56000000D01*
X145000000Y-56000000D02*
X145000000Y-54000000D01*
X143000000Y-56320000D02*
X144680000Y-56320000D01*
X170849000Y-50349000D02*
X164151000Y-50349000D01*
X176126000Y-51724000D02*
X172224000Y-51724000D01*
X176126000Y-56500000D02*
X176126000Y-51724000D01*
X176050000Y-56500000D02*
X176126000Y-56500000D01*
X172224000Y-51724000D02*
X170849000Y-50349000D01*
X175000000Y-57550000D02*
X176050000Y-56500000D01*
%TO.N,GND*%
X170000000Y-60425000D02*
X170000000Y-59400000D01*
X170475000Y-60900000D02*
X170000000Y-60425000D01*
X173500000Y-60900000D02*
X170475000Y-60900000D01*
%TO.N,/LED(B)+*%
X156500000Y-72482000D02*
X156500000Y-67500000D01*
X155010000Y-73972000D02*
X156500000Y-72482000D01*
X156500000Y-67500000D02*
X157000000Y-67000000D01*
X153858000Y-73972000D02*
X155010000Y-73972000D01*
%TO.N,/LED(G)+*%
X155759000Y-67759000D02*
X155000000Y-67000000D01*
X155010000Y-72272000D02*
X155759000Y-71523000D01*
X155759000Y-71523000D02*
X155759000Y-67759000D01*
X153858000Y-72272000D02*
X155010000Y-72272000D01*
%TO.N,/LED(R)+*%
X153858000Y-70358000D02*
X152000000Y-68500000D01*
X153858000Y-70572000D02*
X153858000Y-70358000D01*
X152908000Y-70572000D02*
X153858000Y-70572000D01*
X150500000Y-72980000D02*
X152908000Y-70572000D01*
X150500000Y-79500000D02*
X150500000Y-72980000D01*
X152000000Y-81000000D02*
X150500000Y-79500000D01*
X153810000Y-81000000D02*
X152000000Y-81000000D01*
%TO.N,/LED(G)+*%
X152706000Y-72272000D02*
X153858000Y-72272000D01*
X155711000Y-78677000D02*
X151957000Y-74923000D01*
X151957000Y-73021000D02*
X152706000Y-72272000D01*
X155711000Y-81951000D02*
X155711000Y-78677000D01*
X154962000Y-82700000D02*
X155711000Y-81951000D01*
X153810000Y-82700000D02*
X154962000Y-82700000D01*
X151957000Y-74923000D02*
X151957000Y-73021000D01*
%TO.N,/LED(B)+*%
X156500000Y-76614000D02*
X153858000Y-73972000D01*
X154760000Y-84400000D02*
X156500000Y-82660000D01*
X156500000Y-82660000D02*
X156500000Y-76614000D01*
X153810000Y-84400000D02*
X154760000Y-84400000D01*
%TO.N,/LED(R)-*%
X163500000Y-78250000D02*
X166250000Y-81000000D01*
X159000000Y-68000000D02*
X160500000Y-68000000D01*
X158500000Y-67500000D02*
X159000000Y-68000000D01*
X163500000Y-71000000D02*
X163500000Y-78250000D01*
X159000000Y-66000000D02*
X158500000Y-66500000D01*
X162000000Y-66000000D02*
X159000000Y-66000000D01*
X158500000Y-66500000D02*
X158500000Y-67500000D01*
X160500000Y-68000000D02*
X163500000Y-71000000D01*
X163000000Y-67000000D02*
X162000000Y-66000000D01*
%TO.N,/LED(G)-*%
X164397000Y-70897000D02*
X160500000Y-67000000D01*
X160500000Y-67000000D02*
X160000000Y-67000000D01*
X164397000Y-71523000D02*
X164397000Y-70897000D01*
X165146000Y-72272000D02*
X164397000Y-71523000D01*
X166298000Y-72272000D02*
X165146000Y-72272000D01*
%TO.N,/LED(R)-*%
X166298000Y-70572000D02*
X166298000Y-70298000D01*
X166298000Y-70298000D02*
X163000000Y-67000000D01*
D31*
%TO.N,/CH_BLUE*%
X144496320Y-84487000D02*
X148500000Y-80483320D01*
X148500000Y-80483320D02*
X148500000Y-70000000D01*
X143503680Y-84487000D02*
X144496320Y-84487000D01*
X148500000Y-70000000D02*
X153500000Y-65000000D01*
X143098000Y-84081320D02*
X143503680Y-84487000D01*
X153500000Y-65000000D02*
X163450000Y-65000000D01*
X163450000Y-65000000D02*
X169050000Y-59400000D01*
X143098000Y-79392000D02*
X143098000Y-84081320D01*
X144000000Y-78490000D02*
X143098000Y-79392000D01*
%TO.N,/LED(G)-*%
X166298000Y-72272000D02*
X165272000Y-72272000D01*
D30*
X164397000Y-73021000D02*
X165146000Y-72272000D01*
X168151000Y-81951000D02*
X168151000Y-78677000D01*
X167402000Y-82700000D02*
X168151000Y-81951000D01*
X166250000Y-82700000D02*
X167402000Y-82700000D01*
X168151000Y-78677000D02*
X164397000Y-74923000D01*
X164397000Y-74923000D02*
X164397000Y-73021000D01*
%TO.N,/LED(B)-*%
X167402000Y-84400000D02*
X166250000Y-84400000D01*
X169000000Y-76674000D02*
X169000000Y-82802000D01*
X169000000Y-82802000D02*
X167402000Y-84400000D01*
X166298000Y-73972000D02*
X169000000Y-76674000D01*
X168348000Y-73972000D02*
X166298000Y-73972000D01*
X169175000Y-73145000D02*
X168348000Y-73972000D01*
X169175000Y-63900000D02*
X169175000Y-73145000D01*
X169050000Y-63775000D02*
X169175000Y-63900000D01*
X169050000Y-62000000D02*
X169050000Y-63775000D01*
%TO.N,/5V*%
X129850000Y-76923000D02*
X129850000Y-77450000D01*
X130273000Y-76500000D02*
X129850000Y-76923000D01*
X131150000Y-76923000D02*
X130727000Y-76500000D01*
X131150000Y-77450000D02*
X131150000Y-76923000D01*
X130727000Y-76500000D02*
X130273000Y-76500000D01*
X143250000Y-65350000D02*
X143250000Y-61405000D01*
X131150000Y-77450000D02*
X143250000Y-65350000D01*
D32*
%TO.N,GND*%
X129485000Y-82820000D02*
X130500000Y-82820000D01*
X127034000Y-80369000D02*
X129485000Y-82820000D01*
X127034000Y-78846000D02*
X127034000Y-80369000D01*
X128000000Y-77880000D02*
X127034000Y-78846000D01*
X128620000Y-78500000D02*
X128000000Y-77880000D01*
X130500000Y-78500000D02*
X128620000Y-78500000D01*
X131150000Y-79150000D02*
X130500000Y-78500000D01*
X131150000Y-79550000D02*
X131150000Y-79150000D01*
X135500000Y-81500000D02*
X135750000Y-81250000D01*
X133312500Y-81500000D02*
X135500000Y-81500000D01*
X131340000Y-81980000D02*
X130500000Y-82820000D01*
X132000000Y-81980000D02*
X131340000Y-81980000D01*
X132480000Y-81500000D02*
X132000000Y-81980000D01*
X133312500Y-81500000D02*
X132480000Y-81500000D01*
%TO.N,/3.3V*%
X136000000Y-75500000D02*
X143000000Y-75500000D01*
X132000000Y-79500000D02*
X136000000Y-75500000D01*
X132000000Y-81020000D02*
X132000000Y-79500000D01*
X128030000Y-79550000D02*
X128000000Y-79520000D01*
X129850000Y-79550000D02*
X128030000Y-79550000D01*
X130500000Y-81180000D02*
X129850000Y-80530000D01*
X129850000Y-80530000D02*
X129850000Y-79550000D01*
X130660000Y-81020000D02*
X130500000Y-81180000D01*
X132000000Y-81020000D02*
X130660000Y-81020000D01*
X132020000Y-81000000D02*
X132000000Y-81020000D01*
X133312500Y-81000000D02*
X132020000Y-81000000D01*
%TO.N,/NRST*%
X131000000Y-86000000D02*
X131000000Y-91500000D01*
X132223000Y-84777000D02*
X131000000Y-86000000D01*
X132223000Y-82639812D02*
X132223000Y-84777000D01*
X132862812Y-82000000D02*
X132223000Y-82639812D01*
X133312500Y-82000000D02*
X132862812Y-82000000D01*
D31*
%TO.N,/SYS_SWDIO*%
X145500000Y-81000000D02*
X144500000Y-82000000D01*
X145500000Y-78500000D02*
X145500000Y-81000000D01*
X144301000Y-77301000D02*
X145500000Y-78500000D01*
X138187500Y-79500000D02*
X140386500Y-77301000D01*
X140386500Y-77301000D02*
X144301000Y-77301000D01*
%TO.N,/SYS_SWCLK*%
X139312500Y-77000000D02*
X137500000Y-78812500D01*
X145801000Y-81407521D02*
X145801000Y-78309340D01*
X144491660Y-77000000D02*
X139312500Y-77000000D01*
X144708521Y-82500000D02*
X145801000Y-81407521D01*
X145801000Y-78309340D02*
X144491660Y-77000000D01*
X144000000Y-82500000D02*
X144708521Y-82500000D01*
D32*
%TO.N,/In_{0}*%
X174551000Y-71399000D02*
X174500000Y-71450000D01*
X179213735Y-71399000D02*
X174551000Y-71399000D01*
X181457000Y-73642265D02*
X179213735Y-71399000D01*
X181457000Y-77739032D02*
X181457000Y-73642265D01*
X167380032Y-91816000D02*
X181457000Y-77739032D01*
X132624000Y-84660800D02*
X139779200Y-91816000D01*
X132624000Y-82805912D02*
X132624000Y-84660800D01*
X139779200Y-91816000D02*
X167380032Y-91816000D01*
X132929912Y-82500000D02*
X132624000Y-82805912D01*
X133312500Y-82500000D02*
X132929912Y-82500000D01*
%TO.N,/In_{1}*%
X175551000Y-71899000D02*
X175500000Y-71950000D01*
X179146635Y-71899000D02*
X175551000Y-71899000D01*
X133312500Y-84782200D02*
X139945300Y-91415000D01*
X133312500Y-83000000D02*
X133312500Y-84782200D01*
%TO.N,/In_{2}*%
X176443886Y-72380012D02*
X176373898Y-72450000D01*
%TO.N,/In_{1}*%
X167213932Y-91415000D02*
X181056000Y-77572932D01*
%TO.N,/In_{2}*%
X167047832Y-91014000D02*
X180655000Y-77406832D01*
%TO.N,/In_{3}*%
X176990034Y-72870825D02*
X176929847Y-72931012D01*
X180254000Y-74140565D02*
X178984260Y-72870825D01*
%TO.N,/In_{2}*%
X179060547Y-72380012D02*
X176443886Y-72380012D01*
%TO.N,/In_{3}*%
X166881732Y-90613000D02*
X180254000Y-77240732D01*
X134500000Y-84835500D02*
X140277500Y-90613000D01*
%TO.N,/In_{4}*%
X177502780Y-73347997D02*
X177428952Y-73421825D01*
X178894332Y-73347997D02*
X177502780Y-73347997D01*
%TO.N,/In_{2}*%
X140111400Y-91014000D02*
X167047832Y-91014000D01*
%TO.N,/In_{4}*%
X179853000Y-74306665D02*
X178894332Y-73347997D01*
X179853000Y-77074632D02*
X179853000Y-74306665D01*
%TO.N,/In_{1}*%
X181056000Y-73808365D02*
X179146635Y-71899000D01*
%TO.N,/In_{4}*%
X166715632Y-90212000D02*
X179853000Y-77074632D01*
X140443600Y-90212000D02*
X166715632Y-90212000D01*
X135000000Y-84768400D02*
X140443600Y-90212000D01*
X135000000Y-83687500D02*
X135000000Y-84768400D01*
%TO.N,/In_{5}*%
X178728232Y-73748997D02*
X178090605Y-73748997D01*
X179452000Y-74472765D02*
X178728232Y-73748997D01*
%TO.N,/In_{2}*%
X180655000Y-77406832D02*
X180655000Y-73974465D01*
%TO.N,/In_{5}*%
X179452000Y-76908532D02*
X179452000Y-74472765D01*
X166549532Y-89811000D02*
X179452000Y-76908532D01*
%TO.N,/In_{3}*%
X140277500Y-90613000D02*
X166881732Y-90613000D01*
%TO.N,/In_{5}*%
X140609700Y-89811000D02*
X166549532Y-89811000D01*
X135500000Y-84701300D02*
X140609700Y-89811000D01*
X135500000Y-83687500D02*
X135500000Y-84701300D01*
%TO.N,/In_{6}*%
X178579229Y-74299997D02*
X178500000Y-74299997D01*
X179051000Y-74771768D02*
X178579229Y-74299997D01*
%TO.N,/In_{2}*%
X134000000Y-83687500D02*
X134000000Y-84902600D01*
%TO.N,/In_{6}*%
X179051000Y-76742432D02*
X179051000Y-74771768D01*
%TO.N,/In_{1}*%
X181056000Y-77572932D02*
X181056000Y-73808365D01*
%TO.N,/In_{6}*%
X166383432Y-89410000D02*
X179051000Y-76742432D01*
X136000000Y-84634200D02*
X140775800Y-89410000D01*
%TO.N,/In_{7}*%
X178642000Y-75142000D02*
X178500000Y-75000000D01*
X178642000Y-76584332D02*
X178642000Y-75142000D01*
%TO.N,/In_{3}*%
X178984260Y-72870825D02*
X176990034Y-72870825D01*
X180254000Y-77240732D02*
X180254000Y-74140565D01*
%TO.N,/In_{7}*%
X166217332Y-89009000D02*
X178642000Y-76584332D01*
X140941900Y-89009000D02*
X166217332Y-89009000D01*
%TO.N,/In_{5}*%
X178090605Y-73748997D02*
X177899751Y-73939851D01*
%TO.N,/In_{7}*%
X136500000Y-84567100D02*
X140941900Y-89009000D01*
%TO.N,/In_{6}*%
X136000000Y-83687500D02*
X136000000Y-84634200D01*
%TO.N,/In_{7}*%
X136500000Y-83687500D02*
X136500000Y-84567100D01*
%TO.N,/In_{8}*%
X137000000Y-84500000D02*
X137000000Y-83687500D01*
%TO.N,/In_{2}*%
X180655000Y-73974465D02*
X179060547Y-72380012D01*
%TO.N,/In_{1}*%
X139945300Y-91415000D02*
X167213932Y-91415000D01*
%TO.N,/In_{8}*%
X141108000Y-88608000D02*
X137000000Y-84500000D01*
X178241000Y-75961768D02*
X178241000Y-76418232D01*
X178241000Y-76418232D02*
X166051232Y-88608000D01*
X178000000Y-75720768D02*
X178241000Y-75961768D01*
X178000000Y-75500000D02*
X178000000Y-75720768D01*
%TO.N,/In_{6}*%
X140775800Y-89410000D02*
X166383432Y-89410000D01*
%TO.N,/In_{2}*%
X134000000Y-84902600D02*
X140111400Y-91014000D01*
%TO.N,/In_{9}*%
X142019500Y-88207000D02*
X137500000Y-83687500D01*
%TO.N,/In_{8}*%
X166051232Y-88608000D02*
X141108000Y-88608000D01*
%TO.N,/In_{9}*%
X177690000Y-76190000D02*
X165673000Y-88207000D01*
%TO.N,/In_{3}*%
X134500000Y-83687500D02*
X134500000Y-84835500D01*
%TO.N,/In_{9}*%
X165673000Y-88207000D02*
X142019500Y-88207000D01*
D33*
%TO.N,Net-(AL1-N)*%
X183750000Y-67750000D02*
X176250000Y-67750000D01*
X187000000Y-71000000D02*
X183750000Y-67750000D01*
X187000000Y-77050000D02*
X187000000Y-71000000D01*
X187000000Y-85250000D02*
X187000000Y-77050000D01*
D30*
%TO.N,/5V*%
X141820000Y-56320000D02*
X141500000Y-56000000D01*
X143000000Y-56320000D02*
X141820000Y-56320000D01*
X143250000Y-56570000D02*
X143000000Y-56320000D01*
X143250000Y-61405000D02*
X143250000Y-56570000D01*
X165626000Y-51824000D02*
X164151000Y-50349000D01*
X164151000Y-50349000D02*
X153601000Y-50349000D01*
X165626000Y-56524000D02*
X165626000Y-51824000D01*
X164500000Y-57650000D02*
X165626000Y-56524000D01*
X155126000Y-56574000D02*
X154000000Y-57700000D01*
X155126000Y-51874000D02*
X155126000Y-56574000D01*
X153601000Y-50349000D02*
X155126000Y-51874000D01*
D31*
%TO.N,/LED(B)+*%
X170000000Y-53400000D02*
X170000000Y-51000000D01*
%TO.N,/LED(G)+*%
X159500000Y-53500000D02*
X159500000Y-51000000D01*
%TO.N,/LED(R)+*%
X149000000Y-53550000D02*
X149000000Y-51000000D01*
%TO.N,Net-(IC5-SW)*%
X173150000Y-53250000D02*
X175000000Y-53250000D01*
X170000000Y-56400000D02*
X173150000Y-53250000D01*
X170950000Y-57350000D02*
X170000000Y-56400000D01*
X170950000Y-59400000D02*
X170950000Y-57350000D01*
%TO.N,Net-(IC4-SW)*%
X159500000Y-56500000D02*
X162650000Y-53350000D01*
X162650000Y-53350000D02*
X164500000Y-53350000D01*
X160000000Y-57000000D02*
X159500000Y-56500000D01*
X160000000Y-59400000D02*
X160000000Y-57000000D01*
%TO.N,/5V*%
X171700000Y-62750000D02*
X170950000Y-62000000D01*
X173500000Y-62750000D02*
X171700000Y-62750000D01*
X170950000Y-63775000D02*
X170825000Y-63900000D01*
X170950000Y-62000000D02*
X170950000Y-63775000D01*
X175000000Y-61250000D02*
X173500000Y-62750000D01*
X175000000Y-57550000D02*
X175000000Y-61250000D01*
X164500000Y-61000000D02*
X162500000Y-63000000D01*
X164500000Y-57650000D02*
X164500000Y-61000000D01*
X162500000Y-63000000D02*
X161000000Y-63000000D01*
X161000000Y-63000000D02*
X160000000Y-64000000D01*
X160000000Y-64000000D02*
X160000000Y-62000000D01*
%TO.N,/LED(G)-*%
X158350000Y-62250000D02*
X158100000Y-62000000D01*
X158350000Y-64000000D02*
X158350000Y-62250000D01*
%TO.N,/5V*%
X154000000Y-61400000D02*
X152500000Y-62900000D01*
X154000000Y-57700000D02*
X154000000Y-61400000D01*
%TO.N,Net-(IC6-SW)*%
X152150000Y-53400000D02*
X149000000Y-56550000D01*
X154000000Y-53400000D02*
X152150000Y-53400000D01*
X149950000Y-57500000D02*
X149000000Y-56550000D01*
X149950000Y-59250000D02*
X149950000Y-57500000D01*
%TO.N,/LED(R)-*%
X148175000Y-63550000D02*
X148175000Y-61975000D01*
X148175000Y-61975000D02*
X148050000Y-61850000D01*
%TO.N,/5V*%
X149950000Y-63425000D02*
X149825000Y-63550000D01*
X149950000Y-61850000D02*
X149950000Y-63425000D01*
X151850000Y-63550000D02*
X152500000Y-62900000D01*
X149825000Y-63550000D02*
X151850000Y-63550000D01*
%TO.N,/CH_RED*%
X147574000Y-59726000D02*
X148050000Y-59250000D01*
X147574000Y-80557964D02*
X147574000Y-59726000D01*
X144621964Y-83510000D02*
X147574000Y-80557964D01*
X144000000Y-83510000D02*
X144621964Y-83510000D01*
%TO.N,/CH_GREEN*%
X143628358Y-84186000D02*
X144371642Y-84186000D01*
X148000000Y-69500000D02*
X158100000Y-59400000D01*
X143399000Y-83956642D02*
X143628358Y-84186000D01*
X143399000Y-81601000D02*
X143399000Y-83956642D01*
X144371642Y-84186000D02*
X148000000Y-80557642D01*
X148000000Y-80557642D02*
X148000000Y-69500000D01*
X144000000Y-81000000D02*
X143399000Y-81601000D01*
%TO.N,/USB_VBUS_Sense*%
X138187500Y-81500000D02*
X140000000Y-81500000D01*
%TO.N,Net-(IC3-PA10)*%
X141500000Y-79340000D02*
X142350000Y-78490000D01*
X141500000Y-80933521D02*
X141500000Y-79340000D01*
X141207521Y-81226000D02*
X141500000Y-80933521D01*
X140792479Y-81226000D02*
X141207521Y-81226000D01*
X138187500Y-81000000D02*
X140566479Y-81000000D01*
X140566479Y-81000000D02*
X140792479Y-81226000D01*
%TO.N,Net-(IC3-PA9)*%
X141350000Y-82000000D02*
X142350000Y-81000000D01*
X138187500Y-82000000D02*
X141350000Y-82000000D01*
%TO.N,Net-(IC3-PA8)*%
X141340000Y-82500000D02*
X142350000Y-83510000D01*
X138187500Y-82500000D02*
X141340000Y-82500000D01*
%TO.N,/USB_DP*%
X141000000Y-80000000D02*
X138187500Y-80000000D01*
%TO.N,/USB_DN*%
X138237499Y-80450001D02*
X138187500Y-80500000D01*
X140725001Y-80450001D02*
X138237499Y-80450001D01*
X141000000Y-80725000D02*
X140725001Y-80450001D01*
%TD*%
%TA.AperFunction,Conductor*%
%TO.N,GND*%
G36*
X160622372Y-38005434D02*
G01*
X161858769Y-38044288D01*
X161862620Y-38044471D01*
X163097163Y-38122142D01*
X163100984Y-38122442D01*
X164332540Y-38238858D01*
X164336385Y-38239283D01*
X165563597Y-38394317D01*
X165567454Y-38394866D01*
X166789168Y-38588366D01*
X166793009Y-38589035D01*
X168008111Y-38820829D01*
X168011867Y-38821607D01*
X169219143Y-39091464D01*
X169222826Y-39092349D01*
X170420973Y-39399981D01*
X170424728Y-39401008D01*
X171612595Y-39746116D01*
X171616259Y-39747243D01*
X172792775Y-40129516D01*
X172796356Y-40130742D01*
X173960281Y-40549781D01*
X173963880Y-40551141D01*
X175114008Y-41006509D01*
X175117536Y-41007969D01*
X176150400Y-41454930D01*
X176252813Y-41499248D01*
X176256364Y-41500851D01*
X177375655Y-42027549D01*
X177379089Y-42029232D01*
X178481301Y-42590836D01*
X178484685Y-42592628D01*
X179568697Y-43188569D01*
X179572003Y-43190454D01*
X180636773Y-43820158D01*
X180640026Y-43822151D01*
X181488232Y-44360439D01*
X181684487Y-44484986D01*
X181687742Y-44487125D01*
X182710811Y-45182402D01*
X182713998Y-45184642D01*
X183527495Y-45775682D01*
X183570161Y-45831012D01*
X183576140Y-45900625D01*
X183543534Y-45962420D01*
X183482696Y-45996777D01*
X183454610Y-46000000D01*
X173500000Y-46000000D01*
X173500000Y-51249500D01*
X173480315Y-51316539D01*
X173427511Y-51362294D01*
X173376000Y-51373500D01*
X172420544Y-51373500D01*
X172353505Y-51353815D01*
X172332863Y-51337181D01*
X171064213Y-50068531D01*
X171064208Y-50068527D01*
X170984290Y-50022387D01*
X170984289Y-50022386D01*
X170984288Y-50022386D01*
X170895144Y-49998500D01*
X164197144Y-49998500D01*
X153647144Y-49998500D01*
X148604856Y-49998500D01*
X148515712Y-50022386D01*
X148515709Y-50022387D01*
X148435791Y-50068527D01*
X148435786Y-50068531D01*
X144719531Y-53784786D01*
X144719529Y-53784789D01*
X144694517Y-53828111D01*
X144680259Y-53852809D01*
X144678660Y-53855578D01*
X144678658Y-53855580D01*
X144673387Y-53864709D01*
X144649500Y-53953856D01*
X144649500Y-55803456D01*
X144640855Y-55832896D01*
X144634332Y-55862883D01*
X144630577Y-55867898D01*
X144629815Y-55870495D01*
X144613181Y-55891137D01*
X144571137Y-55933181D01*
X144509814Y-55966666D01*
X144483456Y-55969500D01*
X143939499Y-55969500D01*
X143872460Y-55949815D01*
X143826705Y-55897011D01*
X143815499Y-55845500D01*
X143815499Y-55840105D01*
X143815498Y-55840097D01*
X143809669Y-55810787D01*
X143804996Y-55799504D01*
X143806087Y-55799051D01*
X143788968Y-55744372D01*
X143807454Y-55676992D01*
X143859434Y-55630303D01*
X143869615Y-55625979D01*
X143957086Y-55593354D01*
X143957093Y-55593350D01*
X144072187Y-55507190D01*
X144072190Y-55507187D01*
X144158350Y-55392093D01*
X144158354Y-55392086D01*
X144208596Y-55257379D01*
X144208598Y-55257372D01*
X144214999Y-55197844D01*
X144215000Y-55197827D01*
X144215000Y-54930000D01*
X143124000Y-54930000D01*
X143056961Y-54910315D01*
X143011206Y-54857511D01*
X143000000Y-54806000D01*
X143000000Y-54680000D01*
X142874000Y-54680000D01*
X142806961Y-54660315D01*
X142761206Y-54607511D01*
X142750000Y-54556000D01*
X142750000Y-54430000D01*
X143250000Y-54430000D01*
X144215000Y-54430000D01*
X144215000Y-54162172D01*
X144214999Y-54162155D01*
X144208598Y-54102627D01*
X144208596Y-54102620D01*
X144158354Y-53967913D01*
X144158350Y-53967906D01*
X144072190Y-53852812D01*
X144072187Y-53852809D01*
X143957093Y-53766649D01*
X143957086Y-53766645D01*
X143822379Y-53716403D01*
X143822372Y-53716401D01*
X143762844Y-53710000D01*
X143250000Y-53710000D01*
X143250000Y-54430000D01*
X142750000Y-54430000D01*
X142750000Y-53710000D01*
X142237155Y-53710000D01*
X142177627Y-53716401D01*
X142177620Y-53716403D01*
X142042913Y-53766645D01*
X142042906Y-53766649D01*
X141927812Y-53852809D01*
X141927809Y-53852812D01*
X141841649Y-53967906D01*
X141841645Y-53967913D01*
X141791403Y-54102620D01*
X141791401Y-54102627D01*
X141785000Y-54162155D01*
X141785000Y-54174616D01*
X141765315Y-54241655D01*
X141750000Y-54259915D01*
X141750000Y-54916000D01*
X141730315Y-54983039D01*
X141677511Y-55028794D01*
X141626000Y-55040000D01*
X141500000Y-55040000D01*
X141500000Y-55166000D01*
X141480315Y-55233039D01*
X141427511Y-55278794D01*
X141376000Y-55290000D01*
X140695496Y-55290000D01*
X140737968Y-55436195D01*
X140820278Y-55575374D01*
X140820285Y-55575383D01*
X140934616Y-55689714D01*
X140934625Y-55689721D01*
X141028621Y-55745310D01*
X141076305Y-55796379D01*
X141089500Y-55852042D01*
X141089500Y-56163692D01*
X141103452Y-56233834D01*
X141103453Y-56233837D01*
X141103454Y-56233839D01*
X141156609Y-56313391D01*
X141236161Y-56366546D01*
X141236164Y-56366546D01*
X141236165Y-56366547D01*
X141306307Y-56380499D01*
X141306310Y-56380500D01*
X141306312Y-56380500D01*
X141333455Y-56380500D01*
X141362891Y-56389143D01*
X141392881Y-56395667D01*
X141397898Y-56399422D01*
X141400494Y-56400185D01*
X141421137Y-56416818D01*
X141539531Y-56535212D01*
X141604788Y-56600469D01*
X141604791Y-56600470D01*
X141604794Y-56600473D01*
X141684706Y-56646611D01*
X141684707Y-56646611D01*
X141684712Y-56646614D01*
X141773856Y-56670500D01*
X142060501Y-56670500D01*
X142127540Y-56690185D01*
X142173295Y-56742989D01*
X142184501Y-56794500D01*
X142184501Y-56799902D01*
X142190330Y-56829212D01*
X142212542Y-56862457D01*
X142229219Y-56873599D01*
X142245787Y-56884669D01*
X142245790Y-56884669D01*
X142245791Y-56884670D01*
X142255647Y-56886630D01*
X142275101Y-56890500D01*
X142775500Y-56890499D01*
X142842539Y-56910183D01*
X142888294Y-56962987D01*
X142899500Y-57014499D01*
X142899500Y-59987764D01*
X142879815Y-60054803D01*
X142827011Y-60100558D01*
X142813822Y-60105693D01*
X142812372Y-60106165D01*
X142723906Y-60134909D01*
X142531700Y-60232843D01*
X142473678Y-60274999D01*
X142357179Y-60359641D01*
X142357177Y-60359643D01*
X142357176Y-60359643D01*
X142204643Y-60512176D01*
X142204643Y-60512177D01*
X142204641Y-60512179D01*
X142182519Y-60542627D01*
X142077843Y-60686700D01*
X141979909Y-60878908D01*
X141913245Y-61084077D01*
X141879500Y-61297133D01*
X141879500Y-61512866D01*
X141902359Y-61657190D01*
X141913246Y-61725926D01*
X141979908Y-61931089D01*
X142077843Y-62123299D01*
X142204641Y-62297821D01*
X142357179Y-62450359D01*
X142531701Y-62577157D01*
X142723911Y-62675092D01*
X142723913Y-62675092D01*
X142723916Y-62675094D01*
X142813817Y-62704304D01*
X142871493Y-62743741D01*
X142898692Y-62808099D01*
X142899500Y-62822235D01*
X142899500Y-65153455D01*
X142879815Y-65220494D01*
X142863181Y-65241136D01*
X131501180Y-76603136D01*
X131439857Y-76636621D01*
X131370165Y-76631637D01*
X131325818Y-76603136D01*
X130942213Y-76219531D01*
X130942208Y-76219527D01*
X130862290Y-76173387D01*
X130862289Y-76173386D01*
X130862288Y-76173386D01*
X130773144Y-76149500D01*
X130226856Y-76149500D01*
X130137712Y-76173386D01*
X130137711Y-76173386D01*
X130137709Y-76173387D01*
X130137706Y-76173388D01*
X130057794Y-76219526D01*
X130057785Y-76219533D01*
X129569532Y-76707785D01*
X129569528Y-76707791D01*
X129535554Y-76766636D01*
X129535553Y-76766635D01*
X129523389Y-76787705D01*
X129523386Y-76787712D01*
X129499500Y-76876856D01*
X129499500Y-77386391D01*
X129494584Y-77403130D01*
X129494694Y-77420580D01*
X129484944Y-77435961D01*
X129479815Y-77453430D01*
X129466527Y-77465016D01*
X129457288Y-77479594D01*
X129433532Y-77493790D01*
X129427717Y-77498861D01*
X129391217Y-77515807D01*
X129368931Y-77519153D01*
X129347818Y-77527023D01*
X129335047Y-77524241D01*
X129322122Y-77526183D01*
X129301566Y-77516951D01*
X129279548Y-77512156D01*
X129270307Y-77502911D01*
X129258386Y-77497557D01*
X129246085Y-77478677D01*
X129230154Y-77462739D01*
X129226584Y-77448747D01*
X129220244Y-77439016D01*
X129220146Y-77423511D01*
X129215000Y-77403337D01*
X129215000Y-77362172D01*
X129214999Y-77362155D01*
X129208598Y-77302627D01*
X129208596Y-77302620D01*
X129158354Y-77167913D01*
X129158350Y-77167906D01*
X129072190Y-77052812D01*
X129072187Y-77052809D01*
X128957093Y-76966649D01*
X128957086Y-76966645D01*
X128822379Y-76916403D01*
X128822372Y-76916401D01*
X128762844Y-76910000D01*
X128250000Y-76910000D01*
X128250000Y-77756000D01*
X128230315Y-77823039D01*
X128177511Y-77868794D01*
X128126000Y-77880000D01*
X128000000Y-77880000D01*
X128000000Y-78006000D01*
X127980315Y-78073039D01*
X127927511Y-78118794D01*
X127876000Y-78130000D01*
X126785000Y-78130000D01*
X126785000Y-78397844D01*
X126791401Y-78457372D01*
X126791403Y-78457379D01*
X126841645Y-78592086D01*
X126841649Y-78592093D01*
X126927809Y-78707187D01*
X126927812Y-78707190D01*
X127042906Y-78793350D01*
X127042913Y-78793354D01*
X127130385Y-78825979D01*
X127186319Y-78867850D01*
X127210736Y-78933314D01*
X127195885Y-79001587D01*
X127190368Y-79010697D01*
X127190329Y-79010791D01*
X127184500Y-79040098D01*
X127184500Y-79999894D01*
X127184501Y-79999902D01*
X127190330Y-80029212D01*
X127212542Y-80062457D01*
X127229219Y-80073599D01*
X127245787Y-80084669D01*
X127245790Y-80084669D01*
X127245791Y-80084670D01*
X127255647Y-80086630D01*
X127275101Y-80090500D01*
X128724898Y-80090499D01*
X128754213Y-80084669D01*
X128787457Y-80062457D01*
X128809669Y-80029213D01*
X128810908Y-80022986D01*
X128815500Y-79999901D01*
X128815500Y-79924500D01*
X128835185Y-79857461D01*
X128887989Y-79811706D01*
X128939500Y-79800500D01*
X129460920Y-79800500D01*
X129527959Y-79820185D01*
X129573139Y-79871746D01*
X129579583Y-79885455D01*
X129580331Y-79889213D01*
X129583768Y-79894358D01*
X129587719Y-79902761D01*
X129591705Y-79928471D01*
X129599480Y-79953299D01*
X129599500Y-79955515D01*
X129599500Y-80579829D01*
X129611790Y-80609500D01*
X129637636Y-80671897D01*
X129648179Y-80682440D01*
X129681666Y-80743762D01*
X129684500Y-80770123D01*
X129684500Y-81659894D01*
X129684501Y-81659902D01*
X129690330Y-81689212D01*
X129695004Y-81700496D01*
X129693911Y-81700948D01*
X129711031Y-81755630D01*
X129692544Y-81823009D01*
X129640563Y-81869697D01*
X129630385Y-81874019D01*
X129542917Y-81906643D01*
X129542906Y-81906649D01*
X129427812Y-81992809D01*
X129427809Y-81992812D01*
X129341649Y-82107906D01*
X129341645Y-82107913D01*
X129291403Y-82242620D01*
X129291401Y-82242627D01*
X129285000Y-82302155D01*
X129285000Y-82570000D01*
X131721000Y-82570000D01*
X131788039Y-82589685D01*
X131833794Y-82642489D01*
X131845000Y-82694000D01*
X131845000Y-82759999D01*
X131848500Y-82759999D01*
X131915539Y-82779684D01*
X131961294Y-82832488D01*
X131972500Y-82883999D01*
X131972500Y-84621877D01*
X131952815Y-84688916D01*
X131936181Y-84709558D01*
X130787637Y-85858101D01*
X130787636Y-85858102D01*
X130749500Y-85950170D01*
X130749500Y-91132745D01*
X130729815Y-91199784D01*
X130713181Y-91220426D01*
X130679521Y-91254085D01*
X130626794Y-91345410D01*
X130626793Y-91345413D01*
X130599500Y-91447273D01*
X130599500Y-91552727D01*
X130626793Y-91654587D01*
X130679520Y-91745913D01*
X130754087Y-91820480D01*
X130845413Y-91873207D01*
X130947273Y-91900500D01*
X130947275Y-91900500D01*
X131052725Y-91900500D01*
X131052727Y-91900500D01*
X131154587Y-91873207D01*
X131245913Y-91820480D01*
X131320480Y-91745913D01*
X131373207Y-91654587D01*
X131400500Y-91552727D01*
X131400500Y-91447273D01*
X131373207Y-91345413D01*
X131320480Y-91254087D01*
X131286819Y-91220426D01*
X131253334Y-91159103D01*
X131250500Y-91132745D01*
X131250500Y-86155123D01*
X131270185Y-86088084D01*
X131286819Y-86067442D01*
X131814611Y-85539650D01*
X132393921Y-84960339D01*
X132455242Y-84926856D01*
X132524934Y-84931840D01*
X132569278Y-84960339D01*
X136721505Y-89112565D01*
X139559765Y-91950825D01*
X139559768Y-91950829D01*
X139566836Y-91957897D01*
X139637303Y-92028364D01*
X139729372Y-92066500D01*
X139729374Y-92066500D01*
X167429858Y-92066500D01*
X167429860Y-92066500D01*
X167521929Y-92028364D01*
X181288319Y-78261974D01*
X181349642Y-78228489D01*
X181419334Y-78233473D01*
X181475267Y-78275345D01*
X181499684Y-78340809D01*
X181500000Y-78349655D01*
X181500000Y-94000000D01*
X195689110Y-94000000D01*
X195756149Y-94019685D01*
X195801904Y-94072489D01*
X195811848Y-94141647D01*
X195801308Y-94176797D01*
X195472464Y-94875623D01*
X195470751Y-94879121D01*
X194909178Y-95981272D01*
X194907355Y-95984714D01*
X194311452Y-97068658D01*
X194309522Y-97072042D01*
X193679853Y-98136752D01*
X193677818Y-98140074D01*
X193015013Y-99184487D01*
X193012874Y-99187742D01*
X192317597Y-100210811D01*
X192315357Y-100213998D01*
X191588286Y-101214727D01*
X191585966Y-101217817D01*
X191393247Y-101466270D01*
X190827824Y-102195208D01*
X190825389Y-102198248D01*
X190036893Y-103151376D01*
X190034363Y-103154338D01*
X189216338Y-104082205D01*
X189213716Y-104085086D01*
X188366955Y-104986796D01*
X188364244Y-104989593D01*
X187489593Y-105864244D01*
X187486796Y-105866955D01*
X186585086Y-106713716D01*
X186582205Y-106716338D01*
X185654338Y-107534363D01*
X185651376Y-107536893D01*
X184698248Y-108325389D01*
X184695208Y-108327824D01*
X183717817Y-109085966D01*
X183714727Y-109088286D01*
X182713998Y-109815357D01*
X182710811Y-109817597D01*
X181687742Y-110512874D01*
X181684487Y-110515013D01*
X180640074Y-111177818D01*
X180636752Y-111179853D01*
X179572042Y-111809522D01*
X179568658Y-111811452D01*
X178484714Y-112407355D01*
X178481272Y-112409178D01*
X177379121Y-112970751D01*
X177375623Y-112972465D01*
X176256364Y-113499148D01*
X176252813Y-113500751D01*
X175117571Y-113992015D01*
X175113972Y-113993505D01*
X173963902Y-114448849D01*
X173960259Y-114450226D01*
X172796409Y-114869239D01*
X172792723Y-114870501D01*
X171616288Y-115252747D01*
X171612565Y-115253892D01*
X170424730Y-115598990D01*
X170420973Y-115600018D01*
X169222879Y-115907637D01*
X169219091Y-115908547D01*
X168011896Y-116178386D01*
X168008081Y-116179176D01*
X166793005Y-116410964D01*
X166789168Y-116411633D01*
X165567454Y-116605133D01*
X165563597Y-116605682D01*
X164336399Y-116760714D01*
X164332527Y-116761142D01*
X163101015Y-116877554D01*
X163097132Y-116877859D01*
X161862641Y-116955527D01*
X161858750Y-116955711D01*
X160622372Y-116994566D01*
X160618477Y-116994627D01*
X159381523Y-116994627D01*
X159377628Y-116994566D01*
X158141249Y-116955711D01*
X158137358Y-116955527D01*
X156902867Y-116877859D01*
X156898984Y-116877554D01*
X155667472Y-116761142D01*
X155663600Y-116760714D01*
X154436402Y-116605682D01*
X154432545Y-116605133D01*
X153210831Y-116411633D01*
X153206994Y-116410964D01*
X151991918Y-116179176D01*
X151988103Y-116178386D01*
X150780908Y-115908547D01*
X150777120Y-115907637D01*
X149579026Y-115600018D01*
X149575269Y-115598990D01*
X148387434Y-115253892D01*
X148383711Y-115252747D01*
X147366390Y-114922200D01*
X147207261Y-114870496D01*
X147203605Y-114869244D01*
X146576814Y-114643585D01*
X146039740Y-114450226D01*
X146036097Y-114448849D01*
X144886027Y-113993505D01*
X144882428Y-113992015D01*
X143747186Y-113500751D01*
X143743635Y-113499148D01*
X142624376Y-112972465D01*
X142620878Y-112970751D01*
X142328662Y-112821860D01*
X141518721Y-112409175D01*
X141515285Y-112407355D01*
X141477708Y-112386697D01*
X140431323Y-111811441D01*
X140427976Y-111809533D01*
X139682861Y-111368872D01*
X147999500Y-111368872D01*
X147999500Y-111631127D01*
X148020436Y-111790140D01*
X148033730Y-111891116D01*
X148055178Y-111971161D01*
X148101602Y-112144418D01*
X148101605Y-112144428D01*
X148201953Y-112386690D01*
X148201958Y-112386700D01*
X148333075Y-112613803D01*
X148492718Y-112821851D01*
X148492726Y-112821860D01*
X148678140Y-113007274D01*
X148678148Y-113007281D01*
X148886196Y-113166924D01*
X149113299Y-113298041D01*
X149113309Y-113298046D01*
X149355571Y-113398394D01*
X149355581Y-113398398D01*
X149608884Y-113466270D01*
X149857188Y-113498960D01*
X149864884Y-113499974D01*
X149868880Y-113500500D01*
X149868887Y-113500500D01*
X150131113Y-113500500D01*
X150131120Y-113500500D01*
X150391116Y-113466270D01*
X150644419Y-113398398D01*
X150886697Y-113298043D01*
X151113803Y-113166924D01*
X151321851Y-113007282D01*
X151321855Y-113007277D01*
X151321860Y-113007274D01*
X151507274Y-112821860D01*
X151507277Y-112821855D01*
X151507282Y-112821851D01*
X151666924Y-112613803D01*
X151798043Y-112386697D01*
X151898398Y-112144419D01*
X151966270Y-111891116D01*
X152000500Y-111631120D01*
X152000500Y-111368880D01*
X151966270Y-111108884D01*
X151898398Y-110855581D01*
X151845294Y-110727376D01*
X151798046Y-110613309D01*
X151798041Y-110613299D01*
X151666924Y-110386196D01*
X151507281Y-110178148D01*
X151507274Y-110178140D01*
X151321860Y-109992726D01*
X151321851Y-109992718D01*
X151113803Y-109833075D01*
X150886700Y-109701958D01*
X150886690Y-109701953D01*
X150644428Y-109601605D01*
X150644421Y-109601603D01*
X150644419Y-109601602D01*
X150391116Y-109533730D01*
X150333339Y-109526123D01*
X150131127Y-109499500D01*
X150131120Y-109499500D01*
X149868880Y-109499500D01*
X149868872Y-109499500D01*
X149637772Y-109529926D01*
X149608884Y-109533730D01*
X149355581Y-109601602D01*
X149355571Y-109601605D01*
X149113309Y-109701953D01*
X149113299Y-109701958D01*
X148886196Y-109833075D01*
X148678148Y-109992718D01*
X148492718Y-110178148D01*
X148333075Y-110386196D01*
X148201958Y-110613299D01*
X148201953Y-110613309D01*
X148101605Y-110855571D01*
X148101602Y-110855581D01*
X148033730Y-111108885D01*
X147999500Y-111368872D01*
X139682861Y-111368872D01*
X139363245Y-111179851D01*
X139359955Y-111177836D01*
X138315512Y-110515013D01*
X138312257Y-110512874D01*
X137289188Y-109817597D01*
X137286001Y-109815357D01*
X136718102Y-109402755D01*
X136285247Y-109088267D01*
X136282212Y-109085989D01*
X135304766Y-108327804D01*
X135301751Y-108325389D01*
X134348623Y-107536893D01*
X134345677Y-107534377D01*
X133417794Y-106716338D01*
X133414913Y-106713716D01*
X132513203Y-105866955D01*
X132510406Y-105864244D01*
X131635755Y-104989593D01*
X131633044Y-104986796D01*
X130786283Y-104085086D01*
X130783661Y-104082205D01*
X130540344Y-103806216D01*
X129965618Y-103154317D01*
X129963124Y-103151397D01*
X129174608Y-102198245D01*
X129172201Y-102195241D01*
X128414002Y-101217777D01*
X128411740Y-101214763D01*
X127810110Y-100386690D01*
X127684642Y-100213998D01*
X127682402Y-100210811D01*
X127601084Y-100091156D01*
X141574499Y-100091156D01*
X141610065Y-100269952D01*
X141610068Y-100269962D01*
X141679831Y-100438387D01*
X141679833Y-100438391D01*
X141781113Y-100589967D01*
X141781119Y-100589975D01*
X141910024Y-100718880D01*
X141910032Y-100718886D01*
X142061608Y-100820166D01*
X142061612Y-100820168D01*
X142167950Y-100864214D01*
X142230042Y-100889933D01*
X142230046Y-100889933D01*
X142230047Y-100889934D01*
X142408843Y-100925500D01*
X142408846Y-100925500D01*
X142591156Y-100925500D01*
X142732133Y-100897457D01*
X142769958Y-100889933D01*
X142882245Y-100843422D01*
X142938387Y-100820168D01*
X142938391Y-100820166D01*
X143013672Y-100769864D01*
X143089972Y-100718883D01*
X143218883Y-100589972D01*
X143320167Y-100438389D01*
X143389933Y-100269958D01*
X143425500Y-100091156D01*
X145074499Y-100091156D01*
X145110065Y-100269952D01*
X145110068Y-100269962D01*
X145179831Y-100438387D01*
X145179833Y-100438391D01*
X145281113Y-100589967D01*
X145281119Y-100589975D01*
X145410024Y-100718880D01*
X145410032Y-100718886D01*
X145561608Y-100820166D01*
X145561612Y-100820168D01*
X145667950Y-100864214D01*
X145730042Y-100889933D01*
X145730046Y-100889933D01*
X145730047Y-100889934D01*
X145908843Y-100925500D01*
X145908846Y-100925500D01*
X146091156Y-100925500D01*
X146232133Y-100897457D01*
X146269958Y-100889933D01*
X146382245Y-100843422D01*
X146438387Y-100820168D01*
X146438391Y-100820166D01*
X146513672Y-100769864D01*
X146589972Y-100718883D01*
X146718883Y-100589972D01*
X146820167Y-100438389D01*
X146889933Y-100269958D01*
X146925500Y-100091156D01*
X148574499Y-100091156D01*
X148610065Y-100269952D01*
X148610068Y-100269962D01*
X148679831Y-100438387D01*
X148679833Y-100438391D01*
X148781113Y-100589967D01*
X148781119Y-100589975D01*
X148910024Y-100718880D01*
X148910032Y-100718886D01*
X149061608Y-100820166D01*
X149061612Y-100820168D01*
X149167950Y-100864214D01*
X149230042Y-100889933D01*
X149230046Y-100889933D01*
X149230047Y-100889934D01*
X149408843Y-100925500D01*
X149408846Y-100925500D01*
X149591156Y-100925500D01*
X149732133Y-100897457D01*
X149769958Y-100889933D01*
X149882245Y-100843422D01*
X149938387Y-100820168D01*
X149938391Y-100820166D01*
X150013672Y-100769864D01*
X150089972Y-100718883D01*
X150218883Y-100589972D01*
X150320167Y-100438389D01*
X150389933Y-100269958D01*
X150425500Y-100091156D01*
X152074499Y-100091156D01*
X152110065Y-100269952D01*
X152110068Y-100269962D01*
X152179831Y-100438387D01*
X152179833Y-100438391D01*
X152281113Y-100589967D01*
X152281119Y-100589975D01*
X152410024Y-100718880D01*
X152410032Y-100718886D01*
X152561608Y-100820166D01*
X152561612Y-100820168D01*
X152667950Y-100864214D01*
X152730042Y-100889933D01*
X152730046Y-100889933D01*
X152730047Y-100889934D01*
X152908843Y-100925500D01*
X152908846Y-100925500D01*
X153091156Y-100925500D01*
X153232133Y-100897457D01*
X153269958Y-100889933D01*
X153382245Y-100843422D01*
X153438387Y-100820168D01*
X153438391Y-100820166D01*
X153513672Y-100769864D01*
X153589972Y-100718883D01*
X153718883Y-100589972D01*
X153820167Y-100438389D01*
X153889933Y-100269958D01*
X153925500Y-100091156D01*
X155574499Y-100091156D01*
X155610065Y-100269952D01*
X155610068Y-100269962D01*
X155679831Y-100438387D01*
X155679833Y-100438391D01*
X155781113Y-100589967D01*
X155781119Y-100589975D01*
X155910024Y-100718880D01*
X155910032Y-100718886D01*
X156061608Y-100820166D01*
X156061612Y-100820168D01*
X156167950Y-100864214D01*
X156230042Y-100889933D01*
X156230046Y-100889933D01*
X156230047Y-100889934D01*
X156408843Y-100925500D01*
X156408846Y-100925500D01*
X156591156Y-100925500D01*
X156732133Y-100897457D01*
X156769958Y-100889933D01*
X156882245Y-100843422D01*
X156938387Y-100820168D01*
X156938391Y-100820166D01*
X157013672Y-100769864D01*
X157089972Y-100718883D01*
X157218883Y-100589972D01*
X157320167Y-100438389D01*
X157389933Y-100269958D01*
X157425500Y-100091156D01*
X159074499Y-100091156D01*
X159110065Y-100269952D01*
X159110068Y-100269962D01*
X159179831Y-100438387D01*
X159179833Y-100438391D01*
X159281113Y-100589967D01*
X159281119Y-100589975D01*
X159410024Y-100718880D01*
X159410032Y-100718886D01*
X159561608Y-100820166D01*
X159561612Y-100820168D01*
X159667950Y-100864214D01*
X159730042Y-100889933D01*
X159730046Y-100889933D01*
X159730047Y-100889934D01*
X159908843Y-100925500D01*
X159908846Y-100925500D01*
X160091156Y-100925500D01*
X160232133Y-100897457D01*
X160269958Y-100889933D01*
X160382245Y-100843422D01*
X160438387Y-100820168D01*
X160438391Y-100820166D01*
X160513672Y-100769864D01*
X160589972Y-100718883D01*
X160718883Y-100589972D01*
X160820167Y-100438389D01*
X160889933Y-100269958D01*
X160925500Y-100091156D01*
X162574499Y-100091156D01*
X162610065Y-100269952D01*
X162610068Y-100269962D01*
X162679831Y-100438387D01*
X162679833Y-100438391D01*
X162781113Y-100589967D01*
X162781119Y-100589975D01*
X162910024Y-100718880D01*
X162910032Y-100718886D01*
X163061608Y-100820166D01*
X163061612Y-100820168D01*
X163167950Y-100864214D01*
X163230042Y-100889933D01*
X163230046Y-100889933D01*
X163230047Y-100889934D01*
X163408843Y-100925500D01*
X163408846Y-100925500D01*
X163591156Y-100925500D01*
X163732133Y-100897457D01*
X163769958Y-100889933D01*
X163882245Y-100843422D01*
X163938387Y-100820168D01*
X163938391Y-100820166D01*
X164013672Y-100769864D01*
X164089972Y-100718883D01*
X164218883Y-100589972D01*
X164320167Y-100438389D01*
X164389933Y-100269958D01*
X164425500Y-100091156D01*
X166074499Y-100091156D01*
X166110065Y-100269952D01*
X166110068Y-100269962D01*
X166179831Y-100438387D01*
X166179833Y-100438391D01*
X166281113Y-100589967D01*
X166281119Y-100589975D01*
X166410024Y-100718880D01*
X166410032Y-100718886D01*
X166561608Y-100820166D01*
X166561612Y-100820168D01*
X166667950Y-100864214D01*
X166730042Y-100889933D01*
X166730046Y-100889933D01*
X166730047Y-100889934D01*
X166908843Y-100925500D01*
X166908846Y-100925500D01*
X167091156Y-100925500D01*
X167232133Y-100897457D01*
X167269958Y-100889933D01*
X167382245Y-100843422D01*
X167438387Y-100820168D01*
X167438391Y-100820166D01*
X167513672Y-100769864D01*
X167589972Y-100718883D01*
X167718883Y-100589972D01*
X167820167Y-100438389D01*
X167889933Y-100269958D01*
X167925500Y-100091156D01*
X169574499Y-100091156D01*
X169610065Y-100269952D01*
X169610068Y-100269962D01*
X169679831Y-100438387D01*
X169679833Y-100438391D01*
X169781113Y-100589967D01*
X169781119Y-100589975D01*
X169910024Y-100718880D01*
X169910032Y-100718886D01*
X170061608Y-100820166D01*
X170061612Y-100820168D01*
X170167950Y-100864214D01*
X170230042Y-100889933D01*
X170230046Y-100889933D01*
X170230047Y-100889934D01*
X170408843Y-100925500D01*
X170408846Y-100925500D01*
X170591156Y-100925500D01*
X170732133Y-100897457D01*
X170769958Y-100889933D01*
X170882245Y-100843422D01*
X170938387Y-100820168D01*
X170938391Y-100820166D01*
X171013672Y-100769864D01*
X171089972Y-100718883D01*
X171218883Y-100589972D01*
X171320167Y-100438389D01*
X171389933Y-100269958D01*
X171425500Y-100091156D01*
X173074499Y-100091156D01*
X173110065Y-100269952D01*
X173110068Y-100269962D01*
X173179831Y-100438387D01*
X173179833Y-100438391D01*
X173281113Y-100589967D01*
X173281119Y-100589975D01*
X173410024Y-100718880D01*
X173410032Y-100718886D01*
X173561608Y-100820166D01*
X173561612Y-100820168D01*
X173667950Y-100864214D01*
X173730042Y-100889933D01*
X173730046Y-100889933D01*
X173730047Y-100889934D01*
X173908843Y-100925500D01*
X173908846Y-100925500D01*
X174091156Y-100925500D01*
X174232133Y-100897457D01*
X174269958Y-100889933D01*
X174382245Y-100843422D01*
X174438387Y-100820168D01*
X174438391Y-100820166D01*
X174513672Y-100769864D01*
X174589972Y-100718883D01*
X174718883Y-100589972D01*
X174820167Y-100438389D01*
X174889933Y-100269958D01*
X174925500Y-100091154D01*
X174925500Y-99908846D01*
X174925500Y-99908843D01*
X174889934Y-99730047D01*
X174889933Y-99730046D01*
X174889933Y-99730042D01*
X174889931Y-99730037D01*
X174820168Y-99561612D01*
X174820166Y-99561608D01*
X174718886Y-99410032D01*
X174718880Y-99410024D01*
X174589975Y-99281119D01*
X174589971Y-99281116D01*
X174561528Y-99262111D01*
X174438385Y-99179830D01*
X174402818Y-99165098D01*
X176574500Y-99165098D01*
X176574500Y-100834894D01*
X176574501Y-100834902D01*
X176580330Y-100864212D01*
X176602542Y-100897457D01*
X176619219Y-100908599D01*
X176635787Y-100919669D01*
X176635790Y-100919669D01*
X176635791Y-100919670D01*
X176645647Y-100921630D01*
X176665101Y-100925500D01*
X178334898Y-100925499D01*
X178364213Y-100919669D01*
X178397457Y-100897457D01*
X178419669Y-100864213D01*
X178425500Y-100834899D01*
X178425499Y-99368872D01*
X183999500Y-99368872D01*
X183999500Y-99631127D01*
X184020436Y-99790140D01*
X184033730Y-99891116D01*
X184098831Y-100134076D01*
X184101602Y-100144418D01*
X184101605Y-100144428D01*
X184201953Y-100386690D01*
X184201958Y-100386700D01*
X184333075Y-100613803D01*
X184492718Y-100821851D01*
X184492726Y-100821860D01*
X184678140Y-101007274D01*
X184678148Y-101007281D01*
X184886196Y-101166924D01*
X185113299Y-101298041D01*
X185113309Y-101298046D01*
X185355571Y-101398394D01*
X185355581Y-101398398D01*
X185608884Y-101466270D01*
X185868880Y-101500500D01*
X185868887Y-101500500D01*
X186131113Y-101500500D01*
X186131120Y-101500500D01*
X186391116Y-101466270D01*
X186644419Y-101398398D01*
X186886697Y-101298043D01*
X187113803Y-101166924D01*
X187321851Y-101007282D01*
X187321855Y-101007277D01*
X187321860Y-101007274D01*
X187507274Y-100821860D01*
X187507277Y-100821855D01*
X187507282Y-100821851D01*
X187666924Y-100613803D01*
X187798043Y-100386697D01*
X187898398Y-100144419D01*
X187966270Y-99891116D01*
X188000500Y-99631120D01*
X188000500Y-99368880D01*
X187966270Y-99108884D01*
X187898398Y-98855581D01*
X187800204Y-98618520D01*
X187798046Y-98613309D01*
X187798041Y-98613299D01*
X187666924Y-98386196D01*
X187507281Y-98178148D01*
X187507274Y-98178140D01*
X187321860Y-97992726D01*
X187321851Y-97992718D01*
X187113803Y-97833075D01*
X186886700Y-97701958D01*
X186886690Y-97701953D01*
X186644428Y-97601605D01*
X186644421Y-97601603D01*
X186644419Y-97601602D01*
X186391116Y-97533730D01*
X186333339Y-97526123D01*
X186131127Y-97499500D01*
X186131120Y-97499500D01*
X185868880Y-97499500D01*
X185868872Y-97499500D01*
X185637772Y-97529926D01*
X185608884Y-97533730D01*
X185355581Y-97601602D01*
X185355571Y-97601605D01*
X185113309Y-97701953D01*
X185113299Y-97701958D01*
X184886196Y-97833075D01*
X184678148Y-97992718D01*
X184492718Y-98178148D01*
X184333075Y-98386196D01*
X184201958Y-98613299D01*
X184201953Y-98613309D01*
X184101605Y-98855571D01*
X184101602Y-98855581D01*
X184035430Y-99102542D01*
X184033730Y-99108885D01*
X183999500Y-99368872D01*
X178425499Y-99368872D01*
X178425499Y-99165102D01*
X178419669Y-99135787D01*
X178402485Y-99110068D01*
X178397457Y-99102542D01*
X178364214Y-99080332D01*
X178364215Y-99080332D01*
X178364213Y-99080331D01*
X178364211Y-99080330D01*
X178364208Y-99080329D01*
X178334901Y-99074500D01*
X176665105Y-99074500D01*
X176665097Y-99074501D01*
X176635787Y-99080330D01*
X176602542Y-99102542D01*
X176580332Y-99135785D01*
X176580329Y-99135791D01*
X176574500Y-99165098D01*
X174402818Y-99165098D01*
X174269962Y-99110068D01*
X174269952Y-99110065D01*
X174091156Y-99074500D01*
X174091154Y-99074500D01*
X173908846Y-99074500D01*
X173908844Y-99074500D01*
X173730047Y-99110065D01*
X173730037Y-99110068D01*
X173561612Y-99179831D01*
X173561608Y-99179833D01*
X173410032Y-99281113D01*
X173410024Y-99281119D01*
X173281119Y-99410024D01*
X173281113Y-99410032D01*
X173179833Y-99561608D01*
X173179831Y-99561612D01*
X173110068Y-99730037D01*
X173110065Y-99730047D01*
X173074500Y-99908843D01*
X173074500Y-99908846D01*
X173074500Y-100091154D01*
X173074500Y-100091156D01*
X173074499Y-100091156D01*
X171425500Y-100091156D01*
X171425500Y-100091154D01*
X171425500Y-99908846D01*
X171425500Y-99908843D01*
X171389934Y-99730047D01*
X171389933Y-99730046D01*
X171389933Y-99730042D01*
X171389931Y-99730037D01*
X171320168Y-99561612D01*
X171320166Y-99561608D01*
X171218886Y-99410032D01*
X171218880Y-99410024D01*
X171089975Y-99281119D01*
X171089967Y-99281113D01*
X170938391Y-99179833D01*
X170938387Y-99179831D01*
X170769962Y-99110068D01*
X170769952Y-99110065D01*
X170591156Y-99074500D01*
X170591154Y-99074500D01*
X170408846Y-99074500D01*
X170408844Y-99074500D01*
X170230047Y-99110065D01*
X170230037Y-99110068D01*
X170061612Y-99179831D01*
X170061608Y-99179833D01*
X169910032Y-99281113D01*
X169910024Y-99281119D01*
X169781119Y-99410024D01*
X169781113Y-99410032D01*
X169679833Y-99561608D01*
X169679831Y-99561612D01*
X169610068Y-99730037D01*
X169610065Y-99730047D01*
X169574500Y-99908843D01*
X169574500Y-99908846D01*
X169574500Y-100091154D01*
X169574500Y-100091156D01*
X169574499Y-100091156D01*
X167925500Y-100091156D01*
X167925500Y-100091154D01*
X167925500Y-99908846D01*
X167925500Y-99908843D01*
X167889934Y-99730047D01*
X167889933Y-99730046D01*
X167889933Y-99730042D01*
X167889931Y-99730037D01*
X167820168Y-99561612D01*
X167820166Y-99561608D01*
X167718886Y-99410032D01*
X167718880Y-99410024D01*
X167589975Y-99281119D01*
X167589967Y-99281113D01*
X167438391Y-99179833D01*
X167438387Y-99179831D01*
X167269962Y-99110068D01*
X167269952Y-99110065D01*
X167091156Y-99074500D01*
X167091154Y-99074500D01*
X166908846Y-99074500D01*
X166908844Y-99074500D01*
X166730047Y-99110065D01*
X166730037Y-99110068D01*
X166561612Y-99179831D01*
X166561608Y-99179833D01*
X166410032Y-99281113D01*
X166410024Y-99281119D01*
X166281119Y-99410024D01*
X166281113Y-99410032D01*
X166179833Y-99561608D01*
X166179831Y-99561612D01*
X166110068Y-99730037D01*
X166110065Y-99730047D01*
X166074500Y-99908843D01*
X166074500Y-99908846D01*
X166074500Y-100091154D01*
X166074500Y-100091156D01*
X166074499Y-100091156D01*
X164425500Y-100091156D01*
X164425500Y-100091154D01*
X164425500Y-99908846D01*
X164425500Y-99908843D01*
X164389934Y-99730047D01*
X164389933Y-99730046D01*
X164389933Y-99730042D01*
X164389931Y-99730037D01*
X164320168Y-99561612D01*
X164320166Y-99561608D01*
X164218886Y-99410032D01*
X164218880Y-99410024D01*
X164089975Y-99281119D01*
X164089967Y-99281113D01*
X163938391Y-99179833D01*
X163938387Y-99179831D01*
X163769962Y-99110068D01*
X163769952Y-99110065D01*
X163591156Y-99074500D01*
X163591154Y-99074500D01*
X163408846Y-99074500D01*
X163408844Y-99074500D01*
X163230047Y-99110065D01*
X163230037Y-99110068D01*
X163061612Y-99179831D01*
X163061608Y-99179833D01*
X162910032Y-99281113D01*
X162910024Y-99281119D01*
X162781119Y-99410024D01*
X162781113Y-99410032D01*
X162679833Y-99561608D01*
X162679831Y-99561612D01*
X162610068Y-99730037D01*
X162610065Y-99730047D01*
X162574500Y-99908843D01*
X162574500Y-99908846D01*
X162574500Y-100091154D01*
X162574500Y-100091156D01*
X162574499Y-100091156D01*
X160925500Y-100091156D01*
X160925500Y-100091154D01*
X160925500Y-99908846D01*
X160925500Y-99908843D01*
X160889934Y-99730047D01*
X160889933Y-99730046D01*
X160889933Y-99730042D01*
X160889931Y-99730037D01*
X160820168Y-99561612D01*
X160820166Y-99561608D01*
X160718886Y-99410032D01*
X160718880Y-99410024D01*
X160589975Y-99281119D01*
X160589967Y-99281113D01*
X160438391Y-99179833D01*
X160438387Y-99179831D01*
X160269962Y-99110068D01*
X160269952Y-99110065D01*
X160091156Y-99074500D01*
X160091154Y-99074500D01*
X159908846Y-99074500D01*
X159908844Y-99074500D01*
X159730047Y-99110065D01*
X159730037Y-99110068D01*
X159561612Y-99179831D01*
X159561608Y-99179833D01*
X159410032Y-99281113D01*
X159410024Y-99281119D01*
X159281119Y-99410024D01*
X159281113Y-99410032D01*
X159179833Y-99561608D01*
X159179831Y-99561612D01*
X159110068Y-99730037D01*
X159110065Y-99730047D01*
X159074500Y-99908843D01*
X159074500Y-99908846D01*
X159074500Y-100091154D01*
X159074500Y-100091156D01*
X159074499Y-100091156D01*
X157425500Y-100091156D01*
X157425500Y-100091154D01*
X157425500Y-99908846D01*
X157425500Y-99908843D01*
X157389934Y-99730047D01*
X157389933Y-99730046D01*
X157389933Y-99730042D01*
X157389931Y-99730037D01*
X157320168Y-99561612D01*
X157320166Y-99561608D01*
X157218886Y-99410032D01*
X157218880Y-99410024D01*
X157089975Y-99281119D01*
X157089967Y-99281113D01*
X156938391Y-99179833D01*
X156938387Y-99179831D01*
X156769962Y-99110068D01*
X156769952Y-99110065D01*
X156591156Y-99074500D01*
X156591154Y-99074500D01*
X156408846Y-99074500D01*
X156408844Y-99074500D01*
X156230047Y-99110065D01*
X156230037Y-99110068D01*
X156061612Y-99179831D01*
X156061608Y-99179833D01*
X155910032Y-99281113D01*
X155910024Y-99281119D01*
X155781119Y-99410024D01*
X155781113Y-99410032D01*
X155679833Y-99561608D01*
X155679831Y-99561612D01*
X155610068Y-99730037D01*
X155610065Y-99730047D01*
X155574500Y-99908843D01*
X155574500Y-99908846D01*
X155574500Y-100091154D01*
X155574500Y-100091156D01*
X155574499Y-100091156D01*
X153925500Y-100091156D01*
X153925500Y-100091154D01*
X153925500Y-99908846D01*
X153925500Y-99908843D01*
X153889934Y-99730047D01*
X153889933Y-99730046D01*
X153889933Y-99730042D01*
X153889931Y-99730037D01*
X153820168Y-99561612D01*
X153820166Y-99561608D01*
X153718886Y-99410032D01*
X153718880Y-99410024D01*
X153589975Y-99281119D01*
X153589967Y-99281113D01*
X153438391Y-99179833D01*
X153438387Y-99179831D01*
X153269962Y-99110068D01*
X153269952Y-99110065D01*
X153091156Y-99074500D01*
X153091154Y-99074500D01*
X152908846Y-99074500D01*
X152908844Y-99074500D01*
X152730047Y-99110065D01*
X152730037Y-99110068D01*
X152561612Y-99179831D01*
X152561608Y-99179833D01*
X152410032Y-99281113D01*
X152410024Y-99281119D01*
X152281119Y-99410024D01*
X152281113Y-99410032D01*
X152179833Y-99561608D01*
X152179831Y-99561612D01*
X152110068Y-99730037D01*
X152110065Y-99730047D01*
X152074500Y-99908843D01*
X152074500Y-99908846D01*
X152074500Y-100091154D01*
X152074500Y-100091156D01*
X152074499Y-100091156D01*
X150425500Y-100091156D01*
X150425500Y-100091154D01*
X150425500Y-99908846D01*
X150425500Y-99908843D01*
X150389934Y-99730047D01*
X150389933Y-99730046D01*
X150389933Y-99730042D01*
X150389931Y-99730037D01*
X150320168Y-99561612D01*
X150320166Y-99561608D01*
X150218886Y-99410032D01*
X150218880Y-99410024D01*
X150089975Y-99281119D01*
X150089967Y-99281113D01*
X149938391Y-99179833D01*
X149938387Y-99179831D01*
X149769962Y-99110068D01*
X149769952Y-99110065D01*
X149591156Y-99074500D01*
X149591154Y-99074500D01*
X149408846Y-99074500D01*
X149408844Y-99074500D01*
X149230047Y-99110065D01*
X149230037Y-99110068D01*
X149061612Y-99179831D01*
X149061608Y-99179833D01*
X148910032Y-99281113D01*
X148910024Y-99281119D01*
X148781119Y-99410024D01*
X148781113Y-99410032D01*
X148679833Y-99561608D01*
X148679831Y-99561612D01*
X148610068Y-99730037D01*
X148610065Y-99730047D01*
X148574500Y-99908843D01*
X148574500Y-99908846D01*
X148574500Y-100091154D01*
X148574500Y-100091156D01*
X148574499Y-100091156D01*
X146925500Y-100091156D01*
X146925500Y-100091154D01*
X146925500Y-99908846D01*
X146925500Y-99908843D01*
X146889934Y-99730047D01*
X146889933Y-99730046D01*
X146889933Y-99730042D01*
X146889931Y-99730037D01*
X146820168Y-99561612D01*
X146820166Y-99561608D01*
X146718886Y-99410032D01*
X146718880Y-99410024D01*
X146589975Y-99281119D01*
X146589967Y-99281113D01*
X146438391Y-99179833D01*
X146438387Y-99179831D01*
X146269962Y-99110068D01*
X146269952Y-99110065D01*
X146091156Y-99074500D01*
X146091154Y-99074500D01*
X145908846Y-99074500D01*
X145908844Y-99074500D01*
X145730047Y-99110065D01*
X145730037Y-99110068D01*
X145561612Y-99179831D01*
X145561608Y-99179833D01*
X145410032Y-99281113D01*
X145410024Y-99281119D01*
X145281119Y-99410024D01*
X145281113Y-99410032D01*
X145179833Y-99561608D01*
X145179831Y-99561612D01*
X145110068Y-99730037D01*
X145110065Y-99730047D01*
X145074500Y-99908843D01*
X145074500Y-99908846D01*
X145074500Y-100091154D01*
X145074500Y-100091156D01*
X145074499Y-100091156D01*
X143425500Y-100091156D01*
X143425500Y-100091154D01*
X143425500Y-99908846D01*
X143425500Y-99908843D01*
X143389934Y-99730047D01*
X143389933Y-99730046D01*
X143389933Y-99730042D01*
X143389931Y-99730037D01*
X143320168Y-99561612D01*
X143320166Y-99561608D01*
X143218886Y-99410032D01*
X143218880Y-99410024D01*
X143089975Y-99281119D01*
X143089967Y-99281113D01*
X142938391Y-99179833D01*
X142938387Y-99179831D01*
X142769962Y-99110068D01*
X142769952Y-99110065D01*
X142591156Y-99074500D01*
X142591154Y-99074500D01*
X142408846Y-99074500D01*
X142408844Y-99074500D01*
X142230047Y-99110065D01*
X142230037Y-99110068D01*
X142061612Y-99179831D01*
X142061608Y-99179833D01*
X141910032Y-99281113D01*
X141910024Y-99281119D01*
X141781119Y-99410024D01*
X141781113Y-99410032D01*
X141679833Y-99561608D01*
X141679831Y-99561612D01*
X141610068Y-99730037D01*
X141610065Y-99730047D01*
X141574500Y-99908843D01*
X141574500Y-99908846D01*
X141574500Y-100091154D01*
X141574500Y-100091156D01*
X141574499Y-100091156D01*
X127601084Y-100091156D01*
X127520413Y-99972452D01*
X126987125Y-99187742D01*
X126984986Y-99184487D01*
X126322151Y-98140026D01*
X126320146Y-98136752D01*
X125690454Y-97072003D01*
X125688569Y-97068697D01*
X125092628Y-95984685D01*
X125090836Y-95981301D01*
X124529232Y-94879089D01*
X124527549Y-94875655D01*
X124000851Y-93756364D01*
X123999248Y-93752813D01*
X123673815Y-93000783D01*
X123507969Y-92617536D01*
X123506509Y-92614008D01*
X123051141Y-91463880D01*
X123049773Y-91460259D01*
X122630742Y-90296356D01*
X122629516Y-90292775D01*
X122247243Y-89116259D01*
X122246116Y-89112595D01*
X121901008Y-87924728D01*
X121899981Y-87920973D01*
X121899778Y-87920181D01*
X121592349Y-86722826D01*
X121591464Y-86719143D01*
X121321607Y-85511867D01*
X121320829Y-85508111D01*
X121089035Y-84293005D01*
X121088366Y-84289168D01*
X120937691Y-83337844D01*
X129285000Y-83337844D01*
X129291401Y-83397372D01*
X129291403Y-83397379D01*
X129341645Y-83532086D01*
X129341649Y-83532093D01*
X129427809Y-83647187D01*
X129427812Y-83647190D01*
X129542906Y-83733350D01*
X129542913Y-83733354D01*
X129677620Y-83783596D01*
X129677627Y-83783598D01*
X129737155Y-83789999D01*
X129737172Y-83790000D01*
X130250000Y-83790000D01*
X130750000Y-83790000D01*
X131262828Y-83790000D01*
X131262844Y-83789999D01*
X131322372Y-83783598D01*
X131322379Y-83783596D01*
X131457086Y-83733354D01*
X131457093Y-83733350D01*
X131572187Y-83647190D01*
X131572190Y-83647187D01*
X131658350Y-83532093D01*
X131658354Y-83532086D01*
X131708596Y-83397379D01*
X131708598Y-83397372D01*
X131714999Y-83337844D01*
X131715000Y-83337827D01*
X131715000Y-83070000D01*
X130750000Y-83070000D01*
X130750000Y-83790000D01*
X130250000Y-83790000D01*
X130250000Y-83070000D01*
X129285000Y-83070000D01*
X129285000Y-83337844D01*
X120937691Y-83337844D01*
X120915559Y-83198107D01*
X120894865Y-83067451D01*
X120894317Y-83063596D01*
X120890601Y-83034178D01*
X120774685Y-82116619D01*
X120739283Y-81836385D01*
X120738857Y-81832527D01*
X120738506Y-81828813D01*
X120622442Y-80600984D01*
X120622140Y-80597132D01*
X120622125Y-80596894D01*
X120604342Y-80314234D01*
X125027500Y-80314234D01*
X125027500Y-80465766D01*
X125029383Y-80472793D01*
X125066719Y-80612136D01*
X125091472Y-80655008D01*
X125142485Y-80743365D01*
X125249635Y-80850515D01*
X125380865Y-80926281D01*
X125527234Y-80965500D01*
X125527236Y-80965500D01*
X125678764Y-80965500D01*
X125678766Y-80965500D01*
X125825135Y-80926281D01*
X125956365Y-80850515D01*
X126063515Y-80743365D01*
X126139281Y-80612135D01*
X126178500Y-80465766D01*
X126178500Y-80314234D01*
X126139281Y-80167865D01*
X126063515Y-80036635D01*
X125956365Y-79929485D01*
X125886612Y-79889213D01*
X125825136Y-79853719D01*
X125751950Y-79834109D01*
X125678766Y-79814500D01*
X125527234Y-79814500D01*
X125380863Y-79853719D01*
X125249635Y-79929485D01*
X125249632Y-79929487D01*
X125142487Y-80036632D01*
X125142485Y-80036635D01*
X125066719Y-80167863D01*
X125029404Y-80307127D01*
X125027500Y-80314234D01*
X120604342Y-80314234D01*
X120544471Y-79362620D01*
X120544288Y-79358750D01*
X120544164Y-79354818D01*
X120505434Y-78122372D01*
X120505373Y-78118477D01*
X120505373Y-77362155D01*
X126785000Y-77362155D01*
X126785000Y-77630000D01*
X127750000Y-77630000D01*
X127750000Y-76910000D01*
X127237155Y-76910000D01*
X127177627Y-76916401D01*
X127177620Y-76916403D01*
X127042913Y-76966645D01*
X127042906Y-76966649D01*
X126927812Y-77052809D01*
X126927809Y-77052812D01*
X126841649Y-77167906D01*
X126841645Y-77167913D01*
X126791403Y-77302620D01*
X126791401Y-77302627D01*
X126785000Y-77362155D01*
X120505373Y-77362155D01*
X120505373Y-76881522D01*
X120505434Y-76877627D01*
X120505870Y-76863767D01*
X120544289Y-75641227D01*
X120544472Y-75637358D01*
X120547330Y-75591930D01*
X120613875Y-74534234D01*
X125027500Y-74534234D01*
X125027500Y-74685766D01*
X125030572Y-74697232D01*
X125066719Y-74832136D01*
X125074383Y-74845410D01*
X125142485Y-74963365D01*
X125249635Y-75070515D01*
X125380865Y-75146281D01*
X125527234Y-75185500D01*
X125527236Y-75185500D01*
X125678764Y-75185500D01*
X125678766Y-75185500D01*
X125825135Y-75146281D01*
X125956365Y-75070515D01*
X126063515Y-74963365D01*
X126139281Y-74832135D01*
X126178500Y-74685766D01*
X126178500Y-74534234D01*
X126139281Y-74387865D01*
X126063515Y-74256635D01*
X125956365Y-74149485D01*
X125861025Y-74094440D01*
X125825136Y-74073719D01*
X125751950Y-74054109D01*
X125678766Y-74034500D01*
X125527234Y-74034500D01*
X125380863Y-74073719D01*
X125249635Y-74149485D01*
X125249632Y-74149487D01*
X125142487Y-74256632D01*
X125142485Y-74256635D01*
X125066719Y-74387863D01*
X125062699Y-74402867D01*
X125027500Y-74534234D01*
X120613875Y-74534234D01*
X120622142Y-74402831D01*
X120622442Y-74399020D01*
X120738859Y-73167452D01*
X120739285Y-73163600D01*
X120740202Y-73156346D01*
X120894318Y-71936390D01*
X120894866Y-71932545D01*
X120897060Y-71918697D01*
X121088367Y-70710824D01*
X121089035Y-70706994D01*
X121106292Y-70616531D01*
X121320831Y-69491875D01*
X121321604Y-69488145D01*
X121591467Y-68280842D01*
X121592345Y-68277187D01*
X121899985Y-67079008D01*
X121901009Y-67075269D01*
X121907558Y-67052727D01*
X122246121Y-65887386D01*
X122247237Y-65883758D01*
X122629522Y-64707204D01*
X122630735Y-64703662D01*
X123049788Y-63539697D01*
X123051133Y-63536140D01*
X123506518Y-62385968D01*
X123507960Y-62382485D01*
X123999256Y-61247166D01*
X124000851Y-61243635D01*
X124007111Y-61230332D01*
X124527561Y-60124319D01*
X124529219Y-60120935D01*
X125090850Y-59018671D01*
X125092614Y-59015341D01*
X125688584Y-57931274D01*
X125690438Y-57928023D01*
X126320176Y-56863197D01*
X126322134Y-56860001D01*
X126985011Y-55815473D01*
X126987125Y-55812257D01*
X126988122Y-55810791D01*
X127682408Y-54789179D01*
X127684642Y-54786001D01*
X127748588Y-54697987D01*
X127987704Y-54368872D01*
X131999500Y-54368872D01*
X131999500Y-54631127D01*
X132021668Y-54799499D01*
X132033730Y-54891116D01*
X132098831Y-55134076D01*
X132101602Y-55144418D01*
X132101605Y-55144428D01*
X132201953Y-55386690D01*
X132201958Y-55386700D01*
X132333075Y-55613803D01*
X132492718Y-55821851D01*
X132492726Y-55821860D01*
X132678140Y-56007274D01*
X132678148Y-56007281D01*
X132886196Y-56166924D01*
X133113299Y-56298041D01*
X133113309Y-56298046D01*
X133355571Y-56398394D01*
X133355581Y-56398398D01*
X133608884Y-56466270D01*
X133868880Y-56500500D01*
X133868887Y-56500500D01*
X134131113Y-56500500D01*
X134131120Y-56500500D01*
X134391116Y-56466270D01*
X134644419Y-56398398D01*
X134849646Y-56313390D01*
X134886690Y-56298046D01*
X134886691Y-56298045D01*
X134886697Y-56298043D01*
X135113803Y-56166924D01*
X135321851Y-56007282D01*
X135321855Y-56007277D01*
X135321860Y-56007274D01*
X135507274Y-55821860D01*
X135507277Y-55821855D01*
X135507282Y-55821851D01*
X135666924Y-55613803D01*
X135798043Y-55386697D01*
X135898398Y-55144419D01*
X135966270Y-54891116D01*
X135979583Y-54790000D01*
X140695496Y-54790000D01*
X141250000Y-54790000D01*
X141250000Y-54261210D01*
X141249999Y-54261209D01*
X141229087Y-54262854D01*
X141229081Y-54262855D01*
X141073809Y-54307966D01*
X141073804Y-54307968D01*
X140934625Y-54390278D01*
X140934616Y-54390285D01*
X140820285Y-54504616D01*
X140820278Y-54504625D01*
X140737968Y-54643804D01*
X140695496Y-54790000D01*
X135979583Y-54790000D01*
X136000500Y-54631120D01*
X136000500Y-54368880D01*
X135966270Y-54108884D01*
X135898398Y-53855581D01*
X135869074Y-53784786D01*
X135798046Y-53613309D01*
X135798041Y-53613299D01*
X135666924Y-53386196D01*
X135523665Y-53199500D01*
X135507282Y-53178149D01*
X135507281Y-53178148D01*
X135507274Y-53178140D01*
X135321860Y-52992726D01*
X135321851Y-52992718D01*
X135113803Y-52833075D01*
X134886700Y-52701958D01*
X134886690Y-52701953D01*
X134644428Y-52601605D01*
X134644421Y-52601603D01*
X134644419Y-52601602D01*
X134391116Y-52533730D01*
X134333339Y-52526123D01*
X134131127Y-52499500D01*
X134131120Y-52499500D01*
X133868880Y-52499500D01*
X133868872Y-52499500D01*
X133637772Y-52529926D01*
X133608884Y-52533730D01*
X133355581Y-52601602D01*
X133355571Y-52601605D01*
X133113309Y-52701953D01*
X133113299Y-52701958D01*
X132886196Y-52833075D01*
X132678148Y-52992718D01*
X132492718Y-53178148D01*
X132333075Y-53386196D01*
X132201958Y-53613299D01*
X132201953Y-53613309D01*
X132101605Y-53855571D01*
X132101603Y-53855578D01*
X132101602Y-53855581D01*
X132035409Y-54102620D01*
X132033730Y-54108885D01*
X131999500Y-54368872D01*
X127987704Y-54368872D01*
X128411762Y-53785205D01*
X128413979Y-53782252D01*
X129172226Y-52804727D01*
X129174583Y-52801784D01*
X129963150Y-51848570D01*
X129965590Y-51845713D01*
X130783689Y-50917762D01*
X130786254Y-50914944D01*
X131633075Y-50013170D01*
X131635723Y-50010438D01*
X132510438Y-49135723D01*
X132513170Y-49133075D01*
X133097883Y-48583994D01*
X141480000Y-48583994D01*
X141480000Y-48816005D01*
X141480001Y-48816022D01*
X141510283Y-49046040D01*
X141510286Y-49046053D01*
X141570336Y-49270167D01*
X141659124Y-49484521D01*
X141659132Y-49484538D01*
X141775136Y-49685461D01*
X141775142Y-49685469D01*
X141834117Y-49762327D01*
X142572421Y-49024024D01*
X142585359Y-49055258D01*
X142667437Y-49178097D01*
X142771903Y-49282563D01*
X142894742Y-49364641D01*
X142925975Y-49377578D01*
X142187671Y-50115881D01*
X142264530Y-50174857D01*
X142264538Y-50174863D01*
X142465461Y-50290867D01*
X142465478Y-50290875D01*
X142679832Y-50379663D01*
X142903946Y-50439713D01*
X142903959Y-50439716D01*
X143133977Y-50469998D01*
X143133995Y-50470000D01*
X143366005Y-50470000D01*
X143366022Y-50469998D01*
X143596040Y-50439716D01*
X143596053Y-50439713D01*
X143820167Y-50379663D01*
X144034521Y-50290875D01*
X144034538Y-50290867D01*
X144235475Y-50174855D01*
X144312327Y-50115883D01*
X144312327Y-50115880D01*
X143574024Y-49377578D01*
X143605258Y-49364641D01*
X143728097Y-49282563D01*
X143832563Y-49178097D01*
X143914641Y-49055258D01*
X143927578Y-49024024D01*
X144665880Y-49762327D01*
X144665883Y-49762327D01*
X144724855Y-49685475D01*
X144840867Y-49484538D01*
X144840875Y-49484521D01*
X144929663Y-49270167D01*
X144989713Y-49046053D01*
X144989716Y-49046040D01*
X145019998Y-48816022D01*
X145020000Y-48816005D01*
X145020000Y-48583994D01*
X145019998Y-48583977D01*
X144989716Y-48353959D01*
X144989713Y-48353946D01*
X144929663Y-48129832D01*
X144840875Y-47915478D01*
X144840867Y-47915461D01*
X144724863Y-47714538D01*
X144724857Y-47714530D01*
X144665881Y-47637671D01*
X143927578Y-48375974D01*
X143914641Y-48344742D01*
X143832563Y-48221903D01*
X143728097Y-48117437D01*
X143605258Y-48035359D01*
X143574024Y-48022421D01*
X144312327Y-47284117D01*
X144235469Y-47225142D01*
X144235461Y-47225136D01*
X144034538Y-47109132D01*
X144034521Y-47109124D01*
X143820167Y-47020336D01*
X143596053Y-46960286D01*
X143596040Y-46960283D01*
X143366022Y-46930001D01*
X143366005Y-46930000D01*
X143133995Y-46930000D01*
X143133977Y-46930001D01*
X142903959Y-46960283D01*
X142903946Y-46960286D01*
X142679832Y-47020336D01*
X142465478Y-47109124D01*
X142465461Y-47109132D01*
X142264541Y-47225134D01*
X142264533Y-47225140D01*
X142187671Y-47284116D01*
X142187671Y-47284117D01*
X142925975Y-48022421D01*
X142894742Y-48035359D01*
X142771903Y-48117437D01*
X142667437Y-48221903D01*
X142585359Y-48344742D01*
X142572421Y-48375975D01*
X141834117Y-47637671D01*
X141834116Y-47637671D01*
X141775140Y-47714533D01*
X141775134Y-47714541D01*
X141659132Y-47915461D01*
X141659124Y-47915478D01*
X141570336Y-48129832D01*
X141510286Y-48353946D01*
X141510283Y-48353959D01*
X141480001Y-48583977D01*
X141480000Y-48583994D01*
X133097883Y-48583994D01*
X133414944Y-48286254D01*
X133417762Y-48283689D01*
X134345713Y-47465590D01*
X134348570Y-47463150D01*
X135301784Y-46674583D01*
X135304727Y-46672226D01*
X136282252Y-45913979D01*
X136285205Y-45911762D01*
X137286009Y-45184635D01*
X137289188Y-45182402D01*
X138312267Y-44487118D01*
X138315473Y-44485011D01*
X139360001Y-43822134D01*
X139363197Y-43820176D01*
X140428023Y-43190438D01*
X140431274Y-43188584D01*
X141515341Y-42592614D01*
X141518671Y-42590850D01*
X142620935Y-42029219D01*
X142624319Y-42027561D01*
X143743654Y-41500842D01*
X143747166Y-41499256D01*
X144882485Y-41007960D01*
X144885968Y-41006518D01*
X146036140Y-40551133D01*
X146039697Y-40549788D01*
X147203662Y-40130735D01*
X147207204Y-40129522D01*
X148383758Y-39747237D01*
X148387386Y-39746121D01*
X149575287Y-39401003D01*
X149579008Y-39399985D01*
X150777187Y-39092345D01*
X150780842Y-39091467D01*
X151988145Y-38821604D01*
X151991875Y-38820831D01*
X153207000Y-38589033D01*
X153210824Y-38588367D01*
X154432557Y-38394864D01*
X154436390Y-38394318D01*
X155663621Y-38239282D01*
X155667452Y-38238859D01*
X156899020Y-38122442D01*
X156902831Y-38122142D01*
X158137382Y-38044470D01*
X158141227Y-38044289D01*
X159377628Y-38005434D01*
X159381523Y-38005373D01*
X160618477Y-38005373D01*
X160622372Y-38005434D01*
G37*
%TD.AperFunction*%
%TA.AperFunction,Conductor*%
G36*
X169528279Y-50706543D02*
G01*
X169553104Y-50709512D01*
X169561226Y-50716218D01*
X169571330Y-50719185D01*
X169587698Y-50738075D01*
X169606982Y-50753997D01*
X169610189Y-50764031D01*
X169617085Y-50771989D01*
X169620642Y-50796732D01*
X169628256Y-50820549D01*
X169626354Y-50836454D01*
X169627029Y-50841147D01*
X169624069Y-50855578D01*
X169599500Y-50947273D01*
X169599500Y-51052727D01*
X169610694Y-51094502D01*
X169626793Y-51154586D01*
X169626794Y-51154589D01*
X169679521Y-51245914D01*
X169759834Y-51326227D01*
X169758149Y-51327911D01*
X169792187Y-51374523D01*
X169799500Y-51416476D01*
X169799500Y-52625500D01*
X169779815Y-52692539D01*
X169727011Y-52738294D01*
X169675500Y-52749500D01*
X168140105Y-52749500D01*
X168140097Y-52749501D01*
X168110787Y-52755330D01*
X168077542Y-52777542D01*
X168055332Y-52810785D01*
X168055329Y-52810791D01*
X168049500Y-52840098D01*
X168049500Y-53959894D01*
X168049501Y-53959902D01*
X168055330Y-53989212D01*
X168077542Y-54022457D01*
X168094219Y-54033599D01*
X168110787Y-54044669D01*
X168110790Y-54044669D01*
X168110791Y-54044670D01*
X168120647Y-54046630D01*
X168140101Y-54050500D01*
X171766588Y-54050499D01*
X171833627Y-54070184D01*
X171879382Y-54122988D01*
X171889326Y-54192146D01*
X171860301Y-54255702D01*
X171854269Y-54262180D01*
X170403267Y-55713181D01*
X170341944Y-55746666D01*
X170315586Y-55749500D01*
X168140105Y-55749500D01*
X168140097Y-55749501D01*
X168110787Y-55755330D01*
X168077542Y-55777542D01*
X168055332Y-55810785D01*
X168055329Y-55810791D01*
X168049500Y-55840098D01*
X168049500Y-56959894D01*
X168049501Y-56959902D01*
X168055330Y-56989212D01*
X168077542Y-57022457D01*
X168094219Y-57033599D01*
X168110787Y-57044669D01*
X168110790Y-57044669D01*
X168110791Y-57044670D01*
X168120647Y-57046630D01*
X168140101Y-57050500D01*
X170315587Y-57050499D01*
X170382626Y-57070184D01*
X170403268Y-57086818D01*
X170713181Y-57396731D01*
X170746666Y-57458054D01*
X170749500Y-57484412D01*
X170749500Y-58357907D01*
X170729815Y-58424946D01*
X170677011Y-58470701D01*
X170607853Y-58480645D01*
X170551189Y-58457174D01*
X170517089Y-58431647D01*
X170517086Y-58431645D01*
X170382379Y-58381403D01*
X170382372Y-58381401D01*
X170322844Y-58375000D01*
X170250000Y-58375000D01*
X170250000Y-60425000D01*
X170322828Y-60425000D01*
X170322844Y-60424999D01*
X170382372Y-60418598D01*
X170382379Y-60418596D01*
X170517086Y-60368354D01*
X170517093Y-60368350D01*
X170632187Y-60282190D01*
X170632190Y-60282187D01*
X170718350Y-60167093D01*
X170718354Y-60167086D01*
X170741076Y-60106166D01*
X170782947Y-60050232D01*
X170848411Y-60025815D01*
X170857239Y-60025499D01*
X171234898Y-60025499D01*
X171264213Y-60019669D01*
X171297457Y-59997457D01*
X171319669Y-59964213D01*
X171325500Y-59934899D01*
X171325499Y-58865102D01*
X171319669Y-58835787D01*
X171319072Y-58834894D01*
X171297457Y-58802542D01*
X171264214Y-58780332D01*
X171264215Y-58780332D01*
X171264213Y-58780331D01*
X171264210Y-58780330D01*
X171264209Y-58780330D01*
X171250305Y-58777564D01*
X171188395Y-58745177D01*
X171153823Y-58684460D01*
X171150500Y-58655947D01*
X171150500Y-57310119D01*
X171150499Y-57310116D01*
X171133958Y-57270182D01*
X171119976Y-57236426D01*
X171119975Y-57236425D01*
X171115302Y-57225143D01*
X171118499Y-57223818D01*
X171103751Y-57176708D01*
X171122238Y-57109329D01*
X171174218Y-57062640D01*
X171227731Y-57050499D01*
X171859895Y-57050499D01*
X171859898Y-57050499D01*
X171889213Y-57044669D01*
X171922457Y-57022457D01*
X171944669Y-56989213D01*
X171950500Y-56959899D01*
X171950499Y-55840102D01*
X171944669Y-55810787D01*
X171936828Y-55799051D01*
X171922457Y-55777542D01*
X171897496Y-55760865D01*
X171889213Y-55755331D01*
X171889211Y-55755330D01*
X171889208Y-55755329D01*
X171859901Y-55749500D01*
X171859899Y-55749500D01*
X171233411Y-55749500D01*
X171166372Y-55729815D01*
X171120617Y-55677011D01*
X171110673Y-55607853D01*
X171139698Y-55544297D01*
X171145730Y-55537819D01*
X172085582Y-54597968D01*
X173196731Y-53486819D01*
X173223658Y-53472115D01*
X173249477Y-53455523D01*
X173255677Y-53454631D01*
X173258054Y-53453334D01*
X173284412Y-53450500D01*
X173376000Y-53450500D01*
X173443039Y-53470185D01*
X173488794Y-53522989D01*
X173500000Y-53574500D01*
X173500000Y-59876000D01*
X173480315Y-59943039D01*
X173427511Y-59988794D01*
X173376000Y-60000000D01*
X172927155Y-60000000D01*
X172867627Y-60006401D01*
X172867620Y-60006403D01*
X172732913Y-60056645D01*
X172732906Y-60056649D01*
X172617812Y-60142809D01*
X172617809Y-60142812D01*
X172531649Y-60257906D01*
X172531645Y-60257913D01*
X172481403Y-60392620D01*
X172481401Y-60392627D01*
X172475000Y-60452155D01*
X172475000Y-60650000D01*
X173376000Y-60650000D01*
X173443039Y-60669685D01*
X173488794Y-60722489D01*
X173500000Y-60774000D01*
X173500000Y-61026000D01*
X173480315Y-61093039D01*
X173427511Y-61138794D01*
X173376000Y-61150000D01*
X172475000Y-61150000D01*
X172475000Y-61347844D01*
X172481401Y-61407372D01*
X172481403Y-61407379D01*
X172531645Y-61542086D01*
X172531649Y-61542093D01*
X172617809Y-61657187D01*
X172617812Y-61657190D01*
X172732906Y-61743350D01*
X172732913Y-61743354D01*
X172867620Y-61793596D01*
X172867627Y-61793598D01*
X172927155Y-61799999D01*
X172927172Y-61800000D01*
X173376000Y-61800000D01*
X173384685Y-61802550D01*
X173393647Y-61801262D01*
X173417687Y-61812240D01*
X173443039Y-61819685D01*
X173448966Y-61826525D01*
X173457203Y-61830287D01*
X173471492Y-61852521D01*
X173488794Y-61872489D01*
X173491081Y-61883003D01*
X173494977Y-61889065D01*
X173500000Y-61924000D01*
X173500000Y-62125500D01*
X173480315Y-62192539D01*
X173427511Y-62238294D01*
X173376000Y-62249500D01*
X172965105Y-62249500D01*
X172965097Y-62249501D01*
X172935787Y-62255330D01*
X172902542Y-62277542D01*
X172880332Y-62310785D01*
X172880329Y-62310791D01*
X172874500Y-62340098D01*
X172874500Y-62425500D01*
X172854815Y-62492539D01*
X172802011Y-62538294D01*
X172750500Y-62549500D01*
X171834412Y-62549500D01*
X171767373Y-62529815D01*
X171746731Y-62513181D01*
X171361818Y-62128268D01*
X171328333Y-62066945D01*
X171325499Y-62040587D01*
X171325499Y-61465105D01*
X171325498Y-61465097D01*
X171319669Y-61435787D01*
X171297457Y-61402542D01*
X171264214Y-61380332D01*
X171264215Y-61380332D01*
X171264213Y-61380331D01*
X171264211Y-61380330D01*
X171264208Y-61380329D01*
X171234901Y-61374500D01*
X170665105Y-61374500D01*
X170665097Y-61374501D01*
X170635787Y-61380330D01*
X170602542Y-61402542D01*
X170580332Y-61435785D01*
X170580329Y-61435791D01*
X170574500Y-61465098D01*
X170574500Y-62534894D01*
X170574501Y-62534902D01*
X170580330Y-62564212D01*
X170602542Y-62597457D01*
X170619219Y-62608599D01*
X170635787Y-62619669D01*
X170649691Y-62622434D01*
X170711601Y-62654819D01*
X170746176Y-62715534D01*
X170749500Y-62744052D01*
X170749500Y-63200500D01*
X170729815Y-63267539D01*
X170677011Y-63313294D01*
X170625503Y-63324500D01*
X170580143Y-63324500D01*
X170580118Y-63324502D01*
X170555011Y-63327414D01*
X170555008Y-63327415D01*
X170452235Y-63372793D01*
X170372794Y-63452234D01*
X170327415Y-63555006D01*
X170327415Y-63555008D01*
X170324500Y-63580131D01*
X170324500Y-64219856D01*
X170324502Y-64219882D01*
X170327413Y-64244987D01*
X170327415Y-64244991D01*
X170372793Y-64347764D01*
X170372794Y-64347765D01*
X170452235Y-64427206D01*
X170555009Y-64472585D01*
X170580135Y-64475500D01*
X171069864Y-64475499D01*
X171069879Y-64475497D01*
X171069882Y-64475497D01*
X171094987Y-64472586D01*
X171094988Y-64472585D01*
X171094991Y-64472585D01*
X171197765Y-64427206D01*
X171277206Y-64347765D01*
X171322585Y-64244991D01*
X171325500Y-64219865D01*
X171325499Y-63580136D01*
X171325497Y-63580117D01*
X171322586Y-63555012D01*
X171322585Y-63555010D01*
X171322585Y-63555009D01*
X171277206Y-63452235D01*
X171197765Y-63372794D01*
X171197764Y-63372793D01*
X171189640Y-63364669D01*
X171192075Y-63362233D01*
X171160230Y-63323203D01*
X171150500Y-63275054D01*
X171150500Y-62783412D01*
X171170185Y-62716373D01*
X171222989Y-62670618D01*
X171292147Y-62660674D01*
X171355703Y-62689699D01*
X171362181Y-62695731D01*
X171530024Y-62863574D01*
X171586426Y-62919976D01*
X171660118Y-62950500D01*
X172750501Y-62950500D01*
X172817540Y-62970185D01*
X172863295Y-63022989D01*
X172874501Y-63074500D01*
X172874501Y-63159902D01*
X172880330Y-63189212D01*
X172902542Y-63222457D01*
X172911635Y-63228532D01*
X172935787Y-63244669D01*
X172935790Y-63244669D01*
X172935791Y-63244670D01*
X172945647Y-63246630D01*
X172965101Y-63250500D01*
X173376000Y-63250499D01*
X173443039Y-63270183D01*
X173488794Y-63322987D01*
X173500000Y-63374499D01*
X173500000Y-70000000D01*
X181376000Y-70000000D01*
X181443039Y-70019685D01*
X181488794Y-70072489D01*
X181500000Y-70124000D01*
X181500000Y-73031642D01*
X181480315Y-73098681D01*
X181427511Y-73144436D01*
X181358353Y-73154380D01*
X181294797Y-73125355D01*
X181288319Y-73119323D01*
X179355632Y-71186636D01*
X179263564Y-71148500D01*
X179263563Y-71148500D01*
X174812012Y-71148500D01*
X174750012Y-71131887D01*
X174745913Y-71129520D01*
X174654587Y-71076793D01*
X174552727Y-71049500D01*
X174447273Y-71049500D01*
X174345413Y-71076793D01*
X174345410Y-71076794D01*
X174254085Y-71129521D01*
X174179521Y-71204085D01*
X174126794Y-71295410D01*
X174126793Y-71295413D01*
X174099500Y-71397273D01*
X174099500Y-71502727D01*
X174126793Y-71604587D01*
X174179520Y-71695913D01*
X174254087Y-71770480D01*
X174345413Y-71823207D01*
X174447273Y-71850500D01*
X174447275Y-71850500D01*
X174552725Y-71850500D01*
X174552727Y-71850500D01*
X174654587Y-71823207D01*
X174745913Y-71770480D01*
X174820480Y-71695913D01*
X174820481Y-71695910D01*
X174823056Y-71693336D01*
X174823531Y-71692297D01*
X174825112Y-71691280D01*
X174826227Y-71690166D01*
X174826469Y-71690408D01*
X174849941Y-71675323D01*
X174875303Y-71656808D01*
X174880036Y-71655983D01*
X174882309Y-71654523D01*
X174917244Y-71649500D01*
X175004291Y-71649500D01*
X175071330Y-71669185D01*
X175117085Y-71721989D01*
X175127029Y-71791147D01*
X175124069Y-71805578D01*
X175099500Y-71897273D01*
X175099500Y-72002727D01*
X175126793Y-72104587D01*
X175179520Y-72195913D01*
X175254087Y-72270480D01*
X175345413Y-72323207D01*
X175447273Y-72350500D01*
X175447275Y-72350500D01*
X175552725Y-72350500D01*
X175552727Y-72350500D01*
X175654587Y-72323207D01*
X175745913Y-72270480D01*
X175775843Y-72240549D01*
X175837163Y-72207065D01*
X175906855Y-72212049D01*
X175962789Y-72253919D01*
X175987207Y-72319383D01*
X175983298Y-72360322D01*
X175973398Y-72397268D01*
X175973398Y-72397273D01*
X175973398Y-72502727D01*
X176000691Y-72604587D01*
X176053418Y-72695913D01*
X176127985Y-72770480D01*
X176219311Y-72823207D01*
X176321171Y-72850500D01*
X176321173Y-72850500D01*
X176405347Y-72850500D01*
X176472386Y-72870185D01*
X176518141Y-72922989D01*
X176529347Y-72974500D01*
X176529347Y-72983739D01*
X176552554Y-73070347D01*
X176556640Y-73085598D01*
X176556641Y-73085601D01*
X176559239Y-73090101D01*
X176609367Y-73176925D01*
X176683934Y-73251492D01*
X176775260Y-73304219D01*
X176877120Y-73331512D01*
X176877122Y-73331512D01*
X176904452Y-73331512D01*
X176971491Y-73351197D01*
X177017246Y-73404001D01*
X177028452Y-73455512D01*
X177028452Y-73474552D01*
X177055745Y-73576412D01*
X177108472Y-73667738D01*
X177183039Y-73742305D01*
X177274365Y-73795032D01*
X177376225Y-73822325D01*
X177376233Y-73822325D01*
X177384285Y-73823386D01*
X177384083Y-73824918D01*
X177442290Y-73842010D01*
X177488045Y-73894814D01*
X177499251Y-73946325D01*
X177499251Y-73992578D01*
X177526544Y-74094438D01*
X177579271Y-74185764D01*
X177653838Y-74260331D01*
X177745164Y-74313058D01*
X177847024Y-74340351D01*
X177847026Y-74340351D01*
X177952475Y-74340351D01*
X177952478Y-74340351D01*
X177966782Y-74336518D01*
X178036629Y-74338179D01*
X178094493Y-74377340D01*
X178106853Y-74395326D01*
X178114583Y-74409018D01*
X178126793Y-74454584D01*
X178179520Y-74545910D01*
X178207898Y-74574288D01*
X178216223Y-74589032D01*
X178220454Y-74607235D01*
X178229412Y-74623640D01*
X178228201Y-74640562D01*
X178232043Y-74657087D01*
X178225761Y-74674688D01*
X178224428Y-74693332D01*
X178212463Y-74711949D01*
X178208558Y-74722892D01*
X178202359Y-74727670D01*
X178195929Y-74737677D01*
X178179521Y-74754085D01*
X178126794Y-74845410D01*
X178126793Y-74845413D01*
X178099500Y-74947273D01*
X178099500Y-74975500D01*
X178079815Y-75042539D01*
X178027011Y-75088294D01*
X177975500Y-75099500D01*
X177947273Y-75099500D01*
X177845413Y-75126793D01*
X177845410Y-75126794D01*
X177754085Y-75179521D01*
X177679521Y-75254085D01*
X177626794Y-75345410D01*
X177626793Y-75345413D01*
X177599500Y-75447273D01*
X177599500Y-75552727D01*
X177610004Y-75591930D01*
X177628897Y-75662438D01*
X177625693Y-75663296D01*
X177631487Y-75717452D01*
X177600179Y-75779914D01*
X177541568Y-75815143D01*
X177535418Y-75816791D01*
X177535410Y-75816794D01*
X177444085Y-75869521D01*
X177369521Y-75944085D01*
X177316794Y-76035410D01*
X177316793Y-76035413D01*
X177289500Y-76137273D01*
X177289500Y-76184877D01*
X177269815Y-76251916D01*
X177253181Y-76272558D01*
X165605558Y-87920181D01*
X165544235Y-87953666D01*
X165517877Y-87956500D01*
X142174623Y-87956500D01*
X142107584Y-87936815D01*
X142086942Y-87920181D01*
X137761819Y-83595058D01*
X137747115Y-83568130D01*
X137730523Y-83542312D01*
X137729631Y-83536111D01*
X137728334Y-83533735D01*
X137725500Y-83507377D01*
X137725500Y-83349500D01*
X137745185Y-83282461D01*
X137797989Y-83236706D01*
X137849500Y-83225500D01*
X138578554Y-83225500D01*
X138626095Y-83216043D01*
X138626095Y-83216042D01*
X138626099Y-83216042D01*
X138680016Y-83180016D01*
X138716042Y-83126099D01*
X138718190Y-83115302D01*
X138725500Y-83078554D01*
X138725500Y-82921445D01*
X138716302Y-82875208D01*
X138716042Y-82873901D01*
X138716040Y-82873899D01*
X138715237Y-82871957D01*
X138714743Y-82867371D01*
X138713660Y-82861923D01*
X138714147Y-82861826D01*
X138707765Y-82802488D01*
X138739038Y-82740007D01*
X138799126Y-82704353D01*
X138829796Y-82700500D01*
X141205588Y-82700500D01*
X141272627Y-82720185D01*
X141293269Y-82736819D01*
X141813181Y-83256731D01*
X141846666Y-83318054D01*
X141849500Y-83344412D01*
X141849500Y-83829856D01*
X141849502Y-83829882D01*
X141852413Y-83854987D01*
X141852415Y-83854991D01*
X141897793Y-83957764D01*
X141897794Y-83957765D01*
X141977235Y-84037206D01*
X142080009Y-84082585D01*
X142105135Y-84085500D01*
X142594864Y-84085499D01*
X142594879Y-84085497D01*
X142594882Y-84085497D01*
X142619987Y-84082586D01*
X142619987Y-84082585D01*
X142619991Y-84082585D01*
X142722765Y-84037206D01*
X142722767Y-84037203D01*
X142726510Y-84035551D01*
X142795788Y-84026479D01*
X142858973Y-84056302D01*
X142892554Y-84110030D01*
X142892826Y-84109918D01*
X142893497Y-84111539D01*
X142896005Y-84115551D01*
X142897159Y-84120379D01*
X142897500Y-84121202D01*
X142928024Y-84194894D01*
X143390106Y-84656976D01*
X143463798Y-84687500D01*
X143463800Y-84687500D01*
X144536200Y-84687500D01*
X144536202Y-84687500D01*
X144609894Y-84656976D01*
X148669976Y-80596894D01*
X148700500Y-80523202D01*
X148700500Y-80443437D01*
X148700500Y-72933856D01*
X150149500Y-72933856D01*
X150149500Y-79546144D01*
X150163885Y-79599828D01*
X150163884Y-79599828D01*
X150163885Y-79599830D01*
X150173384Y-79635284D01*
X150173385Y-79635286D01*
X150219527Y-79715208D01*
X150219529Y-79715211D01*
X150219530Y-79715212D01*
X151719531Y-81215212D01*
X151784788Y-81280469D01*
X151784791Y-81280470D01*
X151784794Y-81280473D01*
X151864706Y-81326611D01*
X151864707Y-81326611D01*
X151864712Y-81326614D01*
X151953856Y-81350500D01*
X152035501Y-81350500D01*
X152102540Y-81370185D01*
X152148295Y-81422989D01*
X152159501Y-81474500D01*
X152159501Y-81609902D01*
X152165330Y-81639212D01*
X152187542Y-81672457D01*
X152204219Y-81683599D01*
X152220787Y-81694669D01*
X152220790Y-81694669D01*
X152220791Y-81694670D01*
X152230647Y-81696630D01*
X152250101Y-81700500D01*
X155166456Y-81700499D01*
X155187701Y-81706737D01*
X155209790Y-81708317D01*
X155220573Y-81716389D01*
X155233495Y-81720184D01*
X155247995Y-81736917D01*
X155265723Y-81750189D01*
X155270429Y-81762808D01*
X155279250Y-81772987D01*
X155282401Y-81794905D01*
X155290140Y-81815653D01*
X155287277Y-81828813D01*
X155289194Y-81842146D01*
X155279994Y-81862289D01*
X155275288Y-81883926D01*
X155262019Y-81901651D01*
X155260169Y-81905702D01*
X155254137Y-81912180D01*
X155203136Y-81963181D01*
X155141813Y-81996666D01*
X155115455Y-81999500D01*
X152250105Y-81999500D01*
X152250097Y-81999501D01*
X152220787Y-82005330D01*
X152187542Y-82027542D01*
X152165332Y-82060785D01*
X152165329Y-82060791D01*
X152159500Y-82090098D01*
X152159500Y-83309894D01*
X152159501Y-83309902D01*
X152165330Y-83339212D01*
X152187542Y-83372457D01*
X152204219Y-83383599D01*
X152220787Y-83394669D01*
X152220790Y-83394669D01*
X152220791Y-83394670D01*
X152230647Y-83396630D01*
X152250101Y-83400500D01*
X154964455Y-83400499D01*
X154985700Y-83406737D01*
X155007789Y-83408317D01*
X155018572Y-83416389D01*
X155031494Y-83420184D01*
X155045994Y-83436917D01*
X155063722Y-83450189D01*
X155068428Y-83462808D01*
X155077249Y-83472987D01*
X155080400Y-83494905D01*
X155088139Y-83515653D01*
X155085276Y-83528813D01*
X155087193Y-83542146D01*
X155077993Y-83562289D01*
X155073287Y-83583926D01*
X155060018Y-83601651D01*
X155058168Y-83605702D01*
X155052136Y-83612180D01*
X155001135Y-83663181D01*
X154939812Y-83696666D01*
X154913454Y-83699500D01*
X152250105Y-83699500D01*
X152250097Y-83699501D01*
X152220787Y-83705330D01*
X152187542Y-83727542D01*
X152165332Y-83760785D01*
X152165329Y-83760791D01*
X152159500Y-83790098D01*
X152159500Y-85009894D01*
X152159501Y-85009902D01*
X152165330Y-85039212D01*
X152187542Y-85072457D01*
X152204219Y-85083599D01*
X152220787Y-85094669D01*
X152220790Y-85094669D01*
X152220791Y-85094670D01*
X152230647Y-85096630D01*
X152250101Y-85100500D01*
X155369898Y-85100499D01*
X155399213Y-85094669D01*
X155432457Y-85072457D01*
X155454669Y-85039213D01*
X155460500Y-85009899D01*
X155460499Y-84246542D01*
X155480183Y-84179504D01*
X155496813Y-84158867D01*
X156780470Y-82875212D01*
X156826614Y-82795288D01*
X156835726Y-82761281D01*
X156872090Y-82701623D01*
X156934937Y-82671094D01*
X157004313Y-82679389D01*
X157058190Y-82723874D01*
X157079465Y-82790426D01*
X157079500Y-82793377D01*
X157079500Y-82865703D01*
X157116601Y-83194991D01*
X157116603Y-83195003D01*
X157116604Y-83195006D01*
X157126122Y-83236706D01*
X157190346Y-83518093D01*
X157190349Y-83518101D01*
X157299799Y-83830890D01*
X157443582Y-84129458D01*
X157443584Y-84129461D01*
X157619896Y-84410060D01*
X157826516Y-84669153D01*
X158060847Y-84903484D01*
X158319940Y-85110104D01*
X158600539Y-85286416D01*
X158899113Y-85430202D01*
X159121679Y-85508081D01*
X159211898Y-85539650D01*
X159211906Y-85539653D01*
X159211909Y-85539653D01*
X159211910Y-85539654D01*
X159534994Y-85613396D01*
X159535003Y-85613397D01*
X159535008Y-85613398D01*
X159754533Y-85638132D01*
X159864297Y-85650499D01*
X159864300Y-85650500D01*
X159864303Y-85650500D01*
X160195700Y-85650500D01*
X160195701Y-85650499D01*
X160363996Y-85631537D01*
X160524991Y-85613398D01*
X160524994Y-85613397D01*
X160525006Y-85613396D01*
X160848090Y-85539654D01*
X161160887Y-85430202D01*
X161459461Y-85286416D01*
X161740060Y-85110104D01*
X161999153Y-84903484D01*
X162233484Y-84669153D01*
X162440104Y-84410060D01*
X162616416Y-84129461D01*
X162760202Y-83830887D01*
X162869654Y-83518090D01*
X162943396Y-83195006D01*
X162943399Y-83194984D01*
X162967306Y-82982794D01*
X162980500Y-82865697D01*
X162980500Y-82534303D01*
X162963126Y-82380101D01*
X162943398Y-82205008D01*
X162943397Y-82205003D01*
X162943396Y-82204994D01*
X162869654Y-81881910D01*
X162760202Y-81569113D01*
X162639701Y-81318890D01*
X162616417Y-81270541D01*
X162616391Y-81270500D01*
X162440104Y-80989940D01*
X162233484Y-80730847D01*
X161999153Y-80496516D01*
X161991723Y-80490591D01*
X161911588Y-80426685D01*
X161740060Y-80289896D01*
X161459461Y-80113584D01*
X161459458Y-80113582D01*
X161160890Y-79969799D01*
X160848101Y-79860349D01*
X160848093Y-79860346D01*
X160581507Y-79799500D01*
X160525006Y-79786604D01*
X160525003Y-79786603D01*
X160524991Y-79786601D01*
X160195703Y-79749500D01*
X160195697Y-79749500D01*
X159864303Y-79749500D01*
X159864296Y-79749500D01*
X159535008Y-79786601D01*
X159534994Y-79786604D01*
X159211906Y-79860346D01*
X159211898Y-79860349D01*
X158899109Y-79969799D01*
X158600541Y-80113582D01*
X158319941Y-80289895D01*
X158060847Y-80496515D01*
X157826515Y-80730847D01*
X157619895Y-80989941D01*
X157443582Y-81270541D01*
X157299799Y-81569109D01*
X157190349Y-81881898D01*
X157190346Y-81881906D01*
X157116604Y-82204994D01*
X157116601Y-82205008D01*
X157097720Y-82372590D01*
X157070654Y-82437004D01*
X157013059Y-82476560D01*
X156943222Y-82478697D01*
X156883315Y-82442739D01*
X156852360Y-82380101D01*
X156850500Y-82358707D01*
X156850500Y-76567858D01*
X156850500Y-76567856D01*
X156826614Y-76478712D01*
X156826611Y-76478706D01*
X156780473Y-76398794D01*
X156780470Y-76398791D01*
X156780469Y-76398788D01*
X156715212Y-76333531D01*
X155265861Y-74884180D01*
X155232376Y-74822857D01*
X155237360Y-74753165D01*
X155279232Y-74697232D01*
X155344696Y-74672815D01*
X155353542Y-74672499D01*
X155417895Y-74672499D01*
X155417898Y-74672499D01*
X155447213Y-74666669D01*
X155480457Y-74644457D01*
X155502669Y-74611213D01*
X155508500Y-74581899D01*
X155508499Y-74020542D01*
X155528183Y-73953504D01*
X155544813Y-73932867D01*
X156780470Y-72697212D01*
X156826614Y-72617288D01*
X156830015Y-72604592D01*
X156830018Y-72604588D01*
X156830017Y-72604588D01*
X156833590Y-72591251D01*
X156850500Y-72528144D01*
X156850500Y-72106296D01*
X157127500Y-72106296D01*
X157127500Y-72437703D01*
X157164601Y-72766991D01*
X157164603Y-72767003D01*
X157164604Y-72767006D01*
X157176927Y-72820997D01*
X157238346Y-73090093D01*
X157238349Y-73090101D01*
X157347799Y-73402890D01*
X157491582Y-73701458D01*
X157491584Y-73701461D01*
X157667896Y-73982060D01*
X157874516Y-74241153D01*
X158108847Y-74475484D01*
X158367940Y-74682104D01*
X158648539Y-74858416D01*
X158947113Y-75002202D01*
X159142338Y-75070514D01*
X159259898Y-75111650D01*
X159259906Y-75111653D01*
X159259909Y-75111653D01*
X159259910Y-75111654D01*
X159582994Y-75185396D01*
X159583003Y-75185397D01*
X159583008Y-75185398D01*
X159802533Y-75210132D01*
X159912297Y-75222499D01*
X159912300Y-75222500D01*
X159912303Y-75222500D01*
X160243700Y-75222500D01*
X160243701Y-75222499D01*
X160411996Y-75203537D01*
X160572991Y-75185398D01*
X160572994Y-75185397D01*
X160573006Y-75185396D01*
X160896090Y-75111654D01*
X161208887Y-75002202D01*
X161507461Y-74858416D01*
X161788060Y-74682104D01*
X162047153Y-74475484D01*
X162281484Y-74241153D01*
X162488104Y-73982060D01*
X162664416Y-73701461D01*
X162808202Y-73402887D01*
X162879541Y-73199011D01*
X162908459Y-73116370D01*
X162949180Y-73059594D01*
X163014133Y-73033847D01*
X163082695Y-73047303D01*
X163133097Y-73095691D01*
X163149500Y-73157325D01*
X163149500Y-78296144D01*
X163170362Y-78374000D01*
X163173386Y-78385287D01*
X163173387Y-78385290D01*
X163219527Y-78465208D01*
X163219529Y-78465211D01*
X163219530Y-78465212D01*
X164128220Y-79373902D01*
X164842138Y-80087819D01*
X164875623Y-80149142D01*
X164870639Y-80218834D01*
X164828767Y-80274767D01*
X164763303Y-80299184D01*
X164754459Y-80299500D01*
X164690105Y-80299500D01*
X164690097Y-80299501D01*
X164660787Y-80305330D01*
X164627542Y-80327542D01*
X164605332Y-80360785D01*
X164605329Y-80360791D01*
X164599500Y-80390098D01*
X164599500Y-81609894D01*
X164599501Y-81609902D01*
X164605330Y-81639212D01*
X164627542Y-81672457D01*
X164644219Y-81683599D01*
X164660787Y-81694669D01*
X164660790Y-81694669D01*
X164660791Y-81694670D01*
X164670647Y-81696630D01*
X164690101Y-81700500D01*
X167606456Y-81700499D01*
X167627701Y-81706737D01*
X167649790Y-81708317D01*
X167660573Y-81716389D01*
X167673495Y-81720184D01*
X167687995Y-81736917D01*
X167705723Y-81750189D01*
X167710429Y-81762808D01*
X167719250Y-81772987D01*
X167722401Y-81794905D01*
X167730140Y-81815653D01*
X167727277Y-81828813D01*
X167729194Y-81842146D01*
X167719994Y-81862289D01*
X167715288Y-81883926D01*
X167702019Y-81901651D01*
X167700169Y-81905702D01*
X167694137Y-81912180D01*
X167643136Y-81963181D01*
X167581813Y-81996666D01*
X167555455Y-81999500D01*
X164690105Y-81999500D01*
X164690097Y-81999501D01*
X164660787Y-82005330D01*
X164627542Y-82027542D01*
X164605332Y-82060785D01*
X164605329Y-82060791D01*
X164599500Y-82090098D01*
X164599500Y-83309894D01*
X164599501Y-83309902D01*
X164605330Y-83339212D01*
X164627542Y-83372457D01*
X164644219Y-83383599D01*
X164660787Y-83394669D01*
X164660790Y-83394669D01*
X164660791Y-83394670D01*
X164670647Y-83396630D01*
X164690101Y-83400500D01*
X167606456Y-83400499D01*
X167627701Y-83406737D01*
X167649790Y-83408317D01*
X167660573Y-83416389D01*
X167673495Y-83420184D01*
X167687995Y-83436917D01*
X167705723Y-83450189D01*
X167710429Y-83462808D01*
X167719250Y-83472987D01*
X167722401Y-83494905D01*
X167730140Y-83515653D01*
X167727277Y-83528813D01*
X167729194Y-83542146D01*
X167719994Y-83562289D01*
X167715288Y-83583926D01*
X167702019Y-83601651D01*
X167700169Y-83605702D01*
X167694137Y-83612180D01*
X167643136Y-83663181D01*
X167581813Y-83696666D01*
X167555455Y-83699500D01*
X164690105Y-83699500D01*
X164690097Y-83699501D01*
X164660787Y-83705330D01*
X164627542Y-83727542D01*
X164605332Y-83760785D01*
X164605329Y-83760791D01*
X164599500Y-83790098D01*
X164599500Y-85009894D01*
X164599501Y-85009902D01*
X164605330Y-85039212D01*
X164627542Y-85072457D01*
X164644219Y-85083599D01*
X164660787Y-85094669D01*
X164660790Y-85094669D01*
X164660791Y-85094670D01*
X164670647Y-85096630D01*
X164690101Y-85100500D01*
X167809898Y-85100499D01*
X167839213Y-85094669D01*
X167872457Y-85072457D01*
X167894669Y-85039213D01*
X167900500Y-85009899D01*
X167900499Y-84448542D01*
X167920183Y-84381504D01*
X167936813Y-84360867D01*
X169280469Y-83017212D01*
X169326614Y-82937288D01*
X169339201Y-82890312D01*
X169350500Y-82848144D01*
X169350500Y-76627856D01*
X169326614Y-76538712D01*
X169280470Y-76458788D01*
X167705862Y-74884180D01*
X167672377Y-74822857D01*
X167677361Y-74753165D01*
X167719233Y-74697232D01*
X167784697Y-74672815D01*
X167793543Y-74672499D01*
X167857895Y-74672499D01*
X167857898Y-74672499D01*
X167887213Y-74666669D01*
X167920457Y-74644457D01*
X167942669Y-74611213D01*
X167948500Y-74581899D01*
X167948500Y-74446500D01*
X167968185Y-74379461D01*
X168020989Y-74333706D01*
X168072500Y-74322500D01*
X168394142Y-74322500D01*
X168394144Y-74322500D01*
X168483288Y-74298614D01*
X168511264Y-74282462D01*
X168563212Y-74252470D01*
X169455470Y-73360212D01*
X169501614Y-73280288D01*
X169513424Y-73236212D01*
X169525500Y-73191144D01*
X169525500Y-64500833D01*
X169545185Y-64433794D01*
X169561819Y-64413152D01*
X169627206Y-64347765D01*
X169672585Y-64244991D01*
X169675500Y-64219865D01*
X169675499Y-63580136D01*
X169675497Y-63580117D01*
X169672586Y-63555012D01*
X169672585Y-63555010D01*
X169672585Y-63555009D01*
X169627206Y-63452235D01*
X169547765Y-63372794D01*
X169500499Y-63351924D01*
X169474412Y-63340405D01*
X169421037Y-63295318D01*
X169400510Y-63228532D01*
X169400500Y-63226971D01*
X169400500Y-62630516D01*
X169416475Y-62576108D01*
X169414996Y-62575496D01*
X169419669Y-62564213D01*
X169420895Y-62558050D01*
X169425500Y-62534899D01*
X169425499Y-61465102D01*
X169419669Y-61435787D01*
X169401283Y-61408269D01*
X169397457Y-61402542D01*
X169364214Y-61380332D01*
X169364215Y-61380332D01*
X169364213Y-61380331D01*
X169364211Y-61380330D01*
X169364208Y-61380329D01*
X169334901Y-61374500D01*
X168765105Y-61374500D01*
X168765097Y-61374501D01*
X168735787Y-61380330D01*
X168702542Y-61402542D01*
X168680332Y-61435785D01*
X168680329Y-61435791D01*
X168674500Y-61465098D01*
X168674500Y-62534894D01*
X168674501Y-62534902D01*
X168680329Y-62564209D01*
X168685004Y-62575494D01*
X168683181Y-62576249D01*
X168699480Y-62628299D01*
X168699500Y-62630515D01*
X168699500Y-63478832D01*
X168688935Y-63528917D01*
X168677415Y-63555006D01*
X168677415Y-63555008D01*
X168674500Y-63580131D01*
X168674500Y-64219856D01*
X168674502Y-64219882D01*
X168677413Y-64244987D01*
X168677415Y-64244991D01*
X168722793Y-64347764D01*
X168788181Y-64413152D01*
X168821666Y-64474475D01*
X168824500Y-64500833D01*
X168824500Y-72948456D01*
X168804815Y-73015495D01*
X168788181Y-73036137D01*
X168239137Y-73585181D01*
X168212209Y-73599884D01*
X168186391Y-73616477D01*
X168180190Y-73617368D01*
X168177814Y-73618666D01*
X168151456Y-73621500D01*
X168072499Y-73621500D01*
X168005460Y-73601815D01*
X167959705Y-73549011D01*
X167948499Y-73497500D01*
X167948499Y-73362105D01*
X167948498Y-73362097D01*
X167942669Y-73332787D01*
X167920457Y-73299542D01*
X167895496Y-73282865D01*
X167887213Y-73277331D01*
X167887211Y-73277330D01*
X167887208Y-73277329D01*
X167857901Y-73271500D01*
X167857899Y-73271500D01*
X164941543Y-73271500D01*
X164920297Y-73265261D01*
X164898209Y-73263682D01*
X164887425Y-73255609D01*
X164874504Y-73251815D01*
X164860004Y-73235081D01*
X164842276Y-73221810D01*
X164837568Y-73209189D01*
X164828749Y-73199011D01*
X164825597Y-73177093D01*
X164817859Y-73156346D01*
X164820721Y-73143185D01*
X164818805Y-73129853D01*
X164828004Y-73109709D01*
X164832711Y-73088073D01*
X164845979Y-73070347D01*
X164847830Y-73066297D01*
X164853862Y-73059819D01*
X164904863Y-73008818D01*
X164966186Y-72975333D01*
X164992544Y-72972499D01*
X167857895Y-72972499D01*
X167857898Y-72972499D01*
X167887213Y-72966669D01*
X167920457Y-72944457D01*
X167942669Y-72911213D01*
X167948500Y-72881899D01*
X167948499Y-71662102D01*
X167942669Y-71632787D01*
X167932435Y-71617470D01*
X167920457Y-71599542D01*
X167887214Y-71577332D01*
X167887215Y-71577332D01*
X167887213Y-71577331D01*
X167887211Y-71577330D01*
X167887208Y-71577329D01*
X167857901Y-71571500D01*
X167857899Y-71571500D01*
X164992544Y-71571500D01*
X164963103Y-71562855D01*
X164933117Y-71556332D01*
X164928101Y-71552577D01*
X164925505Y-71551815D01*
X164904863Y-71535181D01*
X164853862Y-71484180D01*
X164820377Y-71422857D01*
X164825361Y-71353165D01*
X164867233Y-71297232D01*
X164932697Y-71272815D01*
X164941543Y-71272499D01*
X167857895Y-71272499D01*
X167857898Y-71272499D01*
X167887213Y-71266669D01*
X167920457Y-71244457D01*
X167942669Y-71211213D01*
X167948500Y-71181899D01*
X167948499Y-69962102D01*
X167942669Y-69932787D01*
X167942668Y-69932785D01*
X167920457Y-69899542D01*
X167887214Y-69877332D01*
X167887215Y-69877332D01*
X167887213Y-69877331D01*
X167887211Y-69877330D01*
X167887208Y-69877329D01*
X167857901Y-69871500D01*
X167857899Y-69871500D01*
X166418543Y-69871500D01*
X166351504Y-69851815D01*
X166330862Y-69835181D01*
X163408455Y-66912773D01*
X163376360Y-66857182D01*
X163373207Y-66845413D01*
X163320480Y-66754087D01*
X163245913Y-66679520D01*
X163165142Y-66632887D01*
X163154589Y-66626794D01*
X163154588Y-66626793D01*
X163154587Y-66626793D01*
X163142809Y-66623637D01*
X163087226Y-66591544D01*
X162215213Y-65719531D01*
X162215208Y-65719527D01*
X162135290Y-65673387D01*
X162135289Y-65673386D01*
X162135288Y-65673386D01*
X162046144Y-65649500D01*
X159046144Y-65649500D01*
X158953856Y-65649500D01*
X158864712Y-65673386D01*
X158864709Y-65673387D01*
X158784791Y-65719527D01*
X158784786Y-65719531D01*
X158219529Y-66284788D01*
X158195383Y-66326613D01*
X158195381Y-66326615D01*
X158173388Y-66364706D01*
X158173387Y-66364709D01*
X158173386Y-66364711D01*
X158173386Y-66364712D01*
X158149500Y-66453856D01*
X158149500Y-67546145D01*
X158170283Y-67623711D01*
X158173383Y-67635282D01*
X158173387Y-67635291D01*
X158219527Y-67715208D01*
X158219529Y-67715211D01*
X158219530Y-67715212D01*
X158784788Y-68280470D01*
X158784789Y-68280471D01*
X158784791Y-68280472D01*
X158824750Y-68303542D01*
X158864712Y-68326614D01*
X158953856Y-68350500D01*
X159046144Y-68350500D01*
X160303456Y-68350500D01*
X160370495Y-68370185D01*
X160391137Y-68386819D01*
X161343770Y-69339452D01*
X161377255Y-69400775D01*
X161372271Y-69470467D01*
X161330399Y-69526400D01*
X161264935Y-69550817D01*
X161212393Y-69542308D01*
X161212170Y-69542947D01*
X161208888Y-69541798D01*
X161208887Y-69541798D01*
X161066338Y-69491918D01*
X160896101Y-69432349D01*
X160896093Y-69432346D01*
X160653777Y-69377039D01*
X160573006Y-69358604D01*
X160573003Y-69358603D01*
X160572991Y-69358601D01*
X160243703Y-69321500D01*
X160243697Y-69321500D01*
X159912303Y-69321500D01*
X159912296Y-69321500D01*
X159583008Y-69358601D01*
X159582994Y-69358604D01*
X159259906Y-69432346D01*
X159259898Y-69432349D01*
X158947109Y-69541799D01*
X158648541Y-69685582D01*
X158367941Y-69861895D01*
X158108847Y-70068515D01*
X157874515Y-70302847D01*
X157667895Y-70561941D01*
X157491582Y-70842541D01*
X157347799Y-71141109D01*
X157238349Y-71453898D01*
X157238346Y-71453906D01*
X157164604Y-71776994D01*
X157164601Y-71777008D01*
X157127500Y-72106296D01*
X156850500Y-72106296D01*
X156850500Y-67696543D01*
X156870185Y-67629504D01*
X156886815Y-67608866D01*
X157087227Y-67408453D01*
X157142817Y-67376360D01*
X157154587Y-67373207D01*
X157245913Y-67320480D01*
X157320480Y-67245913D01*
X157373207Y-67154587D01*
X157400500Y-67052727D01*
X157400500Y-66947273D01*
X157373207Y-66845413D01*
X157320480Y-66754087D01*
X157245913Y-66679520D01*
X157165142Y-66632887D01*
X157154589Y-66626794D01*
X157154588Y-66626793D01*
X157154587Y-66626793D01*
X157052727Y-66599500D01*
X156947273Y-66599500D01*
X156845413Y-66626793D01*
X156845410Y-66626794D01*
X156754085Y-66679521D01*
X156679522Y-66754084D01*
X156626792Y-66845413D01*
X156626790Y-66845417D01*
X156623636Y-66857190D01*
X156591544Y-66912772D01*
X156219531Y-67284786D01*
X156219529Y-67284788D01*
X156199335Y-67319766D01*
X156199333Y-67319770D01*
X156195382Y-67326614D01*
X156173386Y-67364712D01*
X156160667Y-67412177D01*
X156157446Y-67419877D01*
X156140477Y-67440778D01*
X156126466Y-67463766D01*
X156118788Y-67467495D01*
X156113409Y-67474122D01*
X156087834Y-67482531D01*
X156063619Y-67494295D01*
X156055144Y-67493281D01*
X156047036Y-67495948D01*
X156020974Y-67489196D01*
X155994243Y-67486000D01*
X155985315Y-67479957D01*
X155979399Y-67478425D01*
X155973296Y-67471822D01*
X155955375Y-67459693D01*
X155408455Y-66912773D01*
X155376360Y-66857182D01*
X155373207Y-66845413D01*
X155320480Y-66754087D01*
X155245913Y-66679520D01*
X155165142Y-66632887D01*
X155154589Y-66626794D01*
X155154588Y-66626793D01*
X155154587Y-66626793D01*
X155052727Y-66599500D01*
X154947273Y-66599500D01*
X154845413Y-66626793D01*
X154845410Y-66626794D01*
X154754085Y-66679521D01*
X154679521Y-66754085D01*
X154626794Y-66845410D01*
X154626793Y-66845413D01*
X154599500Y-66947273D01*
X154599500Y-67052727D01*
X154626793Y-67154587D01*
X154679520Y-67245913D01*
X154754087Y-67320480D01*
X154845413Y-67373207D01*
X154857183Y-67376360D01*
X154912773Y-67408455D01*
X155372181Y-67867863D01*
X155405666Y-67929186D01*
X155408500Y-67955544D01*
X155408500Y-69747500D01*
X155388815Y-69814539D01*
X155336011Y-69860294D01*
X155284500Y-69871500D01*
X153918544Y-69871500D01*
X153851505Y-69851815D01*
X153830863Y-69835181D01*
X152408455Y-68412773D01*
X152376360Y-68357182D01*
X152373207Y-68345413D01*
X152320480Y-68254087D01*
X152245913Y-68179520D01*
X152154587Y-68126793D01*
X152052727Y-68099500D01*
X151947273Y-68099500D01*
X151845413Y-68126793D01*
X151845410Y-68126794D01*
X151754085Y-68179521D01*
X151679521Y-68254085D01*
X151626794Y-68345410D01*
X151626793Y-68345413D01*
X151599500Y-68447273D01*
X151599500Y-68552727D01*
X151626793Y-68654587D01*
X151679520Y-68745913D01*
X151754087Y-68820480D01*
X151845413Y-68873207D01*
X151857183Y-68876360D01*
X151912773Y-68908455D01*
X152664137Y-69659819D01*
X152697622Y-69721142D01*
X152692638Y-69790834D01*
X152650766Y-69846767D01*
X152585302Y-69871184D01*
X152576456Y-69871500D01*
X152298105Y-69871500D01*
X152298097Y-69871501D01*
X152268787Y-69877330D01*
X152235542Y-69899542D01*
X152213332Y-69932785D01*
X152213329Y-69932791D01*
X152207500Y-69962098D01*
X152207500Y-70725456D01*
X152187815Y-70792495D01*
X152171181Y-70813137D01*
X150219531Y-72764786D01*
X150219529Y-72764789D01*
X150193592Y-72809713D01*
X150193591Y-72809716D01*
X150187078Y-72820997D01*
X150173386Y-72844712D01*
X150149500Y-72933856D01*
X148700500Y-72933856D01*
X148700500Y-70134412D01*
X148720185Y-70067373D01*
X148736819Y-70046731D01*
X153546731Y-65236819D01*
X153608054Y-65203334D01*
X153634412Y-65200500D01*
X163489880Y-65200500D01*
X163489882Y-65200500D01*
X163563574Y-65169976D01*
X168671732Y-60061816D01*
X168733053Y-60028333D01*
X168759411Y-60025499D01*
X168765096Y-60025499D01*
X168765101Y-60025500D01*
X169142742Y-60025499D01*
X169209780Y-60045184D01*
X169255535Y-60097988D01*
X169258923Y-60106165D01*
X169281646Y-60167087D01*
X169281649Y-60167093D01*
X169367809Y-60282187D01*
X169367812Y-60282190D01*
X169482906Y-60368350D01*
X169482913Y-60368354D01*
X169617620Y-60418596D01*
X169617627Y-60418598D01*
X169677155Y-60424999D01*
X169677172Y-60425000D01*
X169750000Y-60425000D01*
X169750000Y-58375000D01*
X169677155Y-58375000D01*
X169617627Y-58381401D01*
X169617620Y-58381403D01*
X169482913Y-58431645D01*
X169482906Y-58431649D01*
X169367812Y-58517809D01*
X169367809Y-58517812D01*
X169281649Y-58632906D01*
X169281645Y-58632913D01*
X169258924Y-58693833D01*
X169217053Y-58749767D01*
X169151588Y-58774184D01*
X169142742Y-58774500D01*
X168765105Y-58774500D01*
X168765097Y-58774501D01*
X168735787Y-58780330D01*
X168702542Y-58802542D01*
X168680332Y-58835785D01*
X168680329Y-58835791D01*
X168674500Y-58865098D01*
X168674500Y-59440587D01*
X168654815Y-59507626D01*
X168638181Y-59528268D01*
X163403269Y-64763181D01*
X163341946Y-64796666D01*
X163315588Y-64799500D01*
X160343901Y-64799500D01*
X160276862Y-64779815D01*
X160231107Y-64727011D01*
X160221163Y-64657853D01*
X160250188Y-64594297D01*
X160293815Y-64562066D01*
X160324975Y-64548306D01*
X160372765Y-64527206D01*
X160452206Y-64447765D01*
X160497585Y-64344991D01*
X160500500Y-64319865D01*
X160500499Y-63834410D01*
X160520183Y-63767372D01*
X160536813Y-63746735D01*
X161046731Y-63236819D01*
X161108054Y-63203334D01*
X161134412Y-63200500D01*
X161750501Y-63200500D01*
X161817540Y-63220185D01*
X161863295Y-63272989D01*
X161874501Y-63324500D01*
X161874501Y-63409902D01*
X161880330Y-63439212D01*
X161902542Y-63472457D01*
X161912084Y-63478832D01*
X161935787Y-63494669D01*
X161935790Y-63494669D01*
X161935791Y-63494670D01*
X161945647Y-63496630D01*
X161965101Y-63500500D01*
X163034898Y-63500499D01*
X163064213Y-63494669D01*
X163097457Y-63472457D01*
X163119669Y-63439213D01*
X163125500Y-63409899D01*
X163125499Y-62709410D01*
X163145183Y-62642372D01*
X163161813Y-62621735D01*
X164669976Y-61113574D01*
X164700500Y-61039882D01*
X164700500Y-60960118D01*
X164700500Y-59049499D01*
X164720185Y-58982460D01*
X164772989Y-58936705D01*
X164824500Y-58925499D01*
X165284895Y-58925499D01*
X165284898Y-58925499D01*
X165314213Y-58919669D01*
X165347457Y-58897457D01*
X165369669Y-58864213D01*
X165375500Y-58834899D01*
X165375499Y-57321543D01*
X165395184Y-57254505D01*
X165411818Y-57233863D01*
X165631182Y-57014499D01*
X165906469Y-56739213D01*
X165952614Y-56659288D01*
X165956010Y-56646614D01*
X165976500Y-56570144D01*
X165976500Y-51777856D01*
X165952614Y-51688712D01*
X165935337Y-51658788D01*
X165935336Y-51658786D01*
X165935336Y-51658785D01*
X165906472Y-51608791D01*
X165906468Y-51608786D01*
X165208863Y-50911181D01*
X165175378Y-50849858D01*
X165180362Y-50780166D01*
X165222234Y-50724233D01*
X165287698Y-50699816D01*
X165296544Y-50699500D01*
X169504291Y-50699500D01*
X169528279Y-50706543D01*
G37*
%TD.AperFunction*%
%TA.AperFunction,Conductor*%
G36*
X137315167Y-79301891D02*
G01*
X137318891Y-79304285D01*
X137319983Y-79305014D01*
X137319984Y-79305016D01*
X137373901Y-79341042D01*
X137373903Y-79341042D01*
X137373904Y-79341043D01*
X137421445Y-79350500D01*
X137525500Y-79350500D01*
X137592539Y-79370185D01*
X137638294Y-79422989D01*
X137649500Y-79474500D01*
X137649500Y-79578552D01*
X137649500Y-79578554D01*
X137649499Y-79578554D01*
X137658956Y-79626095D01*
X137658957Y-79626097D01*
X137658957Y-79626098D01*
X137658958Y-79626099D01*
X137690964Y-79674000D01*
X137695715Y-79681110D01*
X137716592Y-79747788D01*
X137698107Y-79815168D01*
X137695715Y-79818890D01*
X137658957Y-79873902D01*
X137658956Y-79873904D01*
X137649500Y-79921445D01*
X137649500Y-79921448D01*
X137649500Y-80078552D01*
X137649500Y-80078554D01*
X137649499Y-80078554D01*
X137658956Y-80126095D01*
X137658957Y-80126097D01*
X137695715Y-80181110D01*
X137716592Y-80247788D01*
X137698107Y-80315168D01*
X137695715Y-80318890D01*
X137658957Y-80373902D01*
X137658956Y-80373904D01*
X137649500Y-80421445D01*
X137649500Y-80421448D01*
X137649500Y-80578552D01*
X137649500Y-80578554D01*
X137649499Y-80578554D01*
X137658956Y-80626095D01*
X137658957Y-80626097D01*
X137658957Y-80626098D01*
X137658958Y-80626099D01*
X137688817Y-80670787D01*
X137695715Y-80681110D01*
X137716592Y-80747788D01*
X137698107Y-80815168D01*
X137695715Y-80818890D01*
X137658957Y-80873902D01*
X137658956Y-80873904D01*
X137649500Y-80921445D01*
X137649500Y-80921448D01*
X137649500Y-81078552D01*
X137649500Y-81078554D01*
X137649499Y-81078554D01*
X137658956Y-81126095D01*
X137658957Y-81126097D01*
X137695715Y-81181110D01*
X137716592Y-81247788D01*
X137698107Y-81315168D01*
X137695715Y-81318890D01*
X137658957Y-81373902D01*
X137658956Y-81373904D01*
X137649500Y-81421445D01*
X137649500Y-81421448D01*
X137649500Y-81578552D01*
X137649500Y-81578554D01*
X137649499Y-81578554D01*
X137658956Y-81626095D01*
X137658957Y-81626097D01*
X137658957Y-81626098D01*
X137658958Y-81626099D01*
X137668482Y-81640353D01*
X137695715Y-81681110D01*
X137716592Y-81747788D01*
X137698107Y-81815168D01*
X137695715Y-81818890D01*
X137658957Y-81873902D01*
X137658956Y-81873904D01*
X137649500Y-81921445D01*
X137649500Y-81921448D01*
X137649500Y-82078552D01*
X137649500Y-82078554D01*
X137649499Y-82078554D01*
X137658956Y-82126095D01*
X137658957Y-82126097D01*
X137658957Y-82126098D01*
X137658958Y-82126099D01*
X137662022Y-82130684D01*
X137695715Y-82181110D01*
X137716592Y-82247788D01*
X137698107Y-82315168D01*
X137695715Y-82318890D01*
X137658957Y-82373902D01*
X137658956Y-82373904D01*
X137649500Y-82421445D01*
X137649500Y-82421448D01*
X137649500Y-82578552D01*
X137649500Y-82578554D01*
X137649499Y-82578554D01*
X137658956Y-82626095D01*
X137658957Y-82626097D01*
X137658957Y-82626098D01*
X137658958Y-82626099D01*
X137688275Y-82669975D01*
X137695715Y-82681110D01*
X137716592Y-82747788D01*
X137698107Y-82815168D01*
X137695715Y-82818890D01*
X137658957Y-82873902D01*
X137658956Y-82873904D01*
X137649500Y-82921445D01*
X137649500Y-83025500D01*
X137629815Y-83092539D01*
X137577011Y-83138294D01*
X137525500Y-83149500D01*
X137421446Y-83149500D01*
X137373904Y-83158956D01*
X137373902Y-83158957D01*
X137318890Y-83195715D01*
X137252212Y-83216592D01*
X137184832Y-83198107D01*
X137181110Y-83195715D01*
X137158737Y-83180766D01*
X137126099Y-83158958D01*
X137126098Y-83158957D01*
X137126097Y-83158957D01*
X137126095Y-83158956D01*
X137078554Y-83149500D01*
X137078552Y-83149500D01*
X136921448Y-83149500D01*
X136921446Y-83149500D01*
X136873904Y-83158956D01*
X136873902Y-83158957D01*
X136818890Y-83195715D01*
X136752212Y-83216592D01*
X136684832Y-83198107D01*
X136681110Y-83195715D01*
X136658737Y-83180766D01*
X136626099Y-83158958D01*
X136626098Y-83158957D01*
X136626097Y-83158957D01*
X136626095Y-83158956D01*
X136578554Y-83149500D01*
X136578552Y-83149500D01*
X136421448Y-83149500D01*
X136421446Y-83149500D01*
X136373904Y-83158956D01*
X136373902Y-83158957D01*
X136318890Y-83195715D01*
X136252212Y-83216592D01*
X136184832Y-83198107D01*
X136181110Y-83195715D01*
X136158737Y-83180766D01*
X136126099Y-83158958D01*
X136126098Y-83158957D01*
X136126097Y-83158957D01*
X136126095Y-83158956D01*
X136078554Y-83149500D01*
X136078552Y-83149500D01*
X135921448Y-83149500D01*
X135921446Y-83149500D01*
X135873904Y-83158956D01*
X135873902Y-83158957D01*
X135818890Y-83195715D01*
X135752212Y-83216592D01*
X135684832Y-83198107D01*
X135681110Y-83195715D01*
X135658737Y-83180766D01*
X135626099Y-83158958D01*
X135626098Y-83158957D01*
X135626097Y-83158957D01*
X135626095Y-83158956D01*
X135578554Y-83149500D01*
X135578552Y-83149500D01*
X135421448Y-83149500D01*
X135421446Y-83149500D01*
X135373904Y-83158956D01*
X135373902Y-83158957D01*
X135318890Y-83195715D01*
X135252212Y-83216592D01*
X135184832Y-83198107D01*
X135181110Y-83195715D01*
X135158737Y-83180766D01*
X135126099Y-83158958D01*
X135126098Y-83158957D01*
X135126097Y-83158957D01*
X135126095Y-83158956D01*
X135078554Y-83149500D01*
X135078552Y-83149500D01*
X134921448Y-83149500D01*
X134921446Y-83149500D01*
X134873904Y-83158956D01*
X134873902Y-83158957D01*
X134818890Y-83195715D01*
X134752212Y-83216592D01*
X134684832Y-83198107D01*
X134681110Y-83195715D01*
X134658737Y-83180766D01*
X134626099Y-83158958D01*
X134626098Y-83158957D01*
X134626097Y-83158957D01*
X134626095Y-83158956D01*
X134578554Y-83149500D01*
X134578552Y-83149500D01*
X134421448Y-83149500D01*
X134421446Y-83149500D01*
X134373904Y-83158956D01*
X134373902Y-83158957D01*
X134318890Y-83195715D01*
X134252212Y-83216592D01*
X134184832Y-83198107D01*
X134181110Y-83195715D01*
X134158737Y-83180766D01*
X134126099Y-83158958D01*
X134126098Y-83158957D01*
X134126097Y-83158957D01*
X134126095Y-83158956D01*
X134078554Y-83149500D01*
X134078552Y-83149500D01*
X133974500Y-83149500D01*
X133907461Y-83129815D01*
X133861706Y-83077011D01*
X133850500Y-83025500D01*
X133850500Y-82921445D01*
X133841043Y-82873904D01*
X133841042Y-82873902D01*
X133841042Y-82873901D01*
X133805016Y-82819984D01*
X133805014Y-82819983D01*
X133804285Y-82818891D01*
X133783407Y-82752213D01*
X133801891Y-82684833D01*
X133804285Y-82681109D01*
X133805014Y-82680016D01*
X133805016Y-82680016D01*
X133841042Y-82626099D01*
X133841043Y-82626095D01*
X133850500Y-82578554D01*
X133850500Y-82421445D01*
X133841043Y-82373904D01*
X133841042Y-82373902D01*
X133841042Y-82373901D01*
X133805016Y-82319984D01*
X133805014Y-82319983D01*
X133804285Y-82318891D01*
X133798311Y-82299813D01*
X133787806Y-82282807D01*
X133788085Y-82267153D01*
X133783407Y-82252213D01*
X133788695Y-82232934D01*
X133789052Y-82212948D01*
X133801068Y-82187830D01*
X133801891Y-82184833D01*
X133804284Y-82181110D01*
X133805014Y-82180017D01*
X133805016Y-82180016D01*
X133837102Y-82131995D01*
X133890711Y-82087193D01*
X133892751Y-82086326D01*
X133971176Y-82053842D01*
X134088679Y-81963679D01*
X134178843Y-81846175D01*
X134235521Y-81709342D01*
X134235521Y-81709340D01*
X134246626Y-81625000D01*
X133436500Y-81625000D01*
X133427814Y-81622449D01*
X133418853Y-81623738D01*
X133394812Y-81612759D01*
X133369461Y-81605315D01*
X133363533Y-81598474D01*
X133355297Y-81594713D01*
X133341007Y-81572478D01*
X133323706Y-81552511D01*
X133321418Y-81541996D01*
X133317523Y-81535935D01*
X133312500Y-81501000D01*
X133312500Y-81499000D01*
X133332185Y-81431961D01*
X133384989Y-81386206D01*
X133436500Y-81375000D01*
X134246626Y-81375000D01*
X134235521Y-81290659D01*
X134235521Y-81290657D01*
X134178843Y-81153824D01*
X134088679Y-81036320D01*
X133971175Y-80946156D01*
X133892749Y-80913671D01*
X133878022Y-80901803D01*
X133860685Y-80894257D01*
X133839783Y-80870988D01*
X133838346Y-80869830D01*
X133837100Y-80868001D01*
X133804285Y-80818890D01*
X133783407Y-80752212D01*
X133801892Y-80684832D01*
X133804285Y-80681107D01*
X133805012Y-80680018D01*
X133805016Y-80680016D01*
X133841042Y-80626099D01*
X133841043Y-80626095D01*
X133850500Y-80578554D01*
X133850500Y-80421445D01*
X133841043Y-80373904D01*
X133841042Y-80373902D01*
X133841042Y-80373901D01*
X133805016Y-80319984D01*
X133805014Y-80319983D01*
X133804285Y-80318891D01*
X133783407Y-80252213D01*
X133801891Y-80184833D01*
X133804285Y-80181109D01*
X133805014Y-80180016D01*
X133805016Y-80180016D01*
X133841042Y-80126099D01*
X133841043Y-80126095D01*
X133850500Y-80078554D01*
X133850500Y-79921445D01*
X133841043Y-79873904D01*
X133841042Y-79873902D01*
X133841042Y-79873901D01*
X133805016Y-79819984D01*
X133805014Y-79819983D01*
X133804285Y-79818891D01*
X133783407Y-79752213D01*
X133801891Y-79684833D01*
X133804285Y-79681109D01*
X133805014Y-79680016D01*
X133805016Y-79680016D01*
X133841042Y-79626099D01*
X133844849Y-79606961D01*
X133850500Y-79578554D01*
X133850500Y-79474500D01*
X133870185Y-79407461D01*
X133922989Y-79361706D01*
X133974500Y-79350500D01*
X134078554Y-79350500D01*
X134126095Y-79341043D01*
X134126095Y-79341042D01*
X134126099Y-79341042D01*
X134180016Y-79305016D01*
X134180016Y-79305014D01*
X134181109Y-79304285D01*
X134247787Y-79283407D01*
X134315167Y-79301891D01*
X134318891Y-79304285D01*
X134319983Y-79305014D01*
X134319984Y-79305016D01*
X134373901Y-79341042D01*
X134373903Y-79341042D01*
X134373904Y-79341043D01*
X134421445Y-79350500D01*
X134421448Y-79350500D01*
X134578554Y-79350500D01*
X134626095Y-79341043D01*
X134626095Y-79341042D01*
X134626099Y-79341042D01*
X134680016Y-79305016D01*
X134680016Y-79305014D01*
X134681109Y-79304285D01*
X134747787Y-79283407D01*
X134815167Y-79301891D01*
X134818891Y-79304285D01*
X134819983Y-79305014D01*
X134819984Y-79305016D01*
X134873901Y-79341042D01*
X134873903Y-79341042D01*
X134873904Y-79341043D01*
X134921445Y-79350500D01*
X134921448Y-79350500D01*
X135078554Y-79350500D01*
X135126095Y-79341043D01*
X135126095Y-79341042D01*
X135126099Y-79341042D01*
X135180016Y-79305016D01*
X135180016Y-79305014D01*
X135181109Y-79304285D01*
X135247787Y-79283407D01*
X135315167Y-79301891D01*
X135318891Y-79304285D01*
X135319983Y-79305014D01*
X135319984Y-79305016D01*
X135373901Y-79341042D01*
X135373903Y-79341042D01*
X135373904Y-79341043D01*
X135421445Y-79350500D01*
X135421448Y-79350500D01*
X135578554Y-79350500D01*
X135626095Y-79341043D01*
X135626095Y-79341042D01*
X135626099Y-79341042D01*
X135680016Y-79305016D01*
X135680016Y-79305014D01*
X135681109Y-79304285D01*
X135747787Y-79283407D01*
X135815167Y-79301891D01*
X135818891Y-79304285D01*
X135819983Y-79305014D01*
X135819984Y-79305016D01*
X135873901Y-79341042D01*
X135873903Y-79341042D01*
X135873904Y-79341043D01*
X135921445Y-79350500D01*
X135921448Y-79350500D01*
X136078554Y-79350500D01*
X136126095Y-79341043D01*
X136126095Y-79341042D01*
X136126099Y-79341042D01*
X136180016Y-79305016D01*
X136180016Y-79305014D01*
X136181109Y-79304285D01*
X136247787Y-79283407D01*
X136315167Y-79301891D01*
X136318891Y-79304285D01*
X136319983Y-79305014D01*
X136319984Y-79305016D01*
X136373901Y-79341042D01*
X136373903Y-79341042D01*
X136373904Y-79341043D01*
X136421445Y-79350500D01*
X136421448Y-79350500D01*
X136578554Y-79350500D01*
X136626095Y-79341043D01*
X136626095Y-79341042D01*
X136626099Y-79341042D01*
X136680016Y-79305016D01*
X136680016Y-79305014D01*
X136681109Y-79304285D01*
X136747787Y-79283407D01*
X136815167Y-79301891D01*
X136818891Y-79304285D01*
X136819983Y-79305014D01*
X136819984Y-79305016D01*
X136873901Y-79341042D01*
X136873903Y-79341042D01*
X136873904Y-79341043D01*
X136921445Y-79350500D01*
X136921448Y-79350500D01*
X137078554Y-79350500D01*
X137126095Y-79341043D01*
X137126095Y-79341042D01*
X137126099Y-79341042D01*
X137180016Y-79305016D01*
X137180016Y-79305014D01*
X137181109Y-79304285D01*
X137247787Y-79283407D01*
X137315167Y-79301891D01*
G37*
%TD.AperFunction*%
%TA.AperFunction,Conductor*%
G36*
X159028279Y-50706543D02*
G01*
X159053104Y-50709512D01*
X159061226Y-50716218D01*
X159071330Y-50719185D01*
X159087698Y-50738075D01*
X159106982Y-50753997D01*
X159110189Y-50764031D01*
X159117085Y-50771989D01*
X159120642Y-50796732D01*
X159128256Y-50820549D01*
X159126354Y-50836454D01*
X159127029Y-50841147D01*
X159124069Y-50855578D01*
X159099500Y-50947273D01*
X159099500Y-51052727D01*
X159110694Y-51094502D01*
X159126793Y-51154586D01*
X159126794Y-51154589D01*
X159179521Y-51245914D01*
X159259834Y-51326227D01*
X159258149Y-51327911D01*
X159292187Y-51374523D01*
X159299500Y-51416476D01*
X159299500Y-52725500D01*
X159279815Y-52792539D01*
X159227011Y-52838294D01*
X159175500Y-52849500D01*
X157640105Y-52849500D01*
X157640097Y-52849501D01*
X157610787Y-52855330D01*
X157577542Y-52877542D01*
X157555332Y-52910785D01*
X157555329Y-52910791D01*
X157549500Y-52940098D01*
X157549500Y-54059894D01*
X157549501Y-54059902D01*
X157555330Y-54089212D01*
X157577542Y-54122457D01*
X157588090Y-54129504D01*
X157610787Y-54144669D01*
X157610790Y-54144669D01*
X157610791Y-54144670D01*
X157620647Y-54146630D01*
X157640101Y-54150500D01*
X161266588Y-54150499D01*
X161333627Y-54170184D01*
X161379382Y-54222988D01*
X161389326Y-54292146D01*
X161360301Y-54355702D01*
X161354269Y-54362180D01*
X159903267Y-55813181D01*
X159841944Y-55846666D01*
X159815586Y-55849500D01*
X157640105Y-55849500D01*
X157640097Y-55849501D01*
X157610787Y-55855330D01*
X157577542Y-55877542D01*
X157555332Y-55910785D01*
X157555329Y-55910791D01*
X157549500Y-55940098D01*
X157549500Y-57059894D01*
X157549501Y-57059902D01*
X157555330Y-57089212D01*
X157577542Y-57122457D01*
X157594219Y-57133599D01*
X157610787Y-57144669D01*
X157610790Y-57144669D01*
X157610791Y-57144670D01*
X157620647Y-57146630D01*
X157640101Y-57150500D01*
X159675500Y-57150499D01*
X159742539Y-57170184D01*
X159788294Y-57222987D01*
X159799500Y-57274499D01*
X159799500Y-58357907D01*
X159779815Y-58424946D01*
X159727011Y-58470701D01*
X159657853Y-58480645D01*
X159601189Y-58457174D01*
X159567089Y-58431647D01*
X159567086Y-58431645D01*
X159432379Y-58381403D01*
X159432372Y-58381401D01*
X159372844Y-58375000D01*
X159300000Y-58375000D01*
X159300000Y-60425000D01*
X159372828Y-60425000D01*
X159372844Y-60424999D01*
X159432372Y-60418598D01*
X159432379Y-60418596D01*
X159567086Y-60368354D01*
X159567093Y-60368350D01*
X159682187Y-60282190D01*
X159682190Y-60282187D01*
X159768350Y-60167093D01*
X159768354Y-60167086D01*
X159791076Y-60106166D01*
X159832947Y-60050232D01*
X159898411Y-60025815D01*
X159907239Y-60025499D01*
X160284898Y-60025499D01*
X160314213Y-60019669D01*
X160347457Y-59997457D01*
X160369669Y-59964213D01*
X160375500Y-59934899D01*
X160375499Y-58865102D01*
X160369669Y-58835787D01*
X160369072Y-58834894D01*
X160347457Y-58802542D01*
X160314214Y-58780332D01*
X160314215Y-58780332D01*
X160314213Y-58780331D01*
X160314210Y-58780330D01*
X160314209Y-58780330D01*
X160300305Y-58777564D01*
X160238395Y-58745177D01*
X160203823Y-58684460D01*
X160200500Y-58655947D01*
X160200500Y-57274499D01*
X160220185Y-57207460D01*
X160272989Y-57161705D01*
X160324500Y-57150499D01*
X161359895Y-57150499D01*
X161359898Y-57150499D01*
X161389213Y-57144669D01*
X161422457Y-57122457D01*
X161444669Y-57089213D01*
X161450500Y-57059899D01*
X161450499Y-55940102D01*
X161444669Y-55910787D01*
X161431540Y-55891137D01*
X161422457Y-55877542D01*
X161389214Y-55855332D01*
X161389215Y-55855332D01*
X161389213Y-55855331D01*
X161389211Y-55855330D01*
X161389208Y-55855329D01*
X161359901Y-55849500D01*
X161359899Y-55849500D01*
X160733411Y-55849500D01*
X160666372Y-55829815D01*
X160620617Y-55777011D01*
X160610673Y-55707853D01*
X160639698Y-55644297D01*
X160645730Y-55637819D01*
X161585563Y-54697987D01*
X162696731Y-53586819D01*
X162758054Y-53553334D01*
X162784412Y-53550500D01*
X163500501Y-53550500D01*
X163567540Y-53570185D01*
X163613295Y-53622989D01*
X163624501Y-53674500D01*
X163624501Y-54534902D01*
X163630330Y-54564212D01*
X163652542Y-54597457D01*
X163669219Y-54608599D01*
X163685787Y-54619669D01*
X163685790Y-54619669D01*
X163685791Y-54619670D01*
X163695647Y-54621630D01*
X163715101Y-54625500D01*
X165151500Y-54625499D01*
X165218539Y-54645184D01*
X165264294Y-54697987D01*
X165275500Y-54749499D01*
X165275500Y-56250500D01*
X165255815Y-56317539D01*
X165203011Y-56363294D01*
X165151500Y-56374500D01*
X163715105Y-56374500D01*
X163715097Y-56374501D01*
X163685787Y-56380330D01*
X163652542Y-56402542D01*
X163630332Y-56435785D01*
X163630329Y-56435791D01*
X163624500Y-56465098D01*
X163624500Y-58834894D01*
X163624501Y-58834902D01*
X163630330Y-58864212D01*
X163652542Y-58897457D01*
X163669219Y-58908599D01*
X163685787Y-58919669D01*
X163685790Y-58919669D01*
X163685791Y-58919670D01*
X163695647Y-58921630D01*
X163715101Y-58925500D01*
X164175500Y-58925499D01*
X164242539Y-58945183D01*
X164288294Y-58997987D01*
X164299500Y-59049499D01*
X164299500Y-60865587D01*
X164279815Y-60932626D01*
X164263181Y-60953268D01*
X163736681Y-61479767D01*
X163675358Y-61513252D01*
X163605666Y-61508268D01*
X163549733Y-61466396D01*
X163525316Y-61400932D01*
X163525293Y-61400293D01*
X163525000Y-61400000D01*
X162750000Y-61400000D01*
X162750000Y-62050000D01*
X162867087Y-62050000D01*
X162934126Y-62069685D01*
X162979881Y-62122489D01*
X162989825Y-62191647D01*
X162960800Y-62255203D01*
X162954768Y-62261681D01*
X162753267Y-62463181D01*
X162691944Y-62496666D01*
X162665586Y-62499500D01*
X161965105Y-62499500D01*
X161965097Y-62499501D01*
X161935787Y-62505330D01*
X161902542Y-62527542D01*
X161880332Y-62560785D01*
X161880329Y-62560791D01*
X161874500Y-62590098D01*
X161874500Y-62675500D01*
X161854815Y-62742539D01*
X161802011Y-62788294D01*
X161750500Y-62799500D01*
X161039883Y-62799500D01*
X160960118Y-62799500D01*
X160960116Y-62799500D01*
X160960114Y-62799501D01*
X160886428Y-62830021D01*
X160412181Y-63304268D01*
X160350858Y-63337753D01*
X160281166Y-63332769D01*
X160225233Y-63290897D01*
X160200816Y-63225433D01*
X160200500Y-63216587D01*
X160200500Y-62744051D01*
X160220185Y-62677012D01*
X160272989Y-62631257D01*
X160300309Y-62622433D01*
X160314213Y-62619669D01*
X160347457Y-62597457D01*
X160369669Y-62564213D01*
X160375500Y-62534899D01*
X160375499Y-61597844D01*
X161475000Y-61597844D01*
X161481401Y-61657372D01*
X161481403Y-61657379D01*
X161531645Y-61792086D01*
X161531649Y-61792093D01*
X161617809Y-61907187D01*
X161617812Y-61907190D01*
X161732906Y-61993350D01*
X161732913Y-61993354D01*
X161867620Y-62043596D01*
X161867627Y-62043598D01*
X161927155Y-62049999D01*
X161927172Y-62050000D01*
X162250000Y-62050000D01*
X162250000Y-61400000D01*
X161475000Y-61400000D01*
X161475000Y-61597844D01*
X160375499Y-61597844D01*
X160375499Y-61465102D01*
X160369669Y-61435787D01*
X160351283Y-61408269D01*
X160347457Y-61402542D01*
X160314214Y-61380332D01*
X160314215Y-61380332D01*
X160314213Y-61380331D01*
X160314211Y-61380330D01*
X160314208Y-61380329D01*
X160284901Y-61374500D01*
X159715105Y-61374500D01*
X159715097Y-61374501D01*
X159685787Y-61380330D01*
X159652542Y-61402542D01*
X159630332Y-61435785D01*
X159630329Y-61435791D01*
X159624500Y-61465098D01*
X159624500Y-62534894D01*
X159624501Y-62534902D01*
X159630330Y-62564212D01*
X159652542Y-62597457D01*
X159669219Y-62608599D01*
X159685787Y-62619669D01*
X159699691Y-62622434D01*
X159761601Y-62654819D01*
X159796176Y-62715534D01*
X159799500Y-62744052D01*
X159799500Y-63315933D01*
X159779815Y-63382972D01*
X159727011Y-63428727D01*
X159725587Y-63429367D01*
X159627234Y-63472794D01*
X159547794Y-63552234D01*
X159502415Y-63655006D01*
X159502415Y-63655008D01*
X159499500Y-63680131D01*
X159499500Y-64319856D01*
X159499502Y-64319882D01*
X159502413Y-64344987D01*
X159502415Y-64344991D01*
X159547793Y-64447764D01*
X159547794Y-64447765D01*
X159627235Y-64527206D01*
X159679327Y-64550207D01*
X159706185Y-64562066D01*
X159759561Y-64607152D01*
X159780088Y-64673938D01*
X159761249Y-64741220D01*
X159709026Y-64787637D01*
X159656098Y-64799500D01*
X158693901Y-64799500D01*
X158626862Y-64779815D01*
X158581107Y-64727011D01*
X158571163Y-64657853D01*
X158600188Y-64594297D01*
X158643815Y-64562066D01*
X158674975Y-64548306D01*
X158722765Y-64527206D01*
X158802206Y-64447765D01*
X158847585Y-64344991D01*
X158850500Y-64319865D01*
X158850499Y-63680136D01*
X158850497Y-63680117D01*
X158847586Y-63655012D01*
X158847585Y-63655010D01*
X158847585Y-63655009D01*
X158802206Y-63552235D01*
X158722765Y-63472794D01*
X158722002Y-63472457D01*
X158624413Y-63429367D01*
X158571037Y-63384281D01*
X158550510Y-63317495D01*
X158550500Y-63315933D01*
X158550500Y-62210119D01*
X158550499Y-62210116D01*
X158519976Y-62136426D01*
X158511818Y-62128268D01*
X158478333Y-62066945D01*
X158475499Y-62040587D01*
X158475499Y-61465105D01*
X158475498Y-61465097D01*
X158469669Y-61435787D01*
X158447457Y-61402542D01*
X158414214Y-61380332D01*
X158414215Y-61380332D01*
X158414213Y-61380331D01*
X158414211Y-61380330D01*
X158414208Y-61380329D01*
X158384901Y-61374500D01*
X157815105Y-61374500D01*
X157815097Y-61374501D01*
X157785787Y-61380330D01*
X157752542Y-61402542D01*
X157730332Y-61435785D01*
X157730329Y-61435791D01*
X157724500Y-61465098D01*
X157724500Y-62534894D01*
X157724501Y-62534902D01*
X157730330Y-62564212D01*
X157752542Y-62597457D01*
X157769219Y-62608599D01*
X157785787Y-62619669D01*
X157785790Y-62619669D01*
X157785791Y-62619670D01*
X157795647Y-62621630D01*
X157815101Y-62625500D01*
X158025500Y-62625499D01*
X158092539Y-62645183D01*
X158138294Y-62697987D01*
X158149500Y-62749499D01*
X158149500Y-63315933D01*
X158129815Y-63382972D01*
X158077011Y-63428727D01*
X158075587Y-63429367D01*
X157977234Y-63472794D01*
X157897794Y-63552234D01*
X157852415Y-63655006D01*
X157852415Y-63655008D01*
X157849500Y-63680131D01*
X157849500Y-64319856D01*
X157849502Y-64319882D01*
X157852413Y-64344987D01*
X157852415Y-64344991D01*
X157897793Y-64447764D01*
X157897794Y-64447765D01*
X157977235Y-64527206D01*
X158029327Y-64550207D01*
X158056185Y-64562066D01*
X158109561Y-64607152D01*
X158130088Y-64673938D01*
X158111249Y-64741220D01*
X158059026Y-64787637D01*
X158006098Y-64799500D01*
X153460116Y-64799500D01*
X153386425Y-64830024D01*
X153386424Y-64830025D01*
X148412181Y-69804269D01*
X148392744Y-69814881D01*
X148376011Y-69829382D01*
X148362679Y-69831298D01*
X148350858Y-69837754D01*
X148328771Y-69836174D01*
X148306853Y-69839326D01*
X148294601Y-69833730D01*
X148281166Y-69832770D01*
X148263439Y-69819499D01*
X148243297Y-69810301D01*
X148236014Y-69798969D01*
X148225233Y-69790898D01*
X148217495Y-69770152D01*
X148205523Y-69751523D01*
X148202371Y-69729604D01*
X148200816Y-69725434D01*
X148200500Y-69716588D01*
X148200500Y-69634411D01*
X148220185Y-69567372D01*
X148236814Y-69546735D01*
X157081393Y-60702155D01*
X161475000Y-60702155D01*
X161475000Y-60900000D01*
X162250000Y-60900000D01*
X162750000Y-60900000D01*
X163525000Y-60900000D01*
X163525000Y-60702172D01*
X163524999Y-60702155D01*
X163518598Y-60642627D01*
X163518596Y-60642620D01*
X163468354Y-60507913D01*
X163468350Y-60507906D01*
X163382190Y-60392812D01*
X163382187Y-60392809D01*
X163267093Y-60306649D01*
X163267086Y-60306645D01*
X163132379Y-60256403D01*
X163132372Y-60256401D01*
X163072844Y-60250000D01*
X162750000Y-60250000D01*
X162750000Y-60900000D01*
X162250000Y-60900000D01*
X162250000Y-60250000D01*
X161927155Y-60250000D01*
X161867627Y-60256401D01*
X161867620Y-60256403D01*
X161732913Y-60306645D01*
X161732906Y-60306649D01*
X161617812Y-60392809D01*
X161617809Y-60392812D01*
X161531649Y-60507906D01*
X161531645Y-60507913D01*
X161481403Y-60642620D01*
X161481401Y-60642627D01*
X161475000Y-60702155D01*
X157081393Y-60702155D01*
X157721732Y-60061816D01*
X157783053Y-60028333D01*
X157809411Y-60025499D01*
X157815096Y-60025499D01*
X157815101Y-60025500D01*
X158192742Y-60025499D01*
X158259780Y-60045184D01*
X158305535Y-60097988D01*
X158308923Y-60106165D01*
X158331646Y-60167087D01*
X158331649Y-60167093D01*
X158417809Y-60282187D01*
X158417812Y-60282190D01*
X158532906Y-60368350D01*
X158532913Y-60368354D01*
X158667620Y-60418596D01*
X158667627Y-60418598D01*
X158727155Y-60424999D01*
X158727172Y-60425000D01*
X158800000Y-60425000D01*
X158800000Y-58375000D01*
X158727155Y-58375000D01*
X158667627Y-58381401D01*
X158667620Y-58381403D01*
X158532913Y-58431645D01*
X158532906Y-58431649D01*
X158417812Y-58517809D01*
X158417809Y-58517812D01*
X158331649Y-58632906D01*
X158331645Y-58632913D01*
X158308924Y-58693833D01*
X158267053Y-58749767D01*
X158201588Y-58774184D01*
X158192742Y-58774500D01*
X157815105Y-58774500D01*
X157815097Y-58774501D01*
X157785787Y-58780330D01*
X157752542Y-58802542D01*
X157730332Y-58835785D01*
X157730329Y-58835791D01*
X157724500Y-58865098D01*
X157724500Y-59440587D01*
X157704815Y-59507626D01*
X157688181Y-59528268D01*
X147986181Y-69230268D01*
X147924858Y-69263753D01*
X147855166Y-69258769D01*
X147799233Y-69216897D01*
X147774816Y-69151433D01*
X147774500Y-69142587D01*
X147774500Y-64246661D01*
X147794185Y-64179622D01*
X147846989Y-64133867D01*
X147912793Y-64123488D01*
X147930135Y-64125500D01*
X148419864Y-64125499D01*
X148419879Y-64125497D01*
X148419882Y-64125497D01*
X148444987Y-64122586D01*
X148444988Y-64122585D01*
X148444991Y-64122585D01*
X148547765Y-64077206D01*
X148627206Y-63997765D01*
X148672585Y-63894991D01*
X148675500Y-63869865D01*
X148675499Y-63230136D01*
X148674954Y-63225433D01*
X148672586Y-63205012D01*
X148672585Y-63205010D01*
X148672585Y-63205009D01*
X148627206Y-63102235D01*
X148547765Y-63022794D01*
X148500499Y-63001924D01*
X148449413Y-62979367D01*
X148396037Y-62934281D01*
X148375510Y-62867495D01*
X148375500Y-62865933D01*
X148375500Y-62517933D01*
X148395185Y-62450894D01*
X148396396Y-62449045D01*
X148397457Y-62447457D01*
X148419669Y-62414213D01*
X148425500Y-62384899D01*
X148425499Y-61315102D01*
X148419669Y-61285787D01*
X148419668Y-61285785D01*
X148397457Y-61252542D01*
X148364214Y-61230332D01*
X148364215Y-61230332D01*
X148364213Y-61230331D01*
X148364211Y-61230330D01*
X148364208Y-61230329D01*
X148334901Y-61224500D01*
X148334899Y-61224500D01*
X147898500Y-61224500D01*
X147831461Y-61204815D01*
X147785706Y-61152011D01*
X147774500Y-61100500D01*
X147774500Y-60602155D01*
X151475000Y-60602155D01*
X151475000Y-60800000D01*
X152250000Y-60800000D01*
X152750000Y-60800000D01*
X153525000Y-60800000D01*
X153525000Y-60602172D01*
X153524999Y-60602155D01*
X153518598Y-60542627D01*
X153518596Y-60542620D01*
X153468354Y-60407913D01*
X153468350Y-60407906D01*
X153382190Y-60292812D01*
X153382187Y-60292809D01*
X153267093Y-60206649D01*
X153267086Y-60206645D01*
X153132379Y-60156403D01*
X153132372Y-60156401D01*
X153072844Y-60150000D01*
X152750000Y-60150000D01*
X152750000Y-60800000D01*
X152250000Y-60800000D01*
X152250000Y-60150000D01*
X151927155Y-60150000D01*
X151867627Y-60156401D01*
X151867620Y-60156403D01*
X151732913Y-60206645D01*
X151732906Y-60206649D01*
X151617812Y-60292809D01*
X151617809Y-60292812D01*
X151531649Y-60407906D01*
X151531645Y-60407913D01*
X151481403Y-60542620D01*
X151481401Y-60542627D01*
X151475000Y-60602155D01*
X147774500Y-60602155D01*
X147774500Y-59999499D01*
X147777050Y-59990813D01*
X147775762Y-59981852D01*
X147786740Y-59957811D01*
X147794185Y-59932460D01*
X147801025Y-59926532D01*
X147804787Y-59918296D01*
X147827021Y-59904006D01*
X147846989Y-59886705D01*
X147857503Y-59884417D01*
X147863565Y-59880522D01*
X147898500Y-59875499D01*
X148142742Y-59875499D01*
X148209781Y-59895184D01*
X148255536Y-59947988D01*
X148258924Y-59956166D01*
X148281645Y-60017086D01*
X148281649Y-60017093D01*
X148367809Y-60132187D01*
X148367812Y-60132190D01*
X148482906Y-60218350D01*
X148482913Y-60218354D01*
X148617620Y-60268596D01*
X148617627Y-60268598D01*
X148677155Y-60274999D01*
X148677172Y-60275000D01*
X148750000Y-60275000D01*
X148750000Y-58225000D01*
X148677155Y-58225000D01*
X148617627Y-58231401D01*
X148617620Y-58231403D01*
X148482913Y-58281645D01*
X148482906Y-58281649D01*
X148367812Y-58367809D01*
X148367809Y-58367812D01*
X148281649Y-58482906D01*
X148281645Y-58482913D01*
X148258924Y-58543833D01*
X148217053Y-58599767D01*
X148151588Y-58624184D01*
X148142742Y-58624500D01*
X147765105Y-58624500D01*
X147765097Y-58624501D01*
X147735787Y-58630330D01*
X147702542Y-58652542D01*
X147680332Y-58685785D01*
X147680329Y-58685791D01*
X147674500Y-58715098D01*
X147674500Y-59290587D01*
X147654815Y-59357626D01*
X147638181Y-59378268D01*
X147460426Y-59556024D01*
X147404025Y-59612424D01*
X147404024Y-59612425D01*
X147373500Y-59686116D01*
X147373500Y-80423552D01*
X147353815Y-80490591D01*
X147337181Y-80511233D01*
X144682500Y-83165913D01*
X144621177Y-83199398D01*
X144551485Y-83194414D01*
X144495552Y-83152542D01*
X144481385Y-83128319D01*
X144465586Y-83092539D01*
X144452206Y-83062235D01*
X144372765Y-82982794D01*
X144372764Y-82982793D01*
X144337763Y-82967339D01*
X144314356Y-82947568D01*
X144289587Y-82929539D01*
X144287915Y-82925234D01*
X144284386Y-82922253D01*
X144275383Y-82892962D01*
X144264295Y-82864408D01*
X144265216Y-82859882D01*
X144263859Y-82855467D01*
X144272119Y-82825962D01*
X144278230Y-82795942D01*
X144281927Y-82790932D01*
X144282697Y-82788185D01*
X144299000Y-82767407D01*
X144299515Y-82766877D01*
X144320480Y-82745913D01*
X144321288Y-82744512D01*
X144327627Y-82738002D01*
X144351965Y-82724285D01*
X144374523Y-82707813D01*
X144384181Y-82706129D01*
X144388496Y-82703698D01*
X144395722Y-82704117D01*
X144416476Y-82700500D01*
X144748401Y-82700500D01*
X144748403Y-82700500D01*
X144822095Y-82669976D01*
X145970976Y-81521095D01*
X146001500Y-81447403D01*
X146001500Y-81367638D01*
X146001500Y-78269458D01*
X145970976Y-78195766D01*
X145914574Y-78139364D01*
X145907509Y-78132299D01*
X145907502Y-78132293D01*
X144605234Y-76830024D01*
X144531543Y-76799500D01*
X144531542Y-76799500D01*
X139352382Y-76799500D01*
X139272618Y-76799500D01*
X139272616Y-76799500D01*
X139272614Y-76799501D01*
X139198928Y-76830021D01*
X137768755Y-78260194D01*
X137707432Y-78293679D01*
X137637740Y-78288695D01*
X137633618Y-78287073D01*
X137626095Y-78283956D01*
X137578554Y-78274500D01*
X137578552Y-78274500D01*
X137421448Y-78274500D01*
X137421446Y-78274500D01*
X137373904Y-78283956D01*
X137373902Y-78283957D01*
X137318890Y-78320715D01*
X137252212Y-78341592D01*
X137184832Y-78323107D01*
X137181110Y-78320715D01*
X137180016Y-78319984D01*
X137126099Y-78283958D01*
X137126098Y-78283957D01*
X137126097Y-78283957D01*
X137126095Y-78283956D01*
X137078554Y-78274500D01*
X137078552Y-78274500D01*
X136921448Y-78274500D01*
X136921446Y-78274500D01*
X136873904Y-78283956D01*
X136873902Y-78283957D01*
X136818890Y-78320715D01*
X136752212Y-78341592D01*
X136684832Y-78323107D01*
X136681110Y-78320715D01*
X136680016Y-78319984D01*
X136626099Y-78283958D01*
X136626098Y-78283957D01*
X136626097Y-78283957D01*
X136626095Y-78283956D01*
X136578554Y-78274500D01*
X136578552Y-78274500D01*
X136421448Y-78274500D01*
X136421446Y-78274500D01*
X136373904Y-78283956D01*
X136373902Y-78283957D01*
X136318890Y-78320715D01*
X136252212Y-78341592D01*
X136184832Y-78323107D01*
X136181110Y-78320715D01*
X136180016Y-78319984D01*
X136126099Y-78283958D01*
X136126098Y-78283957D01*
X136126097Y-78283957D01*
X136126095Y-78283956D01*
X136078554Y-78274500D01*
X136078552Y-78274500D01*
X135921448Y-78274500D01*
X135921446Y-78274500D01*
X135873904Y-78283956D01*
X135873902Y-78283957D01*
X135818890Y-78320715D01*
X135752212Y-78341592D01*
X135684832Y-78323107D01*
X135681110Y-78320715D01*
X135680016Y-78319984D01*
X135626099Y-78283958D01*
X135626098Y-78283957D01*
X135626097Y-78283957D01*
X135626095Y-78283956D01*
X135578554Y-78274500D01*
X135578552Y-78274500D01*
X135421448Y-78274500D01*
X135421446Y-78274500D01*
X135373904Y-78283956D01*
X135373902Y-78283957D01*
X135318890Y-78320715D01*
X135252212Y-78341592D01*
X135184832Y-78323107D01*
X135181110Y-78320715D01*
X135180016Y-78319984D01*
X135126099Y-78283958D01*
X135126098Y-78283957D01*
X135126097Y-78283957D01*
X135126095Y-78283956D01*
X135078554Y-78274500D01*
X135078552Y-78274500D01*
X134921448Y-78274500D01*
X134921446Y-78274500D01*
X134873904Y-78283956D01*
X134873902Y-78283957D01*
X134818890Y-78320715D01*
X134752212Y-78341592D01*
X134684832Y-78323107D01*
X134681110Y-78320715D01*
X134680016Y-78319984D01*
X134626099Y-78283958D01*
X134626098Y-78283957D01*
X134626097Y-78283957D01*
X134626095Y-78283956D01*
X134578554Y-78274500D01*
X134578552Y-78274500D01*
X134421448Y-78274500D01*
X134421446Y-78274500D01*
X134373904Y-78283956D01*
X134373902Y-78283957D01*
X134318890Y-78320715D01*
X134252212Y-78341592D01*
X134184832Y-78323107D01*
X134181110Y-78320715D01*
X134180016Y-78319984D01*
X134126099Y-78283958D01*
X134126098Y-78283957D01*
X134126097Y-78283957D01*
X134126095Y-78283956D01*
X134078554Y-78274500D01*
X134078552Y-78274500D01*
X133921448Y-78274500D01*
X133921447Y-78274500D01*
X133895835Y-78279594D01*
X133826243Y-78273365D01*
X133771067Y-78230501D01*
X133747824Y-78164611D01*
X133763893Y-78096614D01*
X133783961Y-78070299D01*
X136067442Y-75786819D01*
X136128765Y-75753334D01*
X136155123Y-75750500D01*
X142632745Y-75750500D01*
X142699784Y-75770185D01*
X142720426Y-75786819D01*
X142754087Y-75820480D01*
X142845413Y-75873207D01*
X142947273Y-75900500D01*
X142947275Y-75900500D01*
X143052725Y-75900500D01*
X143052727Y-75900500D01*
X143154587Y-75873207D01*
X143245913Y-75820480D01*
X143320480Y-75745913D01*
X143373207Y-75654587D01*
X143400500Y-75552727D01*
X143400500Y-75447273D01*
X143373207Y-75345413D01*
X143320480Y-75254087D01*
X143245913Y-75179520D01*
X143154587Y-75126793D01*
X143052727Y-75099500D01*
X142947273Y-75099500D01*
X142845413Y-75126793D01*
X142845410Y-75126794D01*
X142754085Y-75179521D01*
X142720426Y-75213181D01*
X142659103Y-75246666D01*
X142632745Y-75249500D01*
X135950170Y-75249500D01*
X135858102Y-75287636D01*
X135858101Y-75287637D01*
X132061681Y-79084058D01*
X132000358Y-79117543D01*
X131930666Y-79112559D01*
X131874733Y-79070687D01*
X131850316Y-79005223D01*
X131850000Y-78996377D01*
X131850000Y-78750000D01*
X130750000Y-78750000D01*
X130750000Y-79025500D01*
X130730315Y-79092539D01*
X130677511Y-79138294D01*
X130626000Y-79149500D01*
X130374000Y-79149500D01*
X130306961Y-79129815D01*
X130261206Y-79077011D01*
X130250000Y-79025500D01*
X130250000Y-78624000D01*
X130269685Y-78556961D01*
X130322489Y-78511206D01*
X130374000Y-78500000D01*
X130500000Y-78500000D01*
X130500000Y-78374000D01*
X130519685Y-78306961D01*
X130572489Y-78261206D01*
X130624000Y-78250000D01*
X131850000Y-78250000D01*
X131850000Y-77902172D01*
X131849999Y-77902155D01*
X131843598Y-77842627D01*
X131843596Y-77842620D01*
X131793354Y-77707913D01*
X131793350Y-77707906D01*
X131707191Y-77592814D01*
X131704903Y-77591101D01*
X131703187Y-77588809D01*
X131700918Y-77586540D01*
X131701244Y-77586213D01*
X131663030Y-77535169D01*
X131658043Y-77465477D01*
X131691523Y-77404157D01*
X143530470Y-65565212D01*
X143576614Y-65485288D01*
X143600500Y-65396144D01*
X143600500Y-62822235D01*
X143620185Y-62755196D01*
X143672989Y-62709441D01*
X143686183Y-62704304D01*
X143776083Y-62675094D01*
X143776083Y-62675093D01*
X143776089Y-62675092D01*
X143968299Y-62577157D01*
X144142821Y-62450359D01*
X144295359Y-62297821D01*
X144422157Y-62123299D01*
X144520092Y-61931089D01*
X144586754Y-61725926D01*
X144607040Y-61597844D01*
X144620500Y-61512866D01*
X144620500Y-61297133D01*
X144591426Y-61113574D01*
X144586754Y-61084074D01*
X144520092Y-60878911D01*
X144422157Y-60686701D01*
X144295359Y-60512179D01*
X144142821Y-60359641D01*
X143968299Y-60232843D01*
X143776093Y-60134909D01*
X143687628Y-60106165D01*
X143686180Y-60105694D01*
X143628506Y-60066257D01*
X143601308Y-60001898D01*
X143600500Y-59987764D01*
X143600500Y-57014499D01*
X143620185Y-56947460D01*
X143672989Y-56901705D01*
X143718895Y-56891718D01*
X143718834Y-56891096D01*
X143724173Y-56890570D01*
X143724500Y-56890499D01*
X143724895Y-56890499D01*
X143724898Y-56890499D01*
X143754213Y-56884669D01*
X143787457Y-56862457D01*
X143809669Y-56829213D01*
X143809670Y-56829208D01*
X143815500Y-56799901D01*
X143815500Y-56794500D01*
X143835185Y-56727461D01*
X143887989Y-56681706D01*
X143939500Y-56670500D01*
X144726142Y-56670500D01*
X144726144Y-56670500D01*
X144815288Y-56646614D01*
X144834905Y-56635288D01*
X144895212Y-56600470D01*
X145280469Y-56215212D01*
X145326614Y-56135288D01*
X145334786Y-56104788D01*
X145350500Y-56046144D01*
X145350500Y-54196543D01*
X145370185Y-54129504D01*
X145386814Y-54108867D01*
X148414551Y-51081129D01*
X148475872Y-51047646D01*
X148545564Y-51052630D01*
X148601497Y-51094502D01*
X148622004Y-51136716D01*
X148626792Y-51154584D01*
X148626794Y-51154589D01*
X148679521Y-51245914D01*
X148759834Y-51326227D01*
X148758149Y-51327911D01*
X148792187Y-51374523D01*
X148799500Y-51416476D01*
X148799500Y-52775500D01*
X148779815Y-52842539D01*
X148727011Y-52888294D01*
X148675500Y-52899500D01*
X147140105Y-52899500D01*
X147140097Y-52899501D01*
X147110787Y-52905330D01*
X147077542Y-52927542D01*
X147055332Y-52960785D01*
X147055329Y-52960791D01*
X147049500Y-52990098D01*
X147049501Y-54109892D01*
X147049501Y-54109902D01*
X147055330Y-54139212D01*
X147077542Y-54172457D01*
X147080774Y-54174616D01*
X147110787Y-54194669D01*
X147110790Y-54194669D01*
X147110791Y-54194670D01*
X147120208Y-54196543D01*
X147140101Y-54200500D01*
X150766588Y-54200499D01*
X150833627Y-54220184D01*
X150879382Y-54272988D01*
X150889326Y-54342146D01*
X150860301Y-54405702D01*
X150854269Y-54412180D01*
X149403267Y-55863181D01*
X149341944Y-55896666D01*
X149315586Y-55899500D01*
X147140105Y-55899500D01*
X147140097Y-55899501D01*
X147110787Y-55905330D01*
X147077542Y-55927542D01*
X147055332Y-55960785D01*
X147055329Y-55960791D01*
X147049500Y-55990098D01*
X147049500Y-57109894D01*
X147049501Y-57109902D01*
X147055330Y-57139212D01*
X147077542Y-57172457D01*
X147083905Y-57176708D01*
X147110787Y-57194669D01*
X147110790Y-57194669D01*
X147110791Y-57194670D01*
X147120647Y-57196630D01*
X147140101Y-57200500D01*
X149315587Y-57200499D01*
X149382626Y-57220184D01*
X149403268Y-57236818D01*
X149713181Y-57546731D01*
X149746666Y-57608054D01*
X149749500Y-57634412D01*
X149749500Y-58207907D01*
X149729815Y-58274946D01*
X149677011Y-58320701D01*
X149607853Y-58330645D01*
X149551189Y-58307174D01*
X149517089Y-58281647D01*
X149517086Y-58281645D01*
X149382379Y-58231403D01*
X149382372Y-58231401D01*
X149322844Y-58225000D01*
X149250000Y-58225000D01*
X149250000Y-60275000D01*
X149322828Y-60275000D01*
X149322844Y-60274999D01*
X149382372Y-60268598D01*
X149382379Y-60268596D01*
X149517086Y-60218354D01*
X149517093Y-60218350D01*
X149632187Y-60132190D01*
X149632190Y-60132187D01*
X149718350Y-60017093D01*
X149718354Y-60017086D01*
X149741076Y-59956166D01*
X149782947Y-59900232D01*
X149848411Y-59875815D01*
X149857239Y-59875499D01*
X150234898Y-59875499D01*
X150264213Y-59869669D01*
X150297457Y-59847457D01*
X150319669Y-59814213D01*
X150325500Y-59784899D01*
X150325499Y-58715102D01*
X150319669Y-58685787D01*
X150318782Y-58684460D01*
X150297457Y-58652542D01*
X150264214Y-58630332D01*
X150264215Y-58630332D01*
X150264213Y-58630331D01*
X150264210Y-58630330D01*
X150264209Y-58630330D01*
X150250305Y-58627564D01*
X150188395Y-58595177D01*
X150153823Y-58534460D01*
X150150500Y-58505947D01*
X150150500Y-57460119D01*
X150150499Y-57460116D01*
X150115302Y-57375143D01*
X150118499Y-57373818D01*
X150103751Y-57326708D01*
X150122238Y-57259329D01*
X150174218Y-57212640D01*
X150227731Y-57200499D01*
X150859895Y-57200499D01*
X150859898Y-57200499D01*
X150889213Y-57194669D01*
X150922457Y-57172457D01*
X150944669Y-57139213D01*
X150950500Y-57109899D01*
X150950499Y-55990102D01*
X150944669Y-55960787D01*
X150937338Y-55949815D01*
X150922457Y-55927542D01*
X150889214Y-55905332D01*
X150889215Y-55905332D01*
X150889213Y-55905331D01*
X150889211Y-55905330D01*
X150889208Y-55905329D01*
X150859901Y-55899500D01*
X150859899Y-55899500D01*
X150233411Y-55899500D01*
X150166372Y-55879815D01*
X150120617Y-55827011D01*
X150110673Y-55757853D01*
X150139698Y-55694297D01*
X150145730Y-55687819D01*
X151084051Y-54749499D01*
X152196731Y-53636819D01*
X152258054Y-53603334D01*
X152284412Y-53600500D01*
X153000501Y-53600500D01*
X153067540Y-53620185D01*
X153113295Y-53672989D01*
X153124501Y-53724500D01*
X153124501Y-54584902D01*
X153130330Y-54614212D01*
X153152542Y-54647457D01*
X153169219Y-54658599D01*
X153185787Y-54669669D01*
X153185790Y-54669669D01*
X153185791Y-54669670D01*
X153195647Y-54671630D01*
X153215101Y-54675500D01*
X154651500Y-54675499D01*
X154718539Y-54695184D01*
X154764294Y-54747987D01*
X154775500Y-54799499D01*
X154775500Y-56300500D01*
X154755815Y-56367539D01*
X154703011Y-56413294D01*
X154651500Y-56424500D01*
X153215105Y-56424500D01*
X153215097Y-56424501D01*
X153185787Y-56430330D01*
X153152542Y-56452542D01*
X153130332Y-56485785D01*
X153130329Y-56485791D01*
X153124500Y-56515098D01*
X153124500Y-58884894D01*
X153124501Y-58884902D01*
X153130330Y-58914212D01*
X153152542Y-58947457D01*
X153169219Y-58958599D01*
X153185787Y-58969669D01*
X153185790Y-58969669D01*
X153185791Y-58969670D01*
X153195647Y-58971630D01*
X153215101Y-58975500D01*
X153675500Y-58975499D01*
X153742539Y-58995183D01*
X153788294Y-59047987D01*
X153799500Y-59099499D01*
X153799500Y-61265587D01*
X153790855Y-61295027D01*
X153784332Y-61325014D01*
X153780577Y-61330029D01*
X153779815Y-61332626D01*
X153763181Y-61353268D01*
X153736681Y-61379768D01*
X153675358Y-61413253D01*
X153605666Y-61408269D01*
X153549733Y-61366397D01*
X153525316Y-61300933D01*
X153525293Y-61300293D01*
X153525000Y-61300000D01*
X152750000Y-61300000D01*
X152750000Y-61950000D01*
X152867087Y-61950000D01*
X152934126Y-61969685D01*
X152979881Y-62022489D01*
X152989825Y-62091647D01*
X152960800Y-62155203D01*
X152954768Y-62161681D01*
X152753267Y-62363181D01*
X152691944Y-62396666D01*
X152665586Y-62399500D01*
X151965105Y-62399500D01*
X151965097Y-62399501D01*
X151935787Y-62405330D01*
X151902542Y-62427542D01*
X151880332Y-62460785D01*
X151880329Y-62460791D01*
X151874500Y-62490098D01*
X151874500Y-63190586D01*
X151865855Y-63220025D01*
X151859333Y-63250011D01*
X151855577Y-63255027D01*
X151854815Y-63257625D01*
X151838182Y-63278266D01*
X151803269Y-63313180D01*
X151741947Y-63346666D01*
X151715587Y-63349500D01*
X150449438Y-63349500D01*
X150382399Y-63329815D01*
X150336644Y-63277011D01*
X150325644Y-63232653D01*
X150325499Y-63230143D01*
X150325499Y-63230136D01*
X150324954Y-63225433D01*
X150322586Y-63205012D01*
X150322585Y-63205010D01*
X150322585Y-63205009D01*
X150277206Y-63102235D01*
X150197765Y-63022794D01*
X150197764Y-63022793D01*
X150189640Y-63014669D01*
X150192075Y-63012233D01*
X150160230Y-62973203D01*
X150150500Y-62925054D01*
X150150500Y-62594051D01*
X150170185Y-62527012D01*
X150222989Y-62481257D01*
X150250309Y-62472433D01*
X150264213Y-62469669D01*
X150297457Y-62447457D01*
X150319669Y-62414213D01*
X150325500Y-62384899D01*
X150325499Y-61497844D01*
X151475000Y-61497844D01*
X151481401Y-61557372D01*
X151481403Y-61557379D01*
X151531645Y-61692086D01*
X151531649Y-61692093D01*
X151617809Y-61807187D01*
X151617812Y-61807190D01*
X151732906Y-61893350D01*
X151732913Y-61893354D01*
X151867620Y-61943596D01*
X151867627Y-61943598D01*
X151927155Y-61949999D01*
X151927172Y-61950000D01*
X152250000Y-61950000D01*
X152250000Y-61300000D01*
X151475000Y-61300000D01*
X151475000Y-61497844D01*
X150325499Y-61497844D01*
X150325499Y-61315102D01*
X150319669Y-61285787D01*
X150312297Y-61274754D01*
X150297457Y-61252542D01*
X150264214Y-61230332D01*
X150264215Y-61230332D01*
X150264213Y-61230331D01*
X150264211Y-61230330D01*
X150264208Y-61230329D01*
X150234901Y-61224500D01*
X149665105Y-61224500D01*
X149665097Y-61224501D01*
X149635787Y-61230330D01*
X149602542Y-61252542D01*
X149580332Y-61285785D01*
X149580329Y-61285791D01*
X149574500Y-61315098D01*
X149574500Y-62384894D01*
X149574501Y-62384902D01*
X149580330Y-62414212D01*
X149602542Y-62447457D01*
X149619219Y-62458599D01*
X149635787Y-62469669D01*
X149649691Y-62472434D01*
X149711601Y-62504819D01*
X149746176Y-62565534D01*
X149749500Y-62594052D01*
X149749500Y-62850500D01*
X149729815Y-62917539D01*
X149677011Y-62963294D01*
X149625503Y-62974500D01*
X149580143Y-62974500D01*
X149580118Y-62974502D01*
X149555011Y-62977414D01*
X149555008Y-62977415D01*
X149452235Y-63022793D01*
X149372794Y-63102234D01*
X149327415Y-63205006D01*
X149327415Y-63205008D01*
X149324500Y-63230131D01*
X149324500Y-63869856D01*
X149324502Y-63869882D01*
X149327413Y-63894987D01*
X149327415Y-63894991D01*
X149372793Y-63997764D01*
X149372794Y-63997765D01*
X149452235Y-64077206D01*
X149555009Y-64122585D01*
X149580135Y-64125500D01*
X150069864Y-64125499D01*
X150069879Y-64125497D01*
X150069882Y-64125497D01*
X150094987Y-64122586D01*
X150094988Y-64122585D01*
X150094991Y-64122585D01*
X150197765Y-64077206D01*
X150277206Y-63997765D01*
X150322585Y-63894991D01*
X150325500Y-63869865D01*
X150325500Y-63869848D01*
X150325645Y-63867353D01*
X150325861Y-63866746D01*
X150325913Y-63866306D01*
X150326014Y-63866317D01*
X150349161Y-63801560D01*
X150404514Y-63758924D01*
X150449439Y-63750500D01*
X151889880Y-63750500D01*
X151889882Y-63750500D01*
X151963574Y-63719976D01*
X152246731Y-63436817D01*
X152308054Y-63403333D01*
X152334412Y-63400499D01*
X153034895Y-63400499D01*
X153034898Y-63400499D01*
X153064213Y-63394669D01*
X153097457Y-63372457D01*
X153119669Y-63339213D01*
X153125500Y-63309899D01*
X153125499Y-62609410D01*
X153145183Y-62542372D01*
X153161814Y-62521734D01*
X154096132Y-61587415D01*
X154096135Y-61587414D01*
X154113573Y-61569976D01*
X154113574Y-61569976D01*
X154169976Y-61513574D01*
X154200500Y-61439882D01*
X154200500Y-59099499D01*
X154220185Y-59032460D01*
X154272989Y-58986705D01*
X154324500Y-58975499D01*
X154784895Y-58975499D01*
X154784898Y-58975499D01*
X154814213Y-58969669D01*
X154847457Y-58947457D01*
X154869669Y-58914213D01*
X154875500Y-58884899D01*
X154875499Y-57371543D01*
X154895184Y-57304505D01*
X154911818Y-57283863D01*
X155135787Y-57059894D01*
X155406469Y-56789213D01*
X155452614Y-56709288D01*
X155463007Y-56670499D01*
X155476500Y-56620144D01*
X155476500Y-51827856D01*
X155452614Y-51738712D01*
X155406470Y-51658788D01*
X154658863Y-50911181D01*
X154625378Y-50849858D01*
X154630362Y-50780166D01*
X154672234Y-50724233D01*
X154737698Y-50699816D01*
X154746544Y-50699500D01*
X159004291Y-50699500D01*
X159028279Y-50706543D01*
G37*
%TD.AperFunction*%
%TA.AperFunction,Conductor*%
G36*
X131268039Y-79569685D02*
G01*
X131313794Y-79622489D01*
X131325000Y-79674000D01*
X131325000Y-80350000D01*
X131372828Y-80350000D01*
X131372844Y-80349999D01*
X131432372Y-80343598D01*
X131432379Y-80343596D01*
X131572299Y-80291410D01*
X131573989Y-80289946D01*
X131604357Y-80285579D01*
X131634341Y-80279056D01*
X131638622Y-80280652D01*
X131643147Y-80280002D01*
X131671063Y-80292750D01*
X131699806Y-80303470D01*
X131702544Y-80307127D01*
X131706703Y-80309027D01*
X131723291Y-80334840D01*
X131741680Y-80359401D01*
X131742696Y-80365034D01*
X131744477Y-80367805D01*
X131749500Y-80402740D01*
X131749500Y-80578261D01*
X131729815Y-80645300D01*
X131694391Y-80681363D01*
X131656611Y-80706606D01*
X131656609Y-80706609D01*
X131651408Y-80714393D01*
X131597795Y-80759197D01*
X131548307Y-80769500D01*
X131431068Y-80769500D01*
X131364029Y-80749815D01*
X131318274Y-80697011D01*
X131310290Y-80672286D01*
X131309669Y-80670788D01*
X131309669Y-80670787D01*
X131292640Y-80645300D01*
X131287457Y-80637542D01*
X131254214Y-80615332D01*
X131254215Y-80615332D01*
X131254213Y-80615331D01*
X131254211Y-80615330D01*
X131254208Y-80615329D01*
X131224901Y-80609500D01*
X131224899Y-80609500D01*
X130335123Y-80609500D01*
X130268084Y-80589815D01*
X130247442Y-80573181D01*
X130136819Y-80462558D01*
X130103334Y-80401235D01*
X130100500Y-80374877D01*
X130100500Y-80052851D01*
X130120185Y-79985812D01*
X130172989Y-79940057D01*
X130240325Y-79929865D01*
X130269188Y-79933578D01*
X130285787Y-79944669D01*
X130315101Y-79950500D01*
X130400691Y-79950499D01*
X130408566Y-79951513D01*
X130433575Y-79962489D01*
X130459779Y-79970183D01*
X130465101Y-79976325D01*
X130472545Y-79979592D01*
X130487649Y-80002345D01*
X130505535Y-80022986D01*
X130508923Y-80031165D01*
X130531646Y-80092087D01*
X130531649Y-80092093D01*
X130617809Y-80207187D01*
X130617812Y-80207190D01*
X130732906Y-80293350D01*
X130732913Y-80293354D01*
X130867620Y-80343596D01*
X130867627Y-80343598D01*
X130927155Y-80349999D01*
X130927172Y-80350000D01*
X130975000Y-80350000D01*
X130975000Y-79674000D01*
X130977550Y-79665314D01*
X130976262Y-79656353D01*
X130987240Y-79632312D01*
X130994685Y-79606961D01*
X131001525Y-79601033D01*
X131005287Y-79592797D01*
X131027521Y-79578507D01*
X131047489Y-79561206D01*
X131058003Y-79558918D01*
X131064065Y-79555023D01*
X131099000Y-79550000D01*
X131201000Y-79550000D01*
X131268039Y-79569685D01*
G37*
%TD.AperFunction*%
%TD*%
M02*
