%TF.GenerationSoftware,KiCad,Pcbnew,9.0.7*%
%TF.CreationDate,2026-03-30T10:08:18+02:00*%
%TF.ProjectId,Aurora,4175726f-7261-42e6-9b69-6361645f7063,rev?*%
%TF.SameCoordinates,Original*%
%TF.FileFunction,Paste,Bot*%
%TF.FilePolarity,Positive*%
%FSLAX46Y46*%
G04 Gerber Fmt 4.6, Leading zero omitted, Abs format (unit mm)*
G04 Created by KiCad (PCBNEW 9.0.7) date 2026-03-30 10:08:18*
%MOMM*%
%LPD*%
G01*
G04 APERTURE LIST*
G04 Aperture macros list*
%AMRoundRect*
0 Rectangle with rounded corners*
0 $1 Rounding radius*
0 $2 $3 $4 $5 $6 $7 $8 $9 X,Y pos of 4 corners*
0 Add a 4 corners polygon primitive as box body*
4,1,4,$2,$3,$4,$5,$6,$7,$8,$9,$2,$3,0*
0 Add four circle primitives for the rounded corners*
1,1,$1+$1,$2,$3*
1,1,$1+$1,$4,$5*
1,1,$1+$1,$6,$7*
1,1,$1+$1,$8,$9*
0 Add four rect primitives between the rounded corners*
20,1,$1+$1,$2,$3,$4,$5,0*
20,1,$1+$1,$4,$5,$6,$7,0*
20,1,$1+$1,$6,$7,$8,$9,0*
20,1,$1+$1,$8,$9,$2,$3,0*%
G04 Aperture macros list end*
%ADD10R,2.000000X2.180000*%
%ADD11R,1.150000X0.300000*%
%ADD12R,1.150000X0.600000*%
%ADD13RoundRect,0.600000X-3.400000X-1.400000X3.400000X-1.400000X3.400000X1.400000X-3.400000X1.400000X0*%
%ADD14R,0.800000X1.000000*%
%ADD15R,2.700000X1.100000*%
%ADD16R,0.740000X2.790000*%
%ADD17RoundRect,0.120000X-0.280000X0.480000X-0.280000X-0.480000X0.280000X-0.480000X0.280000X0.480000X0*%
%ADD18R,1.550000X1.250000*%
%ADD19R,1.200000X0.600000*%
%ADD20RoundRect,0.150000X-0.400000X-0.350000X0.400000X-0.350000X0.400000X0.350000X-0.400000X0.350000X0*%
%ADD21R,3.750000X2.000000*%
G04 APERTURE END LIST*
D10*
%TO.C,J2*%
X122173000Y-72390000D03*
X122173000Y-82610000D03*
X126103000Y-72390000D03*
X126103000Y-82610000D03*
D11*
X126678000Y-79250000D03*
X126678000Y-78250000D03*
X126678000Y-76750000D03*
X126678000Y-75750000D03*
D12*
X126678000Y-75100000D03*
X126678000Y-74300000D03*
D11*
X126678000Y-76250000D03*
X126678000Y-77250000D03*
X126678000Y-77750000D03*
X126678000Y-78750000D03*
D12*
X126678000Y-79900000D03*
X126678000Y-80700000D03*
%TD*%
D13*
%TO.C,J4*%
X132750000Y-68500000D03*
X132750000Y-60500000D03*
%TD*%
D14*
%TO.C,R19*%
X129200000Y-75500000D03*
X130800000Y-75500000D03*
%TD*%
D15*
%TO.C,R18*%
X178740000Y-91650000D03*
X178740000Y-86850000D03*
%TD*%
%TO.C,R17*%
X175050000Y-91650000D03*
X175050000Y-86850000D03*
%TD*%
%TO.C,R16*%
X170900000Y-91650000D03*
X170900000Y-86850000D03*
%TD*%
%TO.C,R15*%
X166790000Y-91650000D03*
X166790000Y-86850000D03*
%TD*%
%TO.C,R14*%
X162640000Y-91650000D03*
X162640000Y-86850000D03*
%TD*%
D14*
%TO.C,R7*%
X130800000Y-79500000D03*
X129200000Y-79500000D03*
%TD*%
%TO.C,R6*%
X129200000Y-81000000D03*
X130800000Y-81000000D03*
%TD*%
D15*
%TO.C,R5*%
X158660000Y-91650000D03*
X158660000Y-86850000D03*
%TD*%
%TO.C,R4*%
X154800000Y-91650000D03*
X154800000Y-86850000D03*
%TD*%
%TO.C,R3*%
X150400000Y-91650000D03*
X150400000Y-86850000D03*
%TD*%
%TO.C,R2*%
X146210000Y-91650000D03*
X146210000Y-86850000D03*
%TD*%
%TO.C,R1*%
X142000000Y-91650000D03*
X142000000Y-86850000D03*
%TD*%
D16*
%TO.C,J3*%
X137350000Y-95500000D03*
X137350000Y-91430000D03*
X136080000Y-95500000D03*
X136080000Y-91430000D03*
X134810000Y-95500000D03*
X134810000Y-91430000D03*
X133540000Y-95500000D03*
X133540000Y-91430000D03*
X132270000Y-95500000D03*
X132270000Y-91430000D03*
X131000000Y-95500000D03*
X131000000Y-91430000D03*
X129730000Y-95500000D03*
X129730000Y-91430000D03*
%TD*%
D14*
%TO.C,R20*%
X163440000Y-77000000D03*
X161840000Y-77000000D03*
%TD*%
D17*
%TO.C,Q6*%
X164080000Y-78700000D03*
X162810000Y-78700000D03*
X161540000Y-78700000D03*
X161540000Y-85000000D03*
X164080000Y-85000000D03*
%TD*%
D18*
%TO.C,R8*%
X130500000Y-83775000D03*
X130500000Y-87225000D03*
%TD*%
D19*
%TO.C,IC2*%
X132750000Y-78450000D03*
X132750000Y-77500000D03*
X132750000Y-76550000D03*
X135250000Y-76550000D03*
X135250000Y-77500000D03*
X135250000Y-78450000D03*
%TD*%
D20*
%TO.C,S1*%
X137800000Y-100500000D03*
X130300000Y-100500000D03*
%TD*%
D14*
%TO.C,R10*%
X145410000Y-77000000D03*
X147010000Y-77000000D03*
%TD*%
%TO.C,R23*%
X174250000Y-77000000D03*
X175850000Y-77000000D03*
%TD*%
D21*
%TO.C,F1*%
X192000000Y-70250000D03*
X192000000Y-61750000D03*
%TD*%
D17*
%TO.C,Q10*%
X180080000Y-85000000D03*
X177540000Y-85000000D03*
X177540000Y-78700000D03*
X178810000Y-78700000D03*
X180080000Y-78700000D03*
%TD*%
D14*
%TO.C,R11*%
X149600000Y-77000000D03*
X151200000Y-77000000D03*
%TD*%
D17*
%TO.C,Q8*%
X172290000Y-85000000D03*
X169750000Y-85000000D03*
X169750000Y-78700000D03*
X171020000Y-78700000D03*
X172290000Y-78700000D03*
%TD*%
%TO.C,Q7*%
X168080000Y-85000000D03*
X165540000Y-85000000D03*
X165540000Y-78700000D03*
X166810000Y-78700000D03*
X168080000Y-78700000D03*
%TD*%
%TO.C,Q3*%
X151790000Y-85000000D03*
X149250000Y-85000000D03*
X149250000Y-78700000D03*
X150520000Y-78700000D03*
X151790000Y-78700000D03*
%TD*%
D14*
%TO.C,R21*%
X165990000Y-77000000D03*
X167590000Y-77000000D03*
%TD*%
%TO.C,R13*%
X157860000Y-77000000D03*
X159460000Y-77000000D03*
%TD*%
%TO.C,R12*%
X154000000Y-77000000D03*
X155600000Y-77000000D03*
%TD*%
%TO.C,R22*%
X170100000Y-77000000D03*
X171700000Y-77000000D03*
%TD*%
D17*
%TO.C,Q4*%
X156040000Y-85000000D03*
X153500000Y-85000000D03*
X153500000Y-78700000D03*
X154770000Y-78700000D03*
X156040000Y-78700000D03*
%TD*%
%TO.C,Q2*%
X147500000Y-85000000D03*
X144960000Y-85000000D03*
X144960000Y-78700000D03*
X146230000Y-78700000D03*
X147500000Y-78700000D03*
%TD*%
D14*
%TO.C,R9*%
X141150000Y-77000000D03*
X142750000Y-77000000D03*
%TD*%
D17*
%TO.C,Q9*%
X176290000Y-85000000D03*
X173750000Y-85000000D03*
X173750000Y-78700000D03*
X175020000Y-78700000D03*
X176290000Y-78700000D03*
%TD*%
%TO.C,Q5*%
X160000000Y-85000000D03*
X157460000Y-85000000D03*
X157460000Y-78700000D03*
X158730000Y-78700000D03*
X160000000Y-78700000D03*
%TD*%
D14*
%TO.C,R24*%
X177940000Y-77000000D03*
X179540000Y-77000000D03*
%TD*%
D17*
%TO.C,Q1*%
X143290000Y-85000000D03*
X140750000Y-85000000D03*
X140750000Y-78700000D03*
X142020000Y-78700000D03*
X143290000Y-78700000D03*
%TD*%
M02*
