M48
; DRILL file {KiCad 9.0.7} date 2026-03-30T10:08:14+0200
; FORMAT={-:-/ absolute / metric / decimal}
; #@! TF.CreationDate,2026-03-30T10:08:14+02:00
; #@! TF.GenerationSoftware,Kicad,Pcbnew,9.0.7
; #@! TF.FileFunction,Plated,1,2,PTH
FMAT,2
METRIC
; #@! TA.AperFunction,Plated,PTH,ViaDrill
T1C0.300
; #@! TA.AperFunction,Plated,PTH,ComponentDrill
T2C1.100
; #@! TA.AperFunction,Plated,PTH,ComponentDrill
T3C1.300
; #@! TA.AperFunction,Plated,PTH,ComponentDrill
T4C1.500
%
G90
G05
T1
X131.0Y-91.5
X136.18Y-89.309
X140.0Y-81.5
X141.0Y-80.0
X141.0Y-80.725
X143.0Y-75.5
X144.0Y-82.5
X144.5Y-82.0
X148.175Y-63.55
X149.0Y-51.0
X152.0Y-68.5
X155.0Y-67.0
X156.0Y-66.0
X156.5Y-63.0
X157.0Y-67.0
X158.35Y-64.0
X159.5Y-51.0
X160.0Y-67.0
X163.0Y-67.0
X170.0Y-51.0
X174.5Y-71.45
X175.5Y-71.95
X176.374Y-72.45
X176.93Y-72.931
X177.429Y-73.422
X177.69Y-76.19
X177.9Y-73.94
X178.0Y-75.5
X178.5Y-74.3
X178.5Y-75.0
T2
X142.5Y-100.0
X146.0Y-100.0
X149.5Y-100.0
X153.0Y-100.0
X156.5Y-100.0
X160.0Y-100.0
X163.5Y-100.0
X167.0Y-100.0
X170.5Y-100.0
X174.0Y-100.0
X177.5Y-100.0
T3
X187.0Y-77.05
X187.0Y-85.25
X192.0Y-77.05
X192.0Y-85.25
T4
X143.25Y-48.7
X143.25Y-61.405
X176.25Y-48.7
X176.25Y-67.75
M30
