%TF.GenerationSoftware,KiCad,Pcbnew,9.0.7*%
%TF.CreationDate,2026-03-30T10:08:18+02:00*%
%TF.ProjectId,Aurora,4175726f-7261-42e6-9b69-6361645f7063,rev?*%
%TF.SameCoordinates,Original*%
%TF.FileFunction,Paste,Top*%
%TF.FilePolarity,Positive*%
%FSLAX46Y46*%
G04 Gerber Fmt 4.6, Leading zero omitted, Abs format (unit mm)*
G04 Created by KiCad (PCBNEW 9.0.7) date 2026-03-30 10:08:18*
%MOMM*%
%LPD*%
G01*
G04 APERTURE LIST*
G04 Aperture macros list*
%AMRoundRect*
0 Rectangle with rounded corners*
0 $1 Rounding radius*
0 $2 $3 $4 $5 $6 $7 $8 $9 X,Y pos of 4 corners*
0 Add a 4 corners polygon primitive as box body*
4,1,4,$2,$3,$4,$5,$6,$7,$8,$9,$2,$3,0*
0 Add four circle primitives for the rounded corners*
1,1,$1+$1,$2,$3*
1,1,$1+$1,$4,$5*
1,1,$1+$1,$6,$7*
1,1,$1+$1,$8,$9*
0 Add four rect primitives between the rounded corners*
20,1,$1+$1,$2,$3,$4,$5,0*
20,1,$1+$1,$4,$5,$6,$7,0*
20,1,$1+$1,$6,$7,$8,$9,0*
20,1,$1+$1,$8,$9,$2,$3,0*%
G04 Aperture macros list end*
%ADD10R,3.700000X1.100000*%
%ADD11R,0.550000X1.050000*%
%ADD12R,0.350000X0.600000*%
%ADD13R,1.700000X1.100000*%
%ADD14R,1.550000X2.350000*%
%ADD15R,1.050000X0.800000*%
%ADD16R,1.430000X0.940000*%
%ADD17RoundRect,0.200000X-0.200000X-0.275000X0.200000X-0.275000X0.200000X0.275000X-0.200000X0.275000X0*%
%ADD18RoundRect,0.140000X-0.170000X0.140000X-0.170000X-0.140000X0.170000X-0.140000X0.170000X0.140000X0*%
%ADD19R,3.100000X1.200000*%
%ADD20C,5.700000*%
%ADD21RoundRect,0.232500X-0.232500X-0.232500X0.232500X-0.232500X0.232500X0.232500X-0.232500X0.232500X0*%
%ADD22RoundRect,0.062500X-0.375000X-0.062500X0.375000X-0.062500X0.375000X0.062500X-0.375000X0.062500X0*%
%ADD23RoundRect,0.062500X-0.062500X-0.375000X0.062500X-0.375000X0.062500X0.375000X-0.062500X0.375000X0*%
G04 APERTURE END LIST*
D10*
%TO.C,L3*%
X149000000Y-53550000D03*
X149000000Y-56550000D03*
%TD*%
%TO.C,L2*%
X170000000Y-53400000D03*
X170000000Y-56400000D03*
%TD*%
%TO.C,L1*%
X159500000Y-53500000D03*
X159500000Y-56500000D03*
%TD*%
D11*
%TO.C,IC6*%
X149950000Y-59250000D03*
X149000000Y-59250000D03*
X148050000Y-59250000D03*
X148050000Y-61850000D03*
X149950000Y-61850000D03*
%TD*%
%TO.C,IC5*%
X170950000Y-59400000D03*
X170000000Y-59400000D03*
X169050000Y-59400000D03*
X169050000Y-62000000D03*
X170950000Y-62000000D03*
%TD*%
%TO.C,IC4*%
X160000000Y-59400000D03*
X159050000Y-59400000D03*
X158100000Y-59400000D03*
X158100000Y-62000000D03*
X160000000Y-62000000D03*
%TD*%
D12*
%TO.C,IC1*%
X129850000Y-79550000D03*
X130500000Y-79550000D03*
X131150000Y-79550000D03*
X131150000Y-77450000D03*
X130500000Y-77450000D03*
X129850000Y-77450000D03*
D13*
X130500000Y-78500000D03*
%TD*%
D14*
%TO.C,D3*%
X154000000Y-57700000D03*
X154000000Y-53400000D03*
%TD*%
%TO.C,D2*%
X175000000Y-57550000D03*
X175000000Y-53250000D03*
%TD*%
%TO.C,D1*%
X164500000Y-57650000D03*
X164500000Y-53350000D03*
%TD*%
D15*
%TO.C,C8*%
X173500000Y-62750000D03*
X173500000Y-60900000D03*
%TD*%
%TO.C,C7*%
X152500000Y-62900000D03*
X152500000Y-61050000D03*
%TD*%
%TO.C,C6*%
X162500000Y-63000000D03*
X162500000Y-61150000D03*
%TD*%
D16*
%TO.C,C4*%
X130500000Y-81180000D03*
X130500000Y-82820000D03*
%TD*%
%TO.C,C2*%
X128000000Y-79520000D03*
X128000000Y-77880000D03*
%TD*%
%TO.C,C1*%
X143000000Y-54680000D03*
X143000000Y-56320000D03*
%TD*%
D17*
%TO.C,R29*%
X170825000Y-63900000D03*
X169175000Y-63900000D03*
%TD*%
%TO.C,R28*%
X160000000Y-64000000D03*
X158350000Y-64000000D03*
%TD*%
%TO.C,R30*%
X149825000Y-63550000D03*
X148175000Y-63550000D03*
%TD*%
D18*
%TO.C,C3*%
X141500000Y-55040000D03*
X141500000Y-56000000D03*
%TD*%
%TO.C,C5*%
X132000000Y-81020000D03*
X132000000Y-81980000D03*
%TD*%
D19*
%TO.C,LED1*%
X166298000Y-70572000D03*
X153858000Y-70572000D03*
X166298000Y-72272000D03*
X153858000Y-72272000D03*
X166298000Y-73972000D03*
X153858000Y-73972000D03*
D20*
X160078000Y-72272000D03*
%TD*%
D21*
%TO.C,IC3*%
X134600000Y-80100000D03*
X134600000Y-81250000D03*
X134600000Y-82400000D03*
X135750000Y-80100000D03*
X135750000Y-81250000D03*
X135750000Y-82400000D03*
X136900000Y-80100000D03*
X136900000Y-81250000D03*
X136900000Y-82400000D03*
D22*
X133312500Y-79500000D03*
X133312500Y-80000000D03*
X133312500Y-80500000D03*
X133312500Y-81000000D03*
X133312500Y-81500000D03*
X133312500Y-82000000D03*
X133312500Y-82500000D03*
X133312500Y-83000000D03*
D23*
X134000000Y-83687500D03*
X134500000Y-83687500D03*
X135000000Y-83687500D03*
X135500000Y-83687500D03*
X136000000Y-83687500D03*
X136500000Y-83687500D03*
X137000000Y-83687500D03*
X137500000Y-83687500D03*
D22*
X138187500Y-83000000D03*
X138187500Y-82500000D03*
X138187500Y-82000000D03*
X138187500Y-81500000D03*
X138187500Y-81000000D03*
X138187500Y-80500000D03*
X138187500Y-80000000D03*
X138187500Y-79500000D03*
D23*
X137500000Y-78812500D03*
X137000000Y-78812500D03*
X136500000Y-78812500D03*
X136000000Y-78812500D03*
X135500000Y-78812500D03*
X135000000Y-78812500D03*
X134500000Y-78812500D03*
X134000000Y-78812500D03*
%TD*%
D19*
%TO.C,LED2*%
X166250000Y-81000000D03*
X153810000Y-81000000D03*
X166250000Y-82700000D03*
X153810000Y-82700000D03*
X166250000Y-84400000D03*
X153810000Y-84400000D03*
D20*
X160030000Y-82700000D03*
%TD*%
D17*
%TO.C,R26*%
X142350000Y-81000000D03*
X144000000Y-81000000D03*
%TD*%
%TO.C,R27*%
X142350000Y-83510000D03*
X144000000Y-83510000D03*
%TD*%
%TO.C,R25*%
X142350000Y-78490000D03*
X144000000Y-78490000D03*
%TD*%
M02*
