%TF.GenerationSoftware,KiCad,Pcbnew,9.0.7*%
%TF.CreationDate,2026-03-30T10:08:18+02:00*%
%TF.ProjectId,Aurora,4175726f-7261-42e6-9b69-6361645f7063,rev?*%
%TF.SameCoordinates,Original*%
%TF.FileFunction,Legend,Top*%
%TF.FilePolarity,Positive*%
%FSLAX46Y46*%
G04 Gerber Fmt 4.6, Leading zero omitted, Abs format (unit mm)*
G04 Created by KiCad (PCBNEW 9.0.7) date 2026-03-30 10:08:18*
%MOMM*%
%LPD*%
G01*
G04 APERTURE LIST*
%ADD10C,0.300000*%
%ADD11C,0.200000*%
%ADD12C,0.100000*%
%ADD13C,0.250000*%
%ADD14C,0.120000*%
G04 APERTURE END LIST*
D10*
X152862510Y-75797400D02*
X154005368Y-75797400D01*
X153433939Y-76368828D02*
X153433939Y-75225971D01*
X152814510Y-86225400D02*
X153957368Y-86225400D01*
X153385939Y-86796828D02*
X153385939Y-85653971D01*
D11*
%TO.C,L3*%
X146900000Y-54450000D02*
X146900000Y-55650000D01*
X151100000Y-54450000D02*
X151100000Y-55650000D01*
D12*
X149000000Y-52450000D02*
X149000000Y-52450000D01*
X149000000Y-52350000D02*
X149000000Y-52350000D01*
X149000000Y-52350000D02*
G75*
G02*
X149000000Y-52450000I0J-50000D01*
G01*
X149000000Y-52450000D02*
G75*
G02*
X149000000Y-52350000I0J50000D01*
G01*
D11*
%TO.C,L2*%
X167900000Y-54300000D02*
X167900000Y-55500000D01*
X172100000Y-54300000D02*
X172100000Y-55500000D01*
D12*
X170000000Y-52300000D02*
X170000000Y-52300000D01*
X170000000Y-52200000D02*
X170000000Y-52200000D01*
X170000000Y-52200000D02*
G75*
G02*
X170000000Y-52300000I0J-50000D01*
G01*
X170000000Y-52300000D02*
G75*
G02*
X170000000Y-52200000I0J50000D01*
G01*
D11*
%TO.C,L1*%
X157400000Y-54400000D02*
X157400000Y-55600000D01*
X161600000Y-54400000D02*
X161600000Y-55600000D01*
D12*
X159500000Y-52400000D02*
X159500000Y-52400000D01*
X159500000Y-52300000D02*
X159500000Y-52300000D01*
X159500000Y-52300000D02*
G75*
G02*
X159500000Y-52400000I0J-50000D01*
G01*
X159500000Y-52400000D02*
G75*
G02*
X159500000Y-52300000I0J50000D01*
G01*
D11*
%TO.C,IC6*%
X150450000Y-60125000D02*
X150450000Y-60975000D01*
X150450000Y-60975000D02*
X147550000Y-60975000D01*
X147550000Y-60975000D02*
X147550000Y-60125000D01*
X147550000Y-60125000D02*
X150450000Y-60125000D01*
X150475000Y-58725000D02*
X150475000Y-59775000D01*
%TO.C,IC5*%
X171450000Y-60275000D02*
X171450000Y-61125000D01*
X171450000Y-61125000D02*
X168550000Y-61125000D01*
X168550000Y-61125000D02*
X168550000Y-60275000D01*
X168550000Y-60275000D02*
X171450000Y-60275000D01*
X171475000Y-58875000D02*
X171475000Y-59925000D01*
%TO.C,IC4*%
X160500000Y-60275000D02*
X160500000Y-61125000D01*
X160500000Y-61125000D02*
X157600000Y-61125000D01*
X157600000Y-61125000D02*
X157600000Y-60275000D01*
X157600000Y-60275000D02*
X160500000Y-60275000D01*
X160525000Y-58875000D02*
X160525000Y-59925000D01*
D13*
%TO.C,IC1*%
X129300000Y-79850000D02*
G75*
G02*
X129050000Y-79850000I-125000J0D01*
G01*
X129050000Y-79850000D02*
G75*
G02*
X129300000Y-79850000I125000J0D01*
G01*
D11*
%TO.C,D3*%
X152638000Y-52950000D02*
X152638000Y-58475000D01*
X155362000Y-58150000D02*
X155362000Y-52950000D01*
%TO.C,D2*%
X173638000Y-52800000D02*
X173638000Y-58325000D01*
X176362000Y-58000000D02*
X176362000Y-52800000D01*
%TO.C,D1*%
X163138000Y-52900000D02*
X163138000Y-58425000D01*
X165862000Y-58100000D02*
X165862000Y-52900000D01*
%TO.C,C8*%
X172975000Y-61825000D02*
X174025000Y-61825000D01*
X173400000Y-63625000D02*
X173400000Y-63625000D01*
X173600000Y-63625000D02*
X173600000Y-63625000D01*
X173600000Y-63625000D02*
G75*
G02*
X173400000Y-63625000I-100000J0D01*
G01*
X173400000Y-63625000D02*
G75*
G02*
X173600000Y-63625000I100000J0D01*
G01*
%TO.C,C7*%
X151975000Y-61975000D02*
X153025000Y-61975000D01*
X152400000Y-63775000D02*
X152400000Y-63775000D01*
X152600000Y-63775000D02*
X152600000Y-63775000D01*
X152600000Y-63775000D02*
G75*
G02*
X152400000Y-63775000I-100000J0D01*
G01*
X152400000Y-63775000D02*
G75*
G02*
X152600000Y-63775000I100000J0D01*
G01*
%TO.C,C6*%
X161975000Y-62075000D02*
X163025000Y-62075000D01*
X162400000Y-63875000D02*
X162400000Y-63875000D01*
X162600000Y-63875000D02*
X162600000Y-63875000D01*
X162600000Y-63875000D02*
G75*
G02*
X162400000Y-63875000I-100000J0D01*
G01*
X162400000Y-63875000D02*
G75*
G02*
X162600000Y-63875000I100000J0D01*
G01*
%TO.C,C4*%
X131025000Y-82000000D02*
X129975000Y-82000000D01*
%TO.C,C2*%
X127475000Y-78700000D02*
X128525000Y-78700000D01*
%TO.C,C1*%
X143525000Y-55500000D02*
X142475000Y-55500000D01*
D14*
%TO.C,R29*%
X169762742Y-64422500D02*
X170237258Y-64422500D01*
X169762742Y-63377500D02*
X170237258Y-63377500D01*
%TO.C,R28*%
X158937742Y-64522500D02*
X159412258Y-64522500D01*
X158937742Y-63477500D02*
X159412258Y-63477500D01*
%TO.C,R30*%
X148762742Y-64072500D02*
X149237258Y-64072500D01*
X148762742Y-63027500D02*
X149237258Y-63027500D01*
%TO.C,C3*%
X141860000Y-55412164D02*
X141860000Y-55627836D01*
X141140000Y-55412164D02*
X141140000Y-55627836D01*
%TO.C,C5*%
X132360000Y-81392164D02*
X132360000Y-81607836D01*
X131640000Y-81392164D02*
X131640000Y-81607836D01*
%TO.C,LED1*%
X152328000Y-69722000D02*
X156678000Y-69722000D01*
X154978000Y-74822000D02*
X156678000Y-74822000D01*
X156678000Y-67972000D02*
X156678000Y-69722000D01*
X156678000Y-74822000D02*
X156678000Y-76572000D01*
X163478000Y-67972000D02*
X156678000Y-67972000D01*
X163478000Y-67972000D02*
X163478000Y-69722000D01*
X163478000Y-69722000D02*
X164778000Y-69722000D01*
X163478000Y-74822000D02*
X163478000Y-76572000D01*
X163478000Y-76572000D02*
X156678000Y-76572000D01*
X164778000Y-69722000D02*
X165178000Y-69722000D01*
X165178000Y-74822000D02*
X163478000Y-74822000D01*
%TO.C,IC3*%
X133140000Y-78640000D02*
X133615000Y-78640000D01*
X133140000Y-79115000D02*
X133140000Y-78640000D01*
X133140000Y-83860000D02*
X133140000Y-83385000D01*
X133615000Y-83860000D02*
X133140000Y-83860000D01*
X137885000Y-78640000D02*
X138360000Y-78640000D01*
X138360000Y-78640000D02*
X138360000Y-79115000D01*
X138360000Y-83385000D02*
X138360000Y-83860000D01*
X138360000Y-83860000D02*
X137885000Y-83860000D01*
X132610000Y-79500000D02*
X132280000Y-79740000D01*
X132280000Y-79260000D01*
X132610000Y-79500000D01*
G36*
X132610000Y-79500000D02*
G01*
X132280000Y-79740000D01*
X132280000Y-79260000D01*
X132610000Y-79500000D01*
G37*
%TO.C,LED2*%
X152280000Y-80150000D02*
X156630000Y-80150000D01*
X154930000Y-85250000D02*
X156630000Y-85250000D01*
X156630000Y-78400000D02*
X156630000Y-80150000D01*
X156630000Y-85250000D02*
X156630000Y-87000000D01*
X163430000Y-78400000D02*
X156630000Y-78400000D01*
X163430000Y-78400000D02*
X163430000Y-80150000D01*
X163430000Y-80150000D02*
X164730000Y-80150000D01*
X163430000Y-85250000D02*
X163430000Y-87000000D01*
X163430000Y-87000000D02*
X156630000Y-87000000D01*
X164730000Y-80150000D02*
X165130000Y-80150000D01*
X165130000Y-85250000D02*
X163430000Y-85250000D01*
%TO.C,R26*%
X142937742Y-80477500D02*
X143412258Y-80477500D01*
X142937742Y-81522500D02*
X143412258Y-81522500D01*
%TO.C,R27*%
X142937742Y-82987500D02*
X143412258Y-82987500D01*
X142937742Y-84032500D02*
X143412258Y-84032500D01*
%TO.C,R25*%
X142937742Y-77967500D02*
X143412258Y-77967500D01*
X142937742Y-79012500D02*
X143412258Y-79012500D01*
%TD*%
M02*
