%TF.GenerationSoftware,KiCad,Pcbnew,9.0.7*%
%TF.CreationDate,2026-03-30T10:08:18+02:00*%
%TF.ProjectId,Aurora,4175726f-7261-42e6-9b69-6361645f7063,rev?*%
%TF.SameCoordinates,Original*%
%TF.FileFunction,Legend,Bot*%
%TF.FilePolarity,Positive*%
%FSLAX46Y46*%
G04 Gerber Fmt 4.6, Leading zero omitted, Abs format (unit mm)*
G04 Created by KiCad (PCBNEW 9.0.7) date 2026-03-30 10:08:18*
%MOMM*%
%LPD*%
G01*
G04 APERTURE LIST*
%ADD10C,0.100000*%
%ADD11C,0.200000*%
%ADD12C,0.332843*%
G04 APERTURE END LIST*
D10*
X187457419Y-94553884D02*
X186457419Y-94553884D01*
X186457419Y-94553884D02*
X187457419Y-95125312D01*
X187457419Y-95125312D02*
X186457419Y-95125312D01*
X192457419Y-95030074D02*
X192457419Y-94553884D01*
X192457419Y-94553884D02*
X191457419Y-94553884D01*
X132940476Y-65122419D02*
X133416666Y-65122419D01*
X133416666Y-65122419D02*
X133464285Y-65598609D01*
X133464285Y-65598609D02*
X133416666Y-65550990D01*
X133416666Y-65550990D02*
X133321428Y-65503371D01*
X133321428Y-65503371D02*
X133083333Y-65503371D01*
X133083333Y-65503371D02*
X132988095Y-65550990D01*
X132988095Y-65550990D02*
X132940476Y-65598609D01*
X132940476Y-65598609D02*
X132892857Y-65693847D01*
X132892857Y-65693847D02*
X132892857Y-65931942D01*
X132892857Y-65931942D02*
X132940476Y-66027180D01*
X132940476Y-66027180D02*
X132988095Y-66074800D01*
X132988095Y-66074800D02*
X133083333Y-66122419D01*
X133083333Y-66122419D02*
X133321428Y-66122419D01*
X133321428Y-66122419D02*
X133416666Y-66074800D01*
X133416666Y-66074800D02*
X133464285Y-66027180D01*
X132607142Y-65122419D02*
X132273809Y-66122419D01*
X132273809Y-66122419D02*
X131940476Y-65122419D01*
X133511904Y-63340038D02*
X133607142Y-63292419D01*
X133607142Y-63292419D02*
X133749999Y-63292419D01*
X133749999Y-63292419D02*
X133892856Y-63340038D01*
X133892856Y-63340038D02*
X133988094Y-63435276D01*
X133988094Y-63435276D02*
X134035713Y-63530514D01*
X134035713Y-63530514D02*
X134083332Y-63720990D01*
X134083332Y-63720990D02*
X134083332Y-63863847D01*
X134083332Y-63863847D02*
X134035713Y-64054323D01*
X134035713Y-64054323D02*
X133988094Y-64149561D01*
X133988094Y-64149561D02*
X133892856Y-64244800D01*
X133892856Y-64244800D02*
X133749999Y-64292419D01*
X133749999Y-64292419D02*
X133654761Y-64292419D01*
X133654761Y-64292419D02*
X133511904Y-64244800D01*
X133511904Y-64244800D02*
X133464285Y-64197180D01*
X133464285Y-64197180D02*
X133464285Y-63863847D01*
X133464285Y-63863847D02*
X133654761Y-63863847D01*
X133035713Y-64292419D02*
X133035713Y-63292419D01*
X133035713Y-63292419D02*
X132464285Y-64292419D01*
X132464285Y-64292419D02*
X132464285Y-63292419D01*
X131988094Y-64292419D02*
X131988094Y-63292419D01*
X131988094Y-63292419D02*
X131749999Y-63292419D01*
X131749999Y-63292419D02*
X131607142Y-63340038D01*
X131607142Y-63340038D02*
X131511904Y-63435276D01*
X131511904Y-63435276D02*
X131464285Y-63530514D01*
X131464285Y-63530514D02*
X131416666Y-63720990D01*
X131416666Y-63720990D02*
X131416666Y-63863847D01*
X131416666Y-63863847D02*
X131464285Y-64054323D01*
X131464285Y-64054323D02*
X131511904Y-64149561D01*
X131511904Y-64149561D02*
X131607142Y-64244800D01*
X131607142Y-64244800D02*
X131749999Y-64292419D01*
X131749999Y-64292419D02*
X131988094Y-64292419D01*
X177957419Y-107803884D02*
X176957419Y-107803884D01*
X178052657Y-108041979D02*
X178052657Y-108803883D01*
X177862180Y-109613407D02*
X177909800Y-109565788D01*
X177909800Y-109565788D02*
X177957419Y-109422931D01*
X177957419Y-109422931D02*
X177957419Y-109327693D01*
X177957419Y-109327693D02*
X177909800Y-109184836D01*
X177909800Y-109184836D02*
X177814561Y-109089598D01*
X177814561Y-109089598D02*
X177719323Y-109041979D01*
X177719323Y-109041979D02*
X177528847Y-108994360D01*
X177528847Y-108994360D02*
X177385990Y-108994360D01*
X177385990Y-108994360D02*
X177195514Y-109041979D01*
X177195514Y-109041979D02*
X177100276Y-109089598D01*
X177100276Y-109089598D02*
X177005038Y-109184836D01*
X177005038Y-109184836D02*
X176957419Y-109327693D01*
X176957419Y-109327693D02*
X176957419Y-109422931D01*
X176957419Y-109422931D02*
X177005038Y-109565788D01*
X177005038Y-109565788D02*
X177052657Y-109613407D01*
X176957419Y-110232455D02*
X176957419Y-110422931D01*
X176957419Y-110422931D02*
X177005038Y-110518169D01*
X177005038Y-110518169D02*
X177100276Y-110613407D01*
X177100276Y-110613407D02*
X177290752Y-110661026D01*
X177290752Y-110661026D02*
X177624085Y-110661026D01*
X177624085Y-110661026D02*
X177814561Y-110613407D01*
X177814561Y-110613407D02*
X177909800Y-110518169D01*
X177909800Y-110518169D02*
X177957419Y-110422931D01*
X177957419Y-110422931D02*
X177957419Y-110232455D01*
X177957419Y-110232455D02*
X177909800Y-110137217D01*
X177909800Y-110137217D02*
X177814561Y-110041979D01*
X177814561Y-110041979D02*
X177624085Y-109994360D01*
X177624085Y-109994360D02*
X177290752Y-109994360D01*
X177290752Y-109994360D02*
X177100276Y-110041979D01*
X177100276Y-110041979D02*
X177005038Y-110137217D01*
X177005038Y-110137217D02*
X176957419Y-110232455D01*
X177957419Y-111089598D02*
X176957419Y-111089598D01*
X176957419Y-111089598D02*
X177671704Y-111422931D01*
X177671704Y-111422931D02*
X176957419Y-111756264D01*
X176957419Y-111756264D02*
X177957419Y-111756264D01*
X174457419Y-107803884D02*
X173457419Y-107803884D01*
X174457419Y-108327693D02*
X174457419Y-108518169D01*
X174457419Y-108518169D02*
X174409800Y-108613407D01*
X174409800Y-108613407D02*
X174362180Y-108661026D01*
X174362180Y-108661026D02*
X174219323Y-108756264D01*
X174219323Y-108756264D02*
X174028847Y-108803883D01*
X174028847Y-108803883D02*
X173647895Y-108803883D01*
X173647895Y-108803883D02*
X173552657Y-108756264D01*
X173552657Y-108756264D02*
X173505038Y-108708645D01*
X173505038Y-108708645D02*
X173457419Y-108613407D01*
X173457419Y-108613407D02*
X173457419Y-108422931D01*
X173457419Y-108422931D02*
X173505038Y-108327693D01*
X173505038Y-108327693D02*
X173552657Y-108280074D01*
X173552657Y-108280074D02*
X173647895Y-108232455D01*
X173647895Y-108232455D02*
X173885990Y-108232455D01*
X173885990Y-108232455D02*
X173981228Y-108280074D01*
X173981228Y-108280074D02*
X174028847Y-108327693D01*
X174028847Y-108327693D02*
X174076466Y-108422931D01*
X174076466Y-108422931D02*
X174076466Y-108613407D01*
X174076466Y-108613407D02*
X174028847Y-108708645D01*
X174028847Y-108708645D02*
X173981228Y-108756264D01*
X173981228Y-108756264D02*
X173885990Y-108803883D01*
X170957419Y-107803884D02*
X169957419Y-107803884D01*
X170385990Y-108422931D02*
X170338371Y-108327693D01*
X170338371Y-108327693D02*
X170290752Y-108280074D01*
X170290752Y-108280074D02*
X170195514Y-108232455D01*
X170195514Y-108232455D02*
X170147895Y-108232455D01*
X170147895Y-108232455D02*
X170052657Y-108280074D01*
X170052657Y-108280074D02*
X170005038Y-108327693D01*
X170005038Y-108327693D02*
X169957419Y-108422931D01*
X169957419Y-108422931D02*
X169957419Y-108613407D01*
X169957419Y-108613407D02*
X170005038Y-108708645D01*
X170005038Y-108708645D02*
X170052657Y-108756264D01*
X170052657Y-108756264D02*
X170147895Y-108803883D01*
X170147895Y-108803883D02*
X170195514Y-108803883D01*
X170195514Y-108803883D02*
X170290752Y-108756264D01*
X170290752Y-108756264D02*
X170338371Y-108708645D01*
X170338371Y-108708645D02*
X170385990Y-108613407D01*
X170385990Y-108613407D02*
X170385990Y-108422931D01*
X170385990Y-108422931D02*
X170433609Y-108327693D01*
X170433609Y-108327693D02*
X170481228Y-108280074D01*
X170481228Y-108280074D02*
X170576466Y-108232455D01*
X170576466Y-108232455D02*
X170766942Y-108232455D01*
X170766942Y-108232455D02*
X170862180Y-108280074D01*
X170862180Y-108280074D02*
X170909800Y-108327693D01*
X170909800Y-108327693D02*
X170957419Y-108422931D01*
X170957419Y-108422931D02*
X170957419Y-108613407D01*
X170957419Y-108613407D02*
X170909800Y-108708645D01*
X170909800Y-108708645D02*
X170862180Y-108756264D01*
X170862180Y-108756264D02*
X170766942Y-108803883D01*
X170766942Y-108803883D02*
X170576466Y-108803883D01*
X170576466Y-108803883D02*
X170481228Y-108756264D01*
X170481228Y-108756264D02*
X170433609Y-108708645D01*
X170433609Y-108708645D02*
X170385990Y-108613407D01*
X167457419Y-107803884D02*
X166457419Y-107803884D01*
X166457419Y-108184836D02*
X166457419Y-108851502D01*
X166457419Y-108851502D02*
X167457419Y-108422931D01*
X163957419Y-107803884D02*
X162957419Y-107803884D01*
X162957419Y-108708645D02*
X162957419Y-108518169D01*
X162957419Y-108518169D02*
X163005038Y-108422931D01*
X163005038Y-108422931D02*
X163052657Y-108375312D01*
X163052657Y-108375312D02*
X163195514Y-108280074D01*
X163195514Y-108280074D02*
X163385990Y-108232455D01*
X163385990Y-108232455D02*
X163766942Y-108232455D01*
X163766942Y-108232455D02*
X163862180Y-108280074D01*
X163862180Y-108280074D02*
X163909800Y-108327693D01*
X163909800Y-108327693D02*
X163957419Y-108422931D01*
X163957419Y-108422931D02*
X163957419Y-108613407D01*
X163957419Y-108613407D02*
X163909800Y-108708645D01*
X163909800Y-108708645D02*
X163862180Y-108756264D01*
X163862180Y-108756264D02*
X163766942Y-108803883D01*
X163766942Y-108803883D02*
X163528847Y-108803883D01*
X163528847Y-108803883D02*
X163433609Y-108756264D01*
X163433609Y-108756264D02*
X163385990Y-108708645D01*
X163385990Y-108708645D02*
X163338371Y-108613407D01*
X163338371Y-108613407D02*
X163338371Y-108422931D01*
X163338371Y-108422931D02*
X163385990Y-108327693D01*
X163385990Y-108327693D02*
X163433609Y-108280074D01*
X163433609Y-108280074D02*
X163528847Y-108232455D01*
X160457419Y-107803884D02*
X159457419Y-107803884D01*
X159457419Y-108756264D02*
X159457419Y-108280074D01*
X159457419Y-108280074D02*
X159933609Y-108232455D01*
X159933609Y-108232455D02*
X159885990Y-108280074D01*
X159885990Y-108280074D02*
X159838371Y-108375312D01*
X159838371Y-108375312D02*
X159838371Y-108613407D01*
X159838371Y-108613407D02*
X159885990Y-108708645D01*
X159885990Y-108708645D02*
X159933609Y-108756264D01*
X159933609Y-108756264D02*
X160028847Y-108803883D01*
X160028847Y-108803883D02*
X160266942Y-108803883D01*
X160266942Y-108803883D02*
X160362180Y-108756264D01*
X160362180Y-108756264D02*
X160409800Y-108708645D01*
X160409800Y-108708645D02*
X160457419Y-108613407D01*
X160457419Y-108613407D02*
X160457419Y-108375312D01*
X160457419Y-108375312D02*
X160409800Y-108280074D01*
X160409800Y-108280074D02*
X160362180Y-108232455D01*
X156957419Y-107803884D02*
X155957419Y-107803884D01*
X156290752Y-108708645D02*
X156957419Y-108708645D01*
X155909800Y-108470550D02*
X156624085Y-108232455D01*
X156624085Y-108232455D02*
X156624085Y-108851502D01*
X153457419Y-107803884D02*
X152457419Y-107803884D01*
X152457419Y-108184836D02*
X152457419Y-108803883D01*
X152457419Y-108803883D02*
X152838371Y-108470550D01*
X152838371Y-108470550D02*
X152838371Y-108613407D01*
X152838371Y-108613407D02*
X152885990Y-108708645D01*
X152885990Y-108708645D02*
X152933609Y-108756264D01*
X152933609Y-108756264D02*
X153028847Y-108803883D01*
X153028847Y-108803883D02*
X153266942Y-108803883D01*
X153266942Y-108803883D02*
X153362180Y-108756264D01*
X153362180Y-108756264D02*
X153409800Y-108708645D01*
X153409800Y-108708645D02*
X153457419Y-108613407D01*
X153457419Y-108613407D02*
X153457419Y-108327693D01*
X153457419Y-108327693D02*
X153409800Y-108232455D01*
X153409800Y-108232455D02*
X153362180Y-108184836D01*
X149957419Y-107803884D02*
X148957419Y-107803884D01*
X149052657Y-108232455D02*
X149005038Y-108280074D01*
X149005038Y-108280074D02*
X148957419Y-108375312D01*
X148957419Y-108375312D02*
X148957419Y-108613407D01*
X148957419Y-108613407D02*
X149005038Y-108708645D01*
X149005038Y-108708645D02*
X149052657Y-108756264D01*
X149052657Y-108756264D02*
X149147895Y-108803883D01*
X149147895Y-108803883D02*
X149243133Y-108803883D01*
X149243133Y-108803883D02*
X149385990Y-108756264D01*
X149385990Y-108756264D02*
X149957419Y-108184836D01*
X149957419Y-108184836D02*
X149957419Y-108803883D01*
X146457419Y-107803884D02*
X145457419Y-107803884D01*
X146457419Y-108803883D02*
X146457419Y-108232455D01*
X146457419Y-108518169D02*
X145457419Y-108518169D01*
X145457419Y-108518169D02*
X145600276Y-108422931D01*
X145600276Y-108422931D02*
X145695514Y-108327693D01*
X145695514Y-108327693D02*
X145743133Y-108232455D01*
X142957419Y-107803884D02*
X141957419Y-107803884D01*
X141957419Y-108470550D02*
X141957419Y-108565788D01*
X141957419Y-108565788D02*
X142005038Y-108661026D01*
X142005038Y-108661026D02*
X142052657Y-108708645D01*
X142052657Y-108708645D02*
X142147895Y-108756264D01*
X142147895Y-108756264D02*
X142338371Y-108803883D01*
X142338371Y-108803883D02*
X142576466Y-108803883D01*
X142576466Y-108803883D02*
X142766942Y-108756264D01*
X142766942Y-108756264D02*
X142862180Y-108708645D01*
X142862180Y-108708645D02*
X142909800Y-108661026D01*
X142909800Y-108661026D02*
X142957419Y-108565788D01*
X142957419Y-108565788D02*
X142957419Y-108470550D01*
X142957419Y-108470550D02*
X142909800Y-108375312D01*
X142909800Y-108375312D02*
X142862180Y-108327693D01*
X142862180Y-108327693D02*
X142766942Y-108280074D01*
X142766942Y-108280074D02*
X142576466Y-108232455D01*
X142576466Y-108232455D02*
X142338371Y-108232455D01*
X142338371Y-108232455D02*
X142147895Y-108280074D01*
X142147895Y-108280074D02*
X142052657Y-108327693D01*
X142052657Y-108327693D02*
X142005038Y-108375312D01*
X142005038Y-108375312D02*
X141957419Y-108470550D01*
%TO.C,J2*%
X127700000Y-80700000D02*
G75*
G02*
X127800000Y-80700000I50000J0D01*
G01*
X127800000Y-80700000D02*
G75*
G02*
X127700000Y-80700000I-50000J0D01*
G01*
X127700000Y-80700000D02*
X127700000Y-80700000D01*
X127800000Y-80700000D02*
X127800000Y-80700000D01*
D11*
X124800000Y-73030000D02*
X123400000Y-73030000D01*
X124800000Y-81970000D02*
X123400000Y-81970000D01*
X119322000Y-73030000D02*
X120800000Y-73030000D01*
X119322000Y-81970000D02*
X119322000Y-73030000D01*
X120800000Y-81970000D02*
X119322000Y-81970000D01*
%TO.C,R19*%
X130000000Y-75825000D02*
X130000000Y-75175000D01*
%TO.C,R18*%
X179890000Y-89250000D02*
X177590000Y-89250000D01*
%TO.C,R17*%
X176200000Y-89250000D02*
X173900000Y-89250000D01*
%TO.C,R16*%
X172050000Y-89250000D02*
X169750000Y-89250000D01*
%TO.C,R15*%
X167940000Y-89250000D02*
X165640000Y-89250000D01*
%TO.C,R14*%
X163790000Y-89250000D02*
X161490000Y-89250000D01*
%TO.C,R7*%
X130000000Y-79175000D02*
X130000000Y-79825000D01*
%TO.C,R6*%
X130000000Y-81325000D02*
X130000000Y-80675000D01*
%TO.C,R5*%
X159810000Y-89250000D02*
X157510000Y-89250000D01*
%TO.C,R4*%
X155950000Y-89250000D02*
X153650000Y-89250000D01*
%TO.C,R3*%
X151550000Y-89250000D02*
X149250000Y-89250000D01*
%TO.C,R2*%
X147360000Y-89250000D02*
X145060000Y-89250000D01*
%TO.C,R1*%
X143150000Y-89250000D02*
X140850000Y-89250000D01*
D10*
%TO.C,J5*%
X179500000Y-94145000D02*
X140500000Y-94145000D01*
X140500000Y-94145000D02*
X140500000Y-107255000D01*
X140500000Y-107255000D02*
X179500000Y-107255000D01*
X179500000Y-107255000D02*
X179500000Y-94145000D01*
D11*
X180400000Y-100000000D02*
G75*
G02*
X180300000Y-100000000I-50000J0D01*
G01*
X180300000Y-100000000D02*
G75*
G02*
X180400000Y-100000000I50000J0D01*
G01*
D10*
%TO.C,J3*%
X129095000Y-91750000D02*
X129095000Y-95180000D01*
X137985000Y-95180000D02*
X137985000Y-91750000D01*
D11*
X137450000Y-97250000D02*
G75*
G02*
X137350000Y-97250000I-50000J0D01*
G01*
X137350000Y-97250000D02*
G75*
G02*
X137450000Y-97250000I50000J0D01*
G01*
%TO.C,J1*%
X195400000Y-77050000D02*
X195400000Y-77050000D01*
X195400000Y-77050000D02*
X195400000Y-77050000D01*
X195300000Y-77050000D02*
X195300000Y-77050000D01*
X194830000Y-74150000D02*
X183330000Y-74150000D01*
X194830000Y-91950000D02*
X194830000Y-74150000D01*
X183330000Y-74150000D02*
X183330000Y-91950000D01*
X183330000Y-91950000D02*
X194830000Y-91950000D01*
X195300000Y-77050000D02*
G75*
G02*
X195400000Y-77050000I50000J0D01*
G01*
X195400000Y-77050000D02*
G75*
G02*
X195300000Y-77050000I-50000J0D01*
G01*
X195400000Y-77050000D02*
G75*
G02*
X195300000Y-77050000I-50000J0D01*
G01*
%TO.C,R20*%
X162640000Y-77325000D02*
X162640000Y-76675000D01*
%TO.C,Q6*%
D12*
X164156421Y-83800000D02*
G75*
G02*
X163823579Y-83800000I-166421J0D01*
G01*
X163823579Y-83800000D02*
G75*
G02*
X164156421Y-83800000I166421J0D01*
G01*
D10*
X164190000Y-84000000D02*
X161390000Y-84000000D01*
X161390000Y-79600000D01*
X164190000Y-79600000D01*
X164190000Y-84000000D01*
D11*
%TO.C,R8*%
X130550000Y-82675000D02*
G75*
G02*
X130450000Y-82675000I-50000J0D01*
G01*
X130450000Y-82675000D02*
G75*
G02*
X130550000Y-82675000I50000J0D01*
G01*
%TO.C,IC2*%
X132150000Y-79100000D02*
X133350000Y-79100000D01*
X133700000Y-78962000D02*
X134300000Y-78962000D01*
X133700000Y-76038000D02*
X133700000Y-78962000D01*
X134300000Y-78962000D02*
X134300000Y-76038000D01*
X134300000Y-76038000D02*
X133700000Y-76038000D01*
%TO.C,S1*%
D10*
X131000000Y-102350000D02*
X137100000Y-102350000D01*
X137100000Y-98650000D01*
X131000000Y-98650000D01*
X131000000Y-102350000D01*
D11*
%TO.C,R10*%
X146210000Y-77325000D02*
X146210000Y-76675000D01*
%TO.C,R23*%
X175050000Y-77325000D02*
X175050000Y-76675000D01*
%TO.C,F1*%
X190500000Y-69000000D02*
X190500000Y-63000000D01*
D10*
X192000000Y-71600000D02*
X192000000Y-71600000D01*
X192000000Y-71700000D02*
X192000000Y-71700000D01*
D11*
X193500000Y-69000000D02*
X193500000Y-63000000D01*
D10*
X192000000Y-71600000D02*
G75*
G02*
X192000000Y-71700000I0J-50000D01*
G01*
X192000000Y-71700000D02*
G75*
G02*
X192000000Y-71600000I0J50000D01*
G01*
%TO.C,Q10*%
X180190000Y-84000000D02*
X177390000Y-84000000D01*
X177390000Y-79600000D01*
X180190000Y-79600000D01*
X180190000Y-84000000D01*
D12*
X180156421Y-83800000D02*
G75*
G02*
X179823579Y-83800000I-166421J0D01*
G01*
X179823579Y-83800000D02*
G75*
G02*
X180156421Y-83800000I166421J0D01*
G01*
D11*
%TO.C,R11*%
X150400000Y-77325000D02*
X150400000Y-76675000D01*
%TO.C,Q8*%
D10*
X172400000Y-84000000D02*
X169600000Y-84000000D01*
X169600000Y-79600000D01*
X172400000Y-79600000D01*
X172400000Y-84000000D01*
D12*
X172366421Y-83800000D02*
G75*
G02*
X172033579Y-83800000I-166421J0D01*
G01*
X172033579Y-83800000D02*
G75*
G02*
X172366421Y-83800000I166421J0D01*
G01*
%TO.C,Q7*%
D10*
X168190000Y-84000000D02*
X165390000Y-84000000D01*
X165390000Y-79600000D01*
X168190000Y-79600000D01*
X168190000Y-84000000D01*
D12*
X168156421Y-83800000D02*
G75*
G02*
X167823579Y-83800000I-166421J0D01*
G01*
X167823579Y-83800000D02*
G75*
G02*
X168156421Y-83800000I166421J0D01*
G01*
%TO.C,Q3*%
D10*
X151900000Y-84000000D02*
X149100000Y-84000000D01*
X149100000Y-79600000D01*
X151900000Y-79600000D01*
X151900000Y-84000000D01*
D12*
X151866421Y-83800000D02*
G75*
G02*
X151533579Y-83800000I-166421J0D01*
G01*
X151533579Y-83800000D02*
G75*
G02*
X151866421Y-83800000I166421J0D01*
G01*
D11*
%TO.C,R21*%
X166790000Y-77325000D02*
X166790000Y-76675000D01*
%TO.C,R13*%
X158660000Y-77325000D02*
X158660000Y-76675000D01*
%TO.C,R12*%
X154800000Y-77325000D02*
X154800000Y-76675000D01*
%TO.C,R22*%
X170900000Y-77325000D02*
X170900000Y-76675000D01*
%TO.C,Q4*%
D10*
X156150000Y-84000000D02*
X153350000Y-84000000D01*
X153350000Y-79600000D01*
X156150000Y-79600000D01*
X156150000Y-84000000D01*
D12*
X156116421Y-83800000D02*
G75*
G02*
X155783579Y-83800000I-166421J0D01*
G01*
X155783579Y-83800000D02*
G75*
G02*
X156116421Y-83800000I166421J0D01*
G01*
%TO.C,Q2*%
D10*
X147610000Y-84000000D02*
X144810000Y-84000000D01*
X144810000Y-79600000D01*
X147610000Y-79600000D01*
X147610000Y-84000000D01*
D12*
X147576421Y-83800000D02*
G75*
G02*
X147243579Y-83800000I-166421J0D01*
G01*
X147243579Y-83800000D02*
G75*
G02*
X147576421Y-83800000I166421J0D01*
G01*
D11*
%TO.C,R9*%
X141950000Y-77325000D02*
X141950000Y-76675000D01*
%TO.C,Q9*%
D10*
X176400000Y-84000000D02*
X173600000Y-84000000D01*
X173600000Y-79600000D01*
X176400000Y-79600000D01*
X176400000Y-84000000D01*
D12*
X176366421Y-83800000D02*
G75*
G02*
X176033579Y-83800000I-166421J0D01*
G01*
X176033579Y-83800000D02*
G75*
G02*
X176366421Y-83800000I166421J0D01*
G01*
%TO.C,Q5*%
D10*
X160110000Y-84000000D02*
X157310000Y-84000000D01*
X157310000Y-79600000D01*
X160110000Y-79600000D01*
X160110000Y-84000000D01*
D12*
X160076421Y-83800000D02*
G75*
G02*
X159743579Y-83800000I-166421J0D01*
G01*
X159743579Y-83800000D02*
G75*
G02*
X160076421Y-83800000I166421J0D01*
G01*
D11*
%TO.C,R24*%
X178740000Y-77325000D02*
X178740000Y-76675000D01*
%TO.C,Q1*%
D10*
X143400000Y-84000000D02*
X140600000Y-84000000D01*
X140600000Y-79600000D01*
X143400000Y-79600000D01*
X143400000Y-84000000D01*
D12*
X143366421Y-83800000D02*
G75*
G02*
X143033579Y-83800000I-166421J0D01*
G01*
X143033579Y-83800000D02*
G75*
G02*
X143366421Y-83800000I166421J0D01*
G01*
%TD*%
M02*
